{
.appVersion = "1352";
classes = (
{
code = "MatraU.Nnagari MatraUu.Nnagari Virama.Nnagari MatraR.Nnagari MatraRr.Nnagari ";
name = BelowBaseDefault;
},
{
code = "MatraU1.Nnagari MatraUu1.Nnagari Virama1.Nnagari MatraR1.Nnagari MatraRr1.Nnagari ";
name = BelowBase1;
},
{
code = "MatraU2.Nnagari MatraUu2.Nnagari Virama2.Nnagari MatraR2.Nnagari MatraRr2.Nnagari ";
name = BelowBase2;
},
{

glyphs = (
{
glyphname = .notdef;
lastChange = "2021-11-05 10:04:10 +0000";
layers = (
{
layerId = "5370898B-AC2E-42A7-894F-0BCCE5AE0A77";
paths = (
{
closed = 1;
nodes = (
"505 0 LINE",
"505 714 LINE",
"94 714 LINE",
"94 0 LINE"
);
},
{
closed = 1;
nodes = (
"145 663 LINE",
"454 663 LINE",
"454 51 LINE",
"145 51 LINE"
);
}
);
width = 600;
}
);
},
{
glyphname = VowelA.Nnagari;
lastChange = "2021-11-05 10:04:10 +0000";
layers = (
{
anchors = (
{
name = top;
position = "{698, 602}";
}
);
layerId = "5370898B-AC2E-42A7-894F-0BCCE5AE0A77";
paths = (
{
closed = 1;
nodes = (
"435 -7 OFFCURVE",
"485 36 OFFCURVE",
"485 118 CURVE SMOOTH",
"485 193 OFFCURVE",
"438 247 OFFCURVE",
"377 286 CURVE",
"352 300 LINE",
"295 330 OFFCURVE",
"228 349 OFFCURVE",
"119 360 CURVE",
"40 363 LINE",
"40 307 LINE",
"159 300 OFFCURVE",
"255 276 OFFCURVE",
"311 246 CURVE",
"334 229 LINE",
"371 203 OFFCURVE",
"403 166 OFFCURVE",
"403 118 CURVE SMOOTH",
"403 83 OFFCURVE",
"383 63 OFFCURVE",
"354 63 CURVE SMOOTH",
"325 63 OFFCURVE",
"302 83 OFFCURVE",
"302 118 CURVE SMOOTH",
"302 167 OFFCURVE",
"336 203 OFFCURVE",
"367 236 CURVE",
"304 276 LINE",
"269 240 OFFCURVE",
"220 187 OFFCURVE",
"220 118 CURVE SMOOTH",
"220 36 OFFCURVE",
"274 -7 OFFCURVE",
"355 -7 CURVE SMOOTH"
);
},
{
closed = 1;
nodes = (
"103 325 LINE",
"239 360 OFFCURVE",
"317 482 OFFCURVE",
"343 575 CURVE",
"277 613 LINE",
"248 497 OFFCURVE",
"158 398 OFFCURVE",
"40 368 CURVE",
"40 315 LINE"
);
},
{
closed = 1;
nodes = (
"267 558 LINE",
"292 575 LINE",
"323 575 LINE",
"323 622 LINE",
"30 622 LINE",
"30 558 LINE"
);
},
{
closed = 1;
nodes = (
"665 569 LINE",
"667 589 LINE",
"623 620 LINE",
"592 590 OFFCURVE",
"559 558 OFFCURVE",
"530 525 CURVE SMOOTH",
"328 298 LINE",
"385 252 LINE"
);
},
{
closed = 1;
nodes = (
"731 0 LINE",
"731 622 LINE",
"653 622 LINE",
"653 0 LINE"
);
},
{
closed = 1;
nodes = (
"694 558 LINE",
"694 622 LINE",
"277 622 LINE",
"277 558 LINE"
);
}
);
width = 846;
}
);
rightMetricsKey = VowelAa.Nnagari;
unicode = 119A0;
script = "";
category = Letter;
subCategory = Other;
},
{
glyphname = VowelI.Nnagari;
lastChange = "2021-11-05 10:04:10 +0000";
layers = (
{
layerId = "5370898B-AC2E-42A7-894F-0BCCE5AE0A77";
paths = (
{
closed = 1;
nodes = (
"340 -3 OFFCURVE",
"448 68 OFFCURVE",
"448 189 CURVE SMOOTH",
"448 318 OFFCURVE",
"342 367 OFFCURVE",
"194 367 CURVE SMOOTH",
"95 367 LINE",
"95 309 LINE",
"184 309 LINE SMOOTH",
"315 309 OFFCURVE",
"371 268 OFFCURVE",
"371 194 CURVE SMOOTH",
"371 113 OFFCURVE",
"316 65 OFFCURVE",
"195 65 CURVE",
"267 57 LINE",
"237 89 OFFCURVE",
"182 111 OFFCURVE",
"130 111 CURVE SMOOTH",
"86 111 OFFCURVE",
"61 93 OFFCURVE",
"61 60 CURVE",
"61 17 OFFCURVE",
"103 -3 OFFCURVE",
"178 -3 CURVE SMOOTH"
);
},
{
closed = 1;
nodes = (
"439 -120 LINE",
"363 -40 OFFCURVE",
"310 12 OFFCURVE",
"244 70 CURVE",
"193 34 LINE",
"255 -30 OFFCURVE",
"308 -84 OFFCURVE",
"339 -120 CURVE"
);
},
{
closed = 1;
nodes = (
"152 332 LINE",
"319 371 OFFCURVE",
"420 497 OFFCURVE",
"448 575 CURVE",
"386 613 LINE",
"355 516 OFFCURVE",
"247 415 OFFCURVE",
"95 378 CURVE",
"95 325 LINE"
);
},
{
closed = 1;
nodes = (
"403 558 LINE",
"418 575 LINE",
"448 575 LINE",
"448 622 LINE",
"40 622 LINE",
"40 558 LINE"
);
}
);
width = 538;
}
);
unicode = 119A2;
script = "";
category = Letter;
subCategory = Other;
},
{
glyphname = VowelU.Nnagari;
lastChange = "2021-11-05 10:04:10 +0000";
layers = (
{
layerId = "5370898B-AC2E-42A7-894F-0BCCE5AE0A77";
paths = (
{
closed = 1;
nodes = (
"449 -14 OFFCURVE",
"558 75 OFFCURVE",
"558 224 CURVE SMOOTH",
"558 358 OFFCURVE",
"463 447 OFFCURVE",
"321 447 CURVE SMOOTH",
"289 447 LINE",
"289 377 LINE",
"321 377 LINE SMOOTH",
"414 377 OFFCURVE",
"476 316 OFFCURVE",
"476 224 CURVE SMOOTH",
"476 121 OFFCURVE",
"397 58 OFFCURVE",
"259 58 CURVE SMOOTH",
"187 58 OFFCURVE",
"122 73 OFFCURVE",
"62 103 CURVE",
"35 32 LINE",
"96 0 OFFCURVE",
"171 -14 OFFCURVE",
"259 -14 CURVE SMOOTH"
);
},
{
closed = 1;
nodes = (
"298 246 LINE",
"298 622 LINE",
"220 622 LINE",
"220 246 LINE"
);
},
{
closed = 1;
nodes = (
"282 558 LINE",
"282 622 LINE",
"25 622 LINE",
"25 558 LINE"
);
}
);
width = 685;
}
);
unicode = 119A4;
script = "";
category = Letter;
subCategory = Other;
},
{
glyphname = VowelUu.Nnagari;
lastChange = "2021-11-05 10:04:10 +0000";
layers = (
{
components = (
{
name = VowelU.Nnagari;
}
);
layerId = "5370898B-AC2E-42A7-894F-0BCCE5AE0A77";
paths = (
{
closed = 1;
nodes = (
"449 -193 OFFCURVE",
"558 -103 OFFCURVE",
"558 35 CURVE SMOOTH",
"558 81 OFFCURVE",
"545 121 OFFCURVE",
"522 156 CURVE",
"463 81 LINE",
"471 66 OFFCURVE",
"476 51 OFFCURVE",
"476 35 CURVE SMOOTH",
"476 -62 OFFCURVE",
"397 -121 OFFCURVE",
"259 -121 CURVE SMOOTH",
"187 -121 OFFCURVE",
"111 -103 OFFCURVE",
"62 -80 CURVE",
"35 -151 LINE",
"94 -177 OFFCURVE",
"166 -193 OFFCURVE",
"259 -193 CURVE SMOOTH"
);
}
);
width = 685;
}
);
leftMetricsKey = VowelU.Nnagari;
rightMetricsKey = VowelU.Nnagari;
unicode = 119A5;
script = "";
category = Letter;
subCategory = Other;
},
{
glyphname = VowelR.Nnagari;
lastChange = "2021-11-05 10:04:10 +0000";
layers = (
{
anchors = (
{
name = top;
position = "{321, 602}";
}
);
layerId = "5370898B-AC2E-42A7-894F-0BCCE5AE0A77";
paths = (
{
closed = 1;
nodes = (
"634 0 LINE",
"634 622 LINE",
"556 622 LINE",
"556 0 LINE"
);
},
{
closed = 1;
nodes = (
"305 0 LINE",
"305 66 LINE",
"30 66 LINE",
"30 0 LINE"
);
},
{
closed = 1;
nodes = (
"354 0 LINE",
"354 622 LINE",
"277 622 LINE",
"277 0 LINE"
);
},
{
closed = 1;
nodes = (
"586 280 LINE",
"586 346 LINE",
"50 346 LINE",
"50 280 LINE"
);
},
{
closed = 1;
nodes = (
"305 558 LINE",
"305 622 LINE",
"30 622 LINE",
"30 558 LINE"
);
}
);
width = 749;
}
);
rightMetricsKey = MatraAa.Nnagari;
unicode = 119A6;
script = "";
category = Letter;
subCategory = Other;
},
{
glyphname = VowelE.Nnagari;
lastChange = "2021-11-05 10:04:10 +0000";
layers = (
{
layerId = "5370898B-AC2E-42A7-894F-0BCCE5AE0A77";
paths = (
{
closed = 1;
nodes = (
"356 0 LINE",
"606 558 LINE",
"606 622 LINE",
"25 622 LINE",
"25 558 LINE",
"277 0 LINE"
);
},
{
closed = 1;
nodes = (
"299 125 OFFCURVE",
"280 167 OFFCURVE",
"261 210 CURVE SMOOTH",
"105 558 LINE",
"526 558 LINE",
"373 210 LINE SMOOTH",
"354 167 OFFCURVE",
"333 125 OFFCURVE",
"319 82 CURVE",
"313 82 LINE"
);
}
);
width = 661;
}
);
unicode = 119AA;
script = "";
category = Letter;
subCategory = Other;
},
{
glyphname = VowelO.Nnagari;
lastChange = "2021-11-05 10:04:10 +0000";
layers = (
{
components = (
{
name = Dda.Nnagari;
}
);
layerId = "5370898B-AC2E-42A7-894F-0BCCE5AE0A77";
paths = (
{
closed = 1;
nodes = (
"601 224 OFFCURVE",
"659 285 OFFCURVE",
"659 386 CURVE SMOOTH",
"659 573 LINE SMOOTH",
"659 658 OFFCURVE",
"703 694 OFFCURVE",
"769 694 CURVE SMOOTH",
"778 694 OFFCURVE",
"789 693 OFFCURVE",
"799 692 CURVE",
"810 762 LINE",
"796 764 OFFCURVE",
"780 765 OFFCURVE",
"764 765 CURVE SMOOTH",
"655 765 OFFCURVE",
"581 706 OFFCURVE",
"581 572 CURVE SMOOTH",
"581 386 LINE SMOOTH",
"581 317 OFFCURVE",
"543 288 OFFCURVE",
"493 288 CURVE SMOOTH",
"458 288 OFFCURVE",
"431 304 OFFCURVE",
"410 323 CURVE",
"390 275 LINE",
"419 244 OFFCURVE",
"458 224 OFFCURVE",
"508 224 CURVE SMOOTH"
);
}
);
width = 763;
}
);
unicode = 119AC;
script = "";
category = Letter;
subCategory = Other;
},
{
glyphname = Ka.Nnagari;
lastChange = "2021-11-05 10:04:10 +0000";
layers = (
{
anchors = (
{
name = bottom;
position = "{714, 0}";
},
{
name = top;
position = "{430, 602}";
}
);
layerId = "5370898B-AC2E-42A7-894F-0BCCE5AE0A77";
paths = (
{
closed = 1;
nodes = (
"344 104 OFFCURVE",
"400 156 OFFCURVE",
"436 192 CURVE",
"397 246 LINE",
"371 216 OFFCURVE",
"324 176 OFFCURVE",
"256 176 CURVE SMOOTH",
"181 176 OFFCURVE",
"143 215 OFFCURVE",
"143 279 CURVE SMOOTH",
"143 346 OFFCURVE",
"191 384 OFFCURVE",
"263 384 CURVE SMOOTH",
"329 384 OFFCURVE",
"354 365 OFFCURVE",
"390 334 CURVE",
"412 394 LINE",
"392 420 OFFCURVE",
"343 456 OFFCURVE",
"253 456 CURVE SMOOTH",
"138 456 OFFCURVE",
"61 389 OFFCURVE",
"61 279 CURVE SMOOTH",
"61 167 OFFCURVE",
"133 104 OFFCURVE",
"246 104 CURVE SMOOTH"
);
},
{
closed = 1;
nodes = (
"463 0 LINE",
"463 622 LINE",
"385 622 LINE",
"385 0 LINE"
);
},
{
closed = 1;
nodes = (
"753 0 LINE",
"753 251 LINE SMOOTH",
"753 340 OFFCURVE",
"703 378 OFFCURVE",
"632 378 CURVE SMOOTH",
"589 378 OFFCURVE",
"550 363 OFFCURVE",
"502 334 CURVE SMOOTH",
"414 281 LINE",
"451 217 LINE",
"540 272 LINE SMOOTH",
"573 292 OFFCURVE",
"599 305 OFFCURVE",
"626 305 CURVE SMOOTH",
"651 305 OFFCURVE",
"675 292 OFFCURVE",
"675 251 CURVE SMOOTH",
"675 0 LINE"
);
},
{
closed = 1;
nodes = (
"421 558 LINE",
"421 622 LINE",
"40 622 LINE",
"40 558 LINE"
);
}
);
width = 848;
}
);
unicode = 119AE;
script = "";
category = Letter;
subCategory = Other;
},
{
glyphname = Kha.Nnagari;
lastChange = "2021-11-05 10:04:10 +0000";
layers = (
{
anchors = (
{
name = bottom;
position = "{642, 0}";
},
{
name = top;
position = "{648, 602}";
}
);
layerId = "5370898B-AC2E-42A7-894F-0BCCE5AE0A77";
paths = (
{
closed = 1;
nodes = (
"652 310 LINE",
"545 388 OFFCURVE",
"467 477 OFFCURVE",
"437 590 CURVE",
"358 570 LINE",
"403 439 OFFCURVE",
"491 334 OFFCURVE",
"618 244 CURVE"
);
},
{
closed = 1;
nodes = (
"353 0 LINE",
"215 196 LINE SMOOTH",
"175 253 OFFCURVE",
"134 298 OFFCURVE",
"92 320 CURVE",
"47 320 LINE",
"47 275 LINE",
"71 258 OFFCURVE",
"106 218 OFFCURVE",
"145 163 CURVE SMOOTH",
"262 0 LINE"
);
},
{
closed = 1;
nodes = (
"206 301 OFFCURVE",
"304 396 OFFCURVE",
"304 552 CURVE SMOOTH",
"304 578 LINE",
"224 578 LINE",
"224 552 LINE SMOOTH",
"224 433 OFFCURVE",
"152 358 OFFCURVE",
"56 347 CURVE SMOOTH",
"47 346 LINE",
"47 286 LINE",
"71 284 LINE"
);
},
{
closed = 1;
nodes = (
"632 558 LINE",
"632 622 LINE",
"25 622 LINE",
"25 558 LINE"
);
},
{
closed = 1;
nodes = (
"681 0 LINE",
"681 622 LINE",
"603 622 LINE",
"603 0 LINE"
);
}
);
width = 796;
}
);
rightMetricsKey = MatraAa.Nnagari;
unicode = 119AF;
script = "";
category = Letter;
subCategory = Other;
},
{
glyphname = Ga.Nnagari;
lastChange = "2021-11-05 10:04:10 +0000";
layers = (
{
anchors = (
{
name = bottom;
position = "{564, 0}";
},
{
name = top;
position = "{570, 602}";
}
);
layerId = "5370898B-AC2E-42A7-894F-0BCCE5AE0A77";
paths = (
{
closed = 1;
nodes = (
"305 64 OFFCURVE",
"358 117 OFFCURVE",
"358 234 CURVE",
"358 357 OFFCURVE",
"339 482 OFFCURVE",
"319 592 CURVE",
"240 584 LINE",
"261 474 OFFCURVE",
"280 357 OFFCURVE",
"280 234 CURVE",
"280 165 OFFCURVE",
"258 134 OFFCURVE",
"212 134 CURVE",
"174 134 OFFCURVE",
"145 160 OFFCURVE",
"145 202 CURVE",
"145 251 OFFCURVE",
"186 293 OFFCURVE",
"324 293 CURVE",
"318 364 LINE",
"137 364 OFFCURVE",
"67 289 OFFCURVE",
"67 202 CURVE",
"67 116 OFFCURVE",
"131 64 OFFCURVE",
"213 64 CURVE"
);
},
{
closed = 1;
nodes = (
"603 0 LINE",
"603 582 LINE",
"525 582 LINE",
"525 0 LINE"
);
},
{
closed = 1;
nodes = (
"603 558 LINE",
"603 622 LINE",
"60 622 LINE",
"60 558 LINE"
);
}
);
width = 718;
}
);
rightMetricsKey = MatraAa.Nnagari;
unicode = 119B0;
script = "";
category = Other;
subCategory = Other;
},
{
glyphname = Gha.Nnagari;
lastChange = "2021-11-05 10:04:10 +0000";
layers = (
{
anchors = (
{
name = bottom;
position = "{673, 0}";
},
{
name = top;
position = "{679, 602}";
}
);
layerId = "5370898B-AC2E-42A7-894F-0BCCE5AE0A77";
paths = (
{
closed = 1;
nodes = (
"373 220 OFFCURVE",
"413 345 OFFCURVE",
"413 418 CURVE",
"358 418 LINE",
"358 345 OFFCURVE",
"400 225 OFFCURVE",
"528 225 CURVE SMOOTH",
"611 225 OFFCURVE",
"655 267 OFFCURVE",
"675 326 CURVE",
"639 382 LINE",
"628 332 OFFCURVE",
"598 297 OFFCURVE",
"533 297 CURVE SMOOTH",
"448 297 OFFCURVE",
"424 371 OFFCURVE",
"424 427 CURVE SMOOTH",
"424 496 LINE",
"348 496 LINE",
"348 427 LINE SMOOTH",
"348 355 OFFCURVE",
"317 292 OFFCURVE",
"243 292 CURVE SMOOTH",
"167 292 OFFCURVE",
"138 348 OFFCURVE",
"138 440 CURVE SMOOTH",
"138 586 LINE",
"60 586 LINE",
"60 440 LINE SMOOTH",
"60 318 OFFCURVE",
"103 220 OFFCURVE",
"243 220 CURVE SMOOTH"
);
},
{
closed = 1;
nodes = (
"673 558 LINE",
"673 622 LINE",
"60 622 LINE",
"60 558 LINE"
);
},
{
closed = 1;
nodes = (
"712 0 LINE",
"712 622 LINE",
"634 622 LINE",
"634 0 LINE"
);
}
);
width = 827;
}
);
leftMetricsKey = Pa.Nnagari;
rightMetricsKey = MatraAa.Nnagari;
unicode = 119B1;
script = "";
category = Other;
subCategory = Other;
},
{
glyphname = Nga.Nnagari;
lastChange = "2021-11-05 10:04:10 +0000";
layers = (
{
anchors = (
{
name = bottom;
position = "{571, 148}";
},
{
name = top;
position = "{452, 602}";
}
);
layerId = "5370898B-AC2E-42A7-894F-0BCCE5AE0A77";
paths = (
{
closed = 1;
nodes = (
"129 184 LINE",
"485 563 LINE",
"485 578 LINE",
"396 578 LINE",
"40 199 LINE",
"40 184 LINE"
);
},
{
closed = 1;
nodes = (
"688 148 LINE",
"688 216 LINE",
"126 216 LINE",
"109 199 LINE",
"40 199 LINE",
"40 148 LINE"
);
},
{
closed = 1;
nodes = (
"430 558 LINE",
"445 572 LINE",
"485 572 LINE",
"485 622 LINE",
"40 622 LINE",
"40 558 LINE"
);
},
{
closed = 1;
nodes = (
"641 289 OFFCURVE",
"687 332 OFFCURVE",
"687 398 CURVE SMOOTH",
"687 464 OFFCURVE",
"641 507 OFFCURVE",
"571 507 CURVE SMOOTH",
"500 507 OFFCURVE",
"455 464 OFFCURVE",
"455 398 CURVE SMOOTH",
"455 332 OFFCURVE",
"500 289 OFFCURVE",
"571 289 CURVE SMOOTH"
);
},
{
closed = 1;
nodes = (
"539 347 OFFCURVE",
"521 367 OFFCURVE",
"521 398 CURVE SMOOTH",
"521 429 OFFCURVE",
"539 449 OFFCURVE",
"571 449 CURVE SMOOTH",
"604 449 OFFCURVE",
"621 429 OFFCURVE",
"621 398 CURVE SMOOTH",
"621 367 OFFCURVE",
"604 347 OFFCURVE",
"571 347 CURVE SMOOTH"
);
}
);
width = 778;
}
);
unicode = 119B2;
script = "";
category = Letter;
subCategory = Other;
},
{
glyphname = Ca.Nnagari;
lastChange = "2021-11-05 10:04:10 +0000";
layers = (
{
anchors = (
{
name = bottom;
position = "{488, 0}";
},
{
name = top;
position = "{494, 602}";
}
);
layerId = "5370898B-AC2E-42A7-894F-0BCCE5AE0A77";
paths = (
{
closed = 1;
nodes = (
"527 0 LINE",
"527 622 LINE",
"449 622 LINE",
"449 85 LINE",
"493 71 LINE",
"403 200 OFFCURVE",
"248 276 OFFCURVE",
"108 298 CURVE",
"108 286 LINE",
"228 339 OFFCURVE",
"356 390 OFFCURVE",
"486 441 CURVE",
"486 521 LINE",
"336 462 OFFCURVE",
"190 406 OFFCURVE",
"52 349 CURVE",
"70 235 LINE",
"215 210 OFFCURVE",
"395 116 OFFCURVE",
"458 0 CURVE"
);
},
{
closed = 1;
nodes = (
"485 558 LINE",
"485 622 LINE",
"40 622 LINE",
"40 558 LINE"
);
}
);
width = 642;
}
);
rightMetricsKey = MatraAa.Nnagari;
unicode = 119B3;
script = "";
category = Letter;
subCategory = Other;
},
{
glyphname = Cha.Nnagari;
lastChange = "2021-11-05 10:04:10 +0000";
layers = (
{
anchors = (
{
name = bottom;
position = "{384, 0}";
},
{
name = top;
position = "{390, 602}";
}
);
layerId = "5370898B-AC2E-42A7-894F-0BCCE5AE0A77";
paths = (
{
closed = 1;
nodes = (
"434 68 LINE SMOOTH",
"613 68 OFFCURVE",
"713 141 OFFCURVE",
"713 272 CURVE SMOOTH",
"713 404 OFFCURVE",
"613 478 OFFCURVE",
"434 478 CURVE SMOOTH",
"405 478 LINE",
"405 408 LINE",
"434 408 LINE SMOOTH",
"561 408 OFFCURVE",
"631 360 OFFCURVE",
"631 272 CURVE SMOOTH",
"631 186 OFFCURVE",
"561 138 OFFCURVE",
"434 138 CURVE SMOOTH",
"401 138 LINE",
"401 68 LINE"
);
},
{
closed = 1;
nodes = (
"367 68 LINE",
"367 138 LINE",
"334 138 LINE SMOOTH",
"207 138 OFFCURVE",
"137 186 OFFCURVE",
"137 272 CURVE SMOOTH",
"137 360 OFFCURVE",
"207 408 OFFCURVE",
"334 408 CURVE SMOOTH",
"363 408 LINE",
"363 478 LINE",
"334 478 LINE SMOOTH",
"155 478 OFFCURVE",
"55 404 OFFCURVE",
"55 272 CURVE SMOOTH",
"55 141 OFFCURVE",
"155 68 OFFCURVE",
"334 68 CURVE SMOOTH"
);
},
{
closed = 1;
nodes = (
"423 0 LINE",
"423 622 LINE",
"345 622 LINE",
"345 0 LINE"
);
},
{
closed = 1;
nodes = (
"412 558 LINE",
"412 622 LINE",
"35 622 LINE",
"35 558 LINE"
);
}
);
width = 783;
}
);
rightKerningGroup = ChaRight;
unicode = 119B4;
script = "";
category = Letter;
subCategory = Other;
},
{
glyphname = Ja.Nnagari;
lastChange = "2021-11-05 10:04:10 +0000";
layers = (
{
anchors = (
{
name = bottom;
position = "{667, 0}";
},
{
name = top;
position = "{340, 602}";
}
);
layerId = "5370898B-AC2E-42A7-894F-0BCCE5AE0A77";
paths = (
{
closed = 1;
nodes = (
"445 -7 OFFCURVE",
"495 40 OFFCURVE",
"495 118 CURVE SMOOTH",
"495 193 OFFCURVE",
"447 245 OFFCURVE",
"401 274 CURVE",
"383 289 LINE",
"335 319 OFFCURVE",
"244 344 OFFCURVE",
"169 348 CURVE",
"70 353 LINE",
"70 297 LINE",
"189 291 OFFCURVE",
"273 271 OFFCURVE",
"331 238 CURVE",
"344 229 LINE",
"381 203 OFFCURVE",
"413 166 OFFCURVE",
"413 118 CURVE SMOOTH",
"413 85 OFFCURVE",
"393 65 OFFCURVE",
"364 65 CURVE SMOOTH",
"335 65 OFFCURVE",
"312 85 OFFCURVE",
"312 118 CURVE SMOOTH",
"312 166 OFFCURVE",
"341 202 OFFCURVE",
"387 234 CURVE",
"324 274 LINE",
"275 238 OFFCURVE",
"230 186 OFFCURVE",
"230 118 CURVE SMOOTH",
"230 40 OFFCURVE",
"284 -7 OFFCURVE",
"365 -7 CURVE SMOOTH"
);
},
{
closed = 1;
nodes = (
"124 323 LINE",
"247 360 OFFCURVE",
"354 487 OFFCURVE",
"373 575 CURVE",
"294 581 LINE",
"282 499 OFFCURVE",
"159 402 OFFCURVE",
"70 366 CURVE",
"70 313 LINE"
);
},
{
closed = 1;
nodes = (
"706 0 LINE",
"706 197 LINE SMOOTH",
"706 320 OFFCURVE",
"634 366 OFFCURVE",
"539 366 CURVE SMOOTH",
"461 366 OFFCURVE",
"397 329 OFFCURVE",
"337 284 CURVE",
"396 238 LINE",
"430 263 OFFCURVE",
"482 294 OFFCURVE",
"533 294 CURVE SMOOTH",
"593 294 OFFCURVE",
"628 262 OFFCURVE",
"628 174 CURVE SMOOTH",
"628 0 LINE"
);
},
{
closed = 1;
nodes = (
"317 558 LINE",
"342 575 LINE",
"373 575 LINE",
"373 622 LINE",
"25 622 LINE",
"25 558 LINE"
);
}
);
width = 811;
}
);
rightKerningGroup = JaRight;
unicode = 119B5;
script = "";
category = Letter;
subCategory = Other;
},
{
glyphname = Jha.Nnagari;
lastChange = "2021-11-05 10:04:10 +0000";
layers = (
{
anchors = (
{
name = bottom;
position = "{637, 0}";
},
{
name = top;
position = "{357, 602}";
}
);
layerId = "5370898B-AC2E-42A7-894F-0BCCE5AE0A77";
paths = (
{
closed = 1;
nodes = (
"676 0 LINE",
"676 353 LINE",
"60 353 LINE",
"60 283 LINE",
"598 283 LINE",
"598 0 LINE"
);
},
{
closed = 1;
nodes = (
"390 0 LINE",
"390 622 LINE",
"312 622 LINE",
"312 0 LINE"
);
},
{
closed = 1;
nodes = (
"342 558 LINE",
"342 622 LINE",
"40 622 LINE",
"40 558 LINE"
);
}
);
width = 781;
}
);
unicode = 119B6;
script = "";
category = Letter;
subCategory = Other;
},
{
glyphname = Nya.Nnagari;
lastChange = "2021-11-05 10:04:10 +0000";
layers = (
{
anchors = (
{
name = bottom;
position = "{671, 0}";
},
{
name = top;
position = "{575, 576}";
}
);
layerId = "5370898B-AC2E-42A7-894F-0BCCE5AE0A77";
paths = (
{
closed = 1;
nodes = (
"369 -5 OFFCURVE",
"426 63 OFFCURVE",
"426 140 CURVE SMOOTH",
"426 201 OFFCURVE",
"395 240 OFFCURVE",
"365 258 CURVE",
"316 223 LINE",
"335 209 OFFCURVE",
"348 182 OFFCURVE",
"348 151 CURVE SMOOTH",
"348 97 OFFCURVE",
"314 67 OFFCURVE",
"263 67 CURVE SMOOTH",
"190 67 OFFCURVE",
"138 122 OFFCURVE",
"138 237 CURVE SMOOTH",
"138 425 OFFCURVE",
"269 550 OFFCURVE",
"466 550 CURVE SMOOTH",
"588 550 OFFCURVE",
"670 489 OFFCURVE",
"706 448 CURVE",
"760 494 LINE",
"719 546 OFFCURVE",
"633 622 OFFCURVE",
"466 622 CURVE SMOOTH",
"222 622 OFFCURVE",
"60 468 OFFCURVE",
"60 237 CURVE SMOOTH",
"60 78 OFFCURVE",
"143 -5 OFFCURVE",
"261 -5 CURVE SMOOTH"
);
},
{
closed = 1;
nodes = (
"680 223 LINE",
"680 291 LINE",
"248 291 LINE",
"248 223 LINE"
);
},
{
closed = 1;
nodes = (
"783 -5 OFFCURVE",
"862 75 OFFCURVE",
"862 227 CURVE SMOOTH",
"862 313 OFFCURVE",
"837 375 OFFCURVE",
"814 415 CURVE",
"746 383 LINE",
"768 348 OFFCURVE",
"784 298 OFFCURVE",
"784 227 CURVE SMOOTH",
"784 119 OFFCURVE",
"736 67 OFFCURVE",
"669 67 CURVE SMOOTH",
"618 67 OFFCURVE",
"584 97 OFFCURVE",
"584 151 CURVE SMOOTH",
"584 182 OFFCURVE",
"597 209 OFFCURVE",
"616 223 CURVE",
"567 258 LINE",
"537 240 OFFCURVE",
"506 201 OFFCURVE",
"506 140 CURVE SMOOTH",
"506 63 OFFCURVE",
"563 -5 OFFCURVE",
"671 -5 CURVE SMOOTH"
);
}
);
width = 962;
}
);
unicode = 119B7;
script = "";
category = Letter;
subCategory = Other;
},
{
glyphname = Tta.Nnagari;
lastChange = "2021-11-05 10:04:10 +0000";
layers = (
{
anchors = (
{
name = bottom;
position = "{376, 20}";
},
{
name = top;
position = "{396, 602}";
}
);
layerId = "5370898B-AC2E-42A7-894F-0BCCE5AE0A77";
paths = (
{
closed = 1;
nodes = (
"459 0 OFFCURVE",
"556 41 OFFCURVE",
"620 110 CURVE",
"571 164 LINE",
"506 101 OFFCURVE",
"435 72 OFFCURVE",
"346 72 CURVE SMOOTH",
"216 72 OFFCURVE",
"144 132 OFFCURVE",
"144 240 CURVE SMOOTH",
"144 337 OFFCURVE",
"206 397 OFFCURVE",
"323 397 CURVE SMOOTH",
"368 397 LINE",
"368 463 LINE",
"323 463 LINE SMOOTH",
"164 463 OFFCURVE",
"62 377 OFFCURVE",
"62 240 CURVE SMOOTH",
"62 90 OFFCURVE",
"166 0 OFFCURVE",
"346 0 CURVE SMOOTH"
);
},
{
closed = 1;
nodes = (
"387 558 LINE",
"387 622 LINE",
"72 622 LINE",
"72 558 LINE"
);
},
{
closed = 1;
nodes = (
"429 246 LINE",
"429 622 LINE",
"351 622 LINE",
"351 246 LINE"
);
}
);
width = 696;
}
);
unicode = 119B8;
script = "";
category = Letter;
subCategory = Other;
},
{
glyphname = Ttha.Nnagari;
lastChange = "2021-11-05 10:04:10 +0000";
layers = (
{
anchors = (
{
name = bottom;
position = "{353, -4}";
},
{
name = top;
position = "{359, 602}";
}
);
layerId = "5370898B-AC2E-42A7-894F-0BCCE5AE0A77";
paths = (
{
closed = 1;
nodes = (
"540 -4 OFFCURVE",
"650 85 OFFCURVE",
"650 231 CURVE SMOOTH",
"650 387 OFFCURVE",
"523 463 OFFCURVE",
"380 463 CURVE SMOOTH",
"365 463 LINE",
"365 393 LINE",
"380 393 LINE SMOOTH",
"491 393 OFFCURVE",
"568 333 OFFCURVE",
"568 231 CURVE SMOOTH",
"568 126 OFFCURVE",
"491 68 OFFCURVE",
"353 68 CURVE SMOOTH",
"214 68 OFFCURVE",
"137 126 OFFCURVE",
"137 231 CURVE SMOOTH",
"137 333 OFFCURVE",
"215 393 OFFCURVE",
"326 393 CURVE SMOOTH",
"341 393 LINE",
"341 463 LINE",
"326 463 LINE SMOOTH",
"183 463 OFFCURVE",
"55 387 OFFCURVE",
"55 231 CURVE SMOOTH",
"55 84 OFFCURVE",
"163 -4 OFFCURVE",
"353 -4 CURVE SMOOTH"
);
},
{
closed = 1;
nodes = (
"392 226 LINE",
"392 622 LINE",
"314 622 LINE",
"314 226 LINE"
);
},
{
closed = 1;
nodes = (
"350 558 LINE",
"350 622 LINE",
"40 622 LINE",
"40 558 LINE"
);
}
);
width = 740;
}
);
unicode = 119B9;
script = "";
category = Letter;
subCategory = Other;
},
{
glyphname = Dda.Nnagari;
lastChange = "2021-11-05 10:04:10 +0000";
layers = (
{
anchors = (
{
name = bottom;
position = "{384, 42}";
},
{
name = top;
position = "{425, 602}";
}
);
layerId = "5370898B-AC2E-42A7-894F-0BCCE5AE0A77";
paths = (
{
closed = 1;
nodes = (
"384 -7 OFFCURVE",
"468 75 OFFCURVE",
"468 189 CURVE SMOOTH",
"468 340 OFFCURVE",
"343 387 OFFCURVE",
"229 387 CURVE SMOOTH",
"105 387 LINE",
"105 329 LINE",
"191 329 LINE SMOOTH",
"305 329 OFFCURVE",
"391 283 OFFCURVE",
"391 194 CURVE SMOOTH",
"391 105 OFFCURVE",
"333 65 OFFCURVE",
"235 65 CURVE SMOOTH",
"173 65 OFFCURVE",
"142 86 OFFCURVE",
"142 114 CURVE SMOOTH",
"142 144 OFFCURVE",
"167 164 OFFCURVE",
"213 164 CURVE SMOOTH",
"273 164 OFFCURVE",
"326 130 OFFCURVE",
"364 75 CURVE",
"401 122 LINE",
"376 185 OFFCURVE",
"301 236 OFFCURVE",
"212 236 CURVE SMOOTH",
"121 236 OFFCURVE",
"60 191 OFFCURVE",
"60 113 CURVE SMOOTH",
"60 47 OFFCURVE",
"113 -7 OFFCURVE",
"236 -7 CURVE SMOOTH"
);
},
{
closed = 1;
nodes = (
"158 355 LINE",
"328 383 OFFCURVE",
"425 479 OFFCURVE",
"458 559 CURVE",
"392 597 LINE",
"353 507 OFFCURVE",
"248 422 OFFCURVE",
"105 398 CURVE",
"105 345 LINE"
);
},
{
closed = 1;
nodes = (
"458 559 LINE",
"458 622 LINE",
"60 622 LINE",
"60 558 LINE"
);
}
);
width = 552;
}
);
rightKerningGroup = DdaRight;
unicode = 119BA;
script = "";
category = Letter;
subCategory = Other;
},
{
glyphname = Ddha.Nnagari;
lastChange = "2021-11-05 10:04:10 +0000";
layers = (
{
anchors = (
{
name = bottom;
position = "{375, 0}";
},
{
name = top;
position = "{344, 602}";
}
);
layerId = "5370898B-AC2E-42A7-894F-0BCCE5AE0A77";
paths = (
{
closed = 1;
nodes = (
"609 -4 OFFCURVE",
"746 145 OFFCURVE",
"746 305 CURVE SMOOTH",
"746 401 OFFCURVE",
"690 448 OFFCURVE",
"616 448 CURVE SMOOTH",
"543 448 OFFCURVE",
"492 401 OFFCURVE",
"492 325 CURVE SMOOTH",
"492 225 OFFCURVE",
"577 180 OFFCURVE",
"665 180 CURVE",
"703 241 LINE",
"615 241 OFFCURVE",
"570 267 OFFCURVE",
"570 326 CURVE SMOOTH",
"570 357 OFFCURVE",
"588 377 OFFCURVE",
"618 377 CURVE SMOOTH",
"648 377 OFFCURVE",
"670 350 OFFCURVE",
"670 308 CURVE SMOOTH",
"670 181 OFFCURVE",
"563 68 OFFCURVE",
"365 68 CURVE SMOOTH",
"217 68 OFFCURVE",
"137 127 OFFCURVE",
"137 238 CURVE SMOOTH",
"137 335 OFFCURVE",
"208 393 OFFCURVE",
"301 393 CURVE SMOOTH",
"326 393 LINE",
"326 463 LINE",
"301 463 LINE SMOOTH",
"162 463 OFFCURVE",
"55 375 OFFCURVE",
"55 238 CURVE SMOOTH",
"55 90 OFFCURVE",
"161 -4 OFFCURVE",
"365 -4 CURVE SMOOTH"
);
},
{
closed = 1;
nodes = (
"377 236 LINE",
"377 622 LINE",
"299 622 LINE",
"299 236 LINE"
);
},
{
closed = 1;
nodes = (
"335 558 LINE",
"335 622 LINE",
"40 622 LINE",
"40 558 LINE"
);
}
);
width = 798;
}
);
unicode = 119BB;
script = "";
category = Letter;
subCategory = Other;
},
{
glyphname = Nna.Nnagari;
lastChange = "2021-11-05 10:04:10 +0000";
layers = (
{
anchors = (
{
name = bottom;
position = "{748, 0}";
},
{
name = top;
position = "{754, 602}";
}
);
layerId = "5370898B-AC2E-42A7-894F-0BCCE5AE0A77";
paths = (
{
closed = 1;
nodes = (
"787 0 LINE",
"787 622 LINE",
"709 622 LINE",
"709 0 LINE"
);
},
{
closed = 1;
nodes = (
"193 0 LINE",
"193 622 LINE",
"115 622 LINE",
"115 0 LINE"
);
},
{
closed = 1;
nodes = (
"489 0 LINE",
"489 622 LINE",
"411 622 LINE",
"411 0 LINE"
);
},
{
closed = 1;
nodes = (
"738 558 LINE",
"738 622 LINE",
"137 622 LINE",
"137 558 LINE"
);
}
);
width = 902;
}
);
rightMetricsKey = MatraAa.Nnagari;
unicode = 119BC;
script = "";
category = Letter;
subCategory = Other;
},
{
glyphname = Ta.Nnagari;
lastChange = "2021-11-05 10:04:10 +0000";
layers = (
{
anchors = (
{
name = bottom;
position = "{504, 0}";
},
{
name = top;
position = "{510, 602}";
}
);
layerId = "5370898B-AC2E-42A7-894F-0BCCE5AE0A77";
paths = (
{
closed = 1;
nodes = (
"129 0 LINE",
"129 23 LINE SMOOTH",
"129 216 OFFCURVE",
"247 320 OFFCURVE",
"438 320 CURVE SMOOTH",
"516 320 LINE",
"516 394 LINE",
"438 394 LINE SMOOTH",
"206 394 OFFCURVE",
"50 267 OFFCURVE",
"50 30 CURVE SMOOTH",
"50 0 LINE"
);
},
{
closed = 1;
nodes = (
"543 0 LINE",
"543 622 LINE",
"465 622 LINE",
"465 0 LINE"
);
},
{
closed = 1;
nodes = (
"501 558 LINE",
"501 622 LINE",
"40 622 LINE",
"40 558 LINE"
);
}
);
width = 658;
}
);
rightMetricsKey = MatraAa.Nnagari;
unicode = 119BD;
script = "";
category = Letter;
subCategory = Other;
},
{
glyphname = Tha.Nnagari;
lastChange = "2021-11-05 10:04:10 +0000";
layers = (
{
anchors = (
{
name = bottom;
position = "{524, 0}";
},
{
name = top;
position = "{530, 602}";
}
);
layerId = "5370898B-AC2E-42A7-894F-0BCCE5AE0A77";
paths = (
{
closed = 1;
nodes = (
"405 81 OFFCURVE",
"486 111 OFFCURVE",
"526 151 CURVE",
"506 220 LINE",
"475 180 OFFCURVE",
"396 153 OFFCURVE",
"309 153 CURVE SMOOTH",
"208 153 OFFCURVE",
"152 186 OFFCURVE",
"152 245 CURVE SMOOTH",
"152 298 OFFCURVE",
"194 328 OFFCURVE",
"269 328 CURVE SMOOTH",
"378 328 LINE",
"378 398 LINE",
"249 398 LINE SMOOTH",
"180 398 OFFCURVE",
"142 428 OFFCURVE",
"142 481 CURVE SMOOTH",
"142 531 OFFCURVE",
"176 558 OFFCURVE",
"236 558 CURVE SMOOTH",
"521 558 LINE",
"521 622 LINE",
"226 622 LINE SMOOTH",
"119 622 OFFCURVE",
"60 573 OFFCURVE",
"60 486 CURVE SMOOTH",
"60 396 OFFCURVE",
"123 346 OFFCURVE",
"245 346 CURVE",
"269 382 LINE",
"141 382 OFFCURVE",
"70 333 OFFCURVE",
"70 245 CURVE SMOOTH",
"70 140 OFFCURVE",
"155 81 OFFCURVE",
"309 81 CURVE SMOOTH"
);
},
{
closed = 1;
nodes = (
"563 0 LINE",
"563 622 LINE",
"485 622 LINE",
"485 0 LINE"
);
}
);
width = 678;
}
);
rightMetricsKey = MatraAa.Nnagari;
unicode = 119BE;
script = "";
category = Letter;
subCategory = Other;
},
{
glyphname = Da.Nnagari;
lastChange = "2021-11-05 10:04:10 +0000";
layers = (
{
anchors = (
{
name = bottom;
position = "{348, 0}";
},
{
name = top;
position = "{324, 602}";
}
);
layerId = "5370898B-AC2E-42A7-894F-0BCCE5AE0A77";
paths = (
{
closed = 1;
nodes = (
"387 0 LINE",
"387 220 LINE SMOOTH",
"387 334 OFFCURVE",
"337 379 OFFCURVE",
"220 379 CURVE SMOOTH",
"44 379 LINE",
"44 311 LINE",
"219 311 LINE SMOOTH",
"285 311 OFFCURVE",
"309 286 OFFCURVE",
"309 220 CURVE SMOOTH",
"309 0 LINE"
);
},
{
closed = 1;
nodes = (
"105 347 LINE",
"205 386 OFFCURVE",
"310 472 OFFCURVE",
"357 558 CURVE",
"357 591 LINE",
"290 591 LINE",
"254 517 OFFCURVE",
"134 430 OFFCURVE",
"44 388 CURVE",
"44 347 LINE"
);
},
{
closed = 1;
nodes = (
"357 558 LINE",
"357 622 LINE",
"25 622 LINE",
"25 558 LINE"
);
}
);
width = 492;
}
);
rightKerningGroup = DaRight;
unicode = 119BF;
script = "";
category = Letter;
subCategory = Other;
},
{
glyphname = Dha.Nnagari;
lastChange = "2021-11-05 10:04:10 +0000";
layers = (
{
anchors = (
{
name = bottom;
position = "{713, 0}";
},
{
name = top;
position = "{595, 602}";
}
);
layerId = "5370898B-AC2E-42A7-894F-0BCCE5AE0A77";
paths = (
{
closed = 1;
nodes = (
"257 295 OFFCURVE",
"305 337 OFFCURVE",
"305 401 CURVE SMOOTH",
"305 480 OFFCURVE",
"245 527 OFFCURVE",
"168 527 CURVE SMOOTH",
"163 527 OFFCURVE",
"159 527 OFFCURVE",
"154 526 CURVE",
"133 467 LINE",
"139 468 OFFCURVE",
"145 469 OFFCURVE",
"150 469 CURVE SMOOTH",
"194 470 OFFCURVE",
"229 445 OFFCURVE",
"229 403 CURVE SMOOTH",
"229 380 OFFCURVE",
"213 365 OFFCURVE",
"190 365 CURVE SMOOTH",
"164 365 OFFCURVE",
"136 384 OFFCURVE",
"136 443 CURVE SMOOTH",
"136 464 OFFCURVE",
"140 483 OFFCURVE",
"148 496 CURVE SMOOTH",
"151 501 OFFCURVE",
"158 512 OFFCURVE",
"162 517 CURVE SMOOTH",
"178 538 OFFCURVE",
"212 555 OFFCURVE",
"256 555 CURVE SMOOTH",
"345 555 OFFCURVE",
"391 491 OFFCURVE",
"395 405 CURVE SMOOTH",
"397 365 LINE",
"475 365 LINE",
"477 415 LINE SMOOTH",
"481 505 OFFCURVE",
"511 555 OFFCURVE",
"575 555 CURVE SMOOTH",
"639 555 OFFCURVE",
"674 507 OFFCURVE",
"674 421 CURVE SMOOTH",
"674 337 LINE",
"752 337 LINE",
"752 423 LINE SMOOTH",
"752 555 OFFCURVE",
"691 627 OFFCURVE",
"580 627 CURVE SMOOTH",
"478 627 OFFCURVE",
"421 559 OFFCURVE",
"421 437 CURVE",
"451 443 LINE",
"451 555 OFFCURVE",
"372 627 OFFCURVE",
"259 627 CURVE SMOOTH",
"147 627 OFFCURVE",
"60 558 OFFCURVE",
"60 441 CURVE SMOOTH",
"60 342 OFFCURVE",
"118 295 OFFCURVE",
"190 295 CURVE SMOOTH"
);
},
{
closed = 1;
nodes = (
"752 0 LINE",
"752 362 LINE",
"674 362 LINE",
"674 0 LINE"
);
}
);
width = 867;
}
);
rightMetricsKey = MatraAa.Nnagari;
unicode = 119C0;
script = "";
category = Letter;
subCategory = Other;
},
{
glyphname = Na.Nnagari;
lastChange = "2021-11-05 10:04:10 +0000";
layers = (
{
anchors = (
{
name = bottom;
position = "{506, 0}";
},
{
name = top;
position = "{512, 602}";
}
);
layerId = "5370898B-AC2E-42A7-894F-0BCCE5AE0A77";
paths = (
{
closed = 1;
nodes = (
"279 41 OFFCURVE",
"331 89 OFFCURVE",
"331 169 CURVE",
"331 234 OFFCURVE",
"294 289 OFFCURVE",
"230 319 CURVE",
"171 292 LINE",
"218 268 OFFCURVE",
"253 224 OFFCURVE",
"253 173 CURVE",
"253 128 OFFCURVE",
"227 111 OFFCURVE",
"193 111 CURVE",
"155 111 OFFCURVE",
"130 138 OFFCURVE",
"130 178 CURVE",
"130 260 OFFCURVE",
"196 297 OFFCURVE",
"387 300 CURVE",
"518 300 LINE",
"518 372 LINE",
"371 372 LINE",
"154 372 OFFCURVE",
"52 302 OFFCURVE",
"52 178 CURVE",
"52 94 OFFCURVE",
"112 41 OFFCURVE",
"193 41 CURVE"
);
},
{
closed = 1;
nodes = (
"545 0 LINE",
"545 622 LINE",
"467 622 LINE",
"467 0 LINE"
);
},
{
closed = 1;
nodes = (
"503 558 LINE",
"503 622 LINE",
"40 622 LINE",
"40 558 LINE"
);
}
);
width = 660;
}
);
rightMetricsKey = MatraAa.Nnagari;
unicode = 119C1;
script = "";
category = Other;
subCategory = Other;
},
{
glyphname = Pa.Nnagari;
lastChange = "2021-11-05 10:04:10 +0000";
layers = (
{
anchors = (
{
name = bottom;
position = "{507, 0}";
},
{
name = top;
position = "{513, 602}";
}
);
layerId = "5370898B-AC2E-42A7-894F-0BCCE5AE0A77";
paths = (
{
closed = 1;
nodes = (
"447 211 OFFCURVE",
"501 293 OFFCURVE",
"529 354 CURVE",
"478 389 LINE",
"455 326 OFFCURVE",
"390 283 OFFCURVE",
"306 283 CURVE SMOOTH",
"196 283 OFFCURVE",
"138 345 OFFCURVE",
"138 495 CURVE",
"138 595 LINE",
"60 595 LINE",
"60 495 LINE SMOOTH",
"60 315 OFFCURVE",
"135 211 OFFCURVE",
"306 211 CURVE SMOOTH"
);
},
{
closed = 1;
nodes = (
"546 0 LINE",
"546 622 LINE",
"468 622 LINE",
"468 0 LINE"
);
},
{
closed = 1;
nodes = (
"504 558 LINE",
"504 622 LINE",
"60 622 LINE",
"60 558 LINE"
);
}
);
width = 661;
}
);
rightMetricsKey = MatraAa.Nnagari;
unicode = 119C2;
script = "";
category = Letter;
subCategory = Other;
},
{
glyphname = Ba.Nnagari;
lastChange = "2021-11-05 10:04:10 +0000";
layers = (
{
anchors = (
{
name = bottom;
position = "{499, 0}";
},
{
name = top;
position = "{505, 602}";
}
);
layerId = "5370898B-AC2E-42A7-894F-0BCCE5AE0A77";
paths = (
{
closed = 1;
nodes = (
"384 78 OFFCURVE",
"462 114 OFFCURVE",
"503 179 CURVE",
"473 236 LINE",
"444 196 OFFCURVE",
"389 148 OFFCURVE",
"292 148 CURVE SMOOTH",
"191 148 OFFCURVE",
"135 192 OFFCURVE",
"135 271 CURVE SMOOTH",
"135 343 OFFCURVE",
"181 393 OFFCURVE",
"292 393 CURVE SMOOTH",
"387 393 OFFCURVE",
"447 347 OFFCURVE",
"477 312 CURVE",
"489 385 LINE",
"453 432 OFFCURVE",
"372 463 OFFCURVE",
"286 463 CURVE SMOOTH",
"149 463 OFFCURVE",
"57 386 OFFCURVE",
"57 271 CURVE SMOOTH",
"57 147 OFFCURVE",
"143 78 OFFCURVE",
"286 78 CURVE SMOOTH"
);
},
{
closed = 1;
nodes = (
"446 141 LINE",
"230 402 LINE",
"145 402 LINE",
"361 141 LINE"
);
},
{
closed = 1;
nodes = (
"538 0 LINE",
"538 622 LINE",
"460 622 LINE",
"460 391 LINE",
"462 379 LINE",
"462 192 LINE",
"460 179 LINE",
"460 0 LINE"
);
},
{
closed = 1;
nodes = (
"496 558 LINE",
"496 622 LINE",
"38 622 LINE",
"38 558 LINE"
);
}
);
width = 653;
}
);
rightMetricsKey = MatraAa.Nnagari;
unicode = 119C4;
script = "";
category = Letter;
subCategory = Other;
},
{
glyphname = Bha.Nnagari;
lastChange = "2021-11-05 10:04:10 +0000";
layers = (
{
anchors = (
{
name = bottom;
position = "{509, 0}";
},
{
name = top;
position = "{515, 602}";
}
);
layerId = "5370898B-AC2E-42A7-894F-0BCCE5AE0A77";
paths = (
{
closed = 1;
nodes = (
"548 0 LINE",
"548 622 LINE",
"470 622 LINE",
"470 0 LINE"
);
},
{
closed = 1;
nodes = (
"155 0 LINE",
"155 334 LINE",
"77 334 LINE",
"77 0 LINE"
);
},
{
closed = 1;
nodes = (
"506 301 LINE",
"506 373 LINE",
"77 373 LINE",
"77 301 LINE"
);
},
{
closed = 1;
nodes = (
"506 558 LINE",
"506 622 LINE",
"40 622 LINE",
"40 558 LINE"
);
}
);
width = 663;
}
);
rightMetricsKey = MatraAa.Nnagari;
unicode = 119C5;
script = "";
category = Letter;
subCategory = Other;
},
{
glyphname = Ma.Nnagari;
lastChange = "2021-11-05 10:04:10 +0000";
layers = (
{
anchors = (
{
name = bottom;
position = "{558, 0}";
},
{
name = top;
position = "{564, 602}";
}
);
components = (
{
name = _MaHalf1;
}
);
layerId = "5370898B-AC2E-42A7-894F-0BCCE5AE0A77";
paths = (
{
closed = 1;
nodes = (
"597 0 LINE",
"597 582 LINE",
"519 582 LINE",
"519 0 LINE"
);
}
);
width = 712;
}
);
rightMetricsKey = MatraAa.Nnagari;
unicode = 119C6;
script = "";
category = Letter;
subCategory = Other;
},
{
glyphname = Ya.Nnagari;
lastChange = "2021-11-05 10:04:10 +0000";
layers = (
{
anchors = (
{
name = bottom;
position = "{558, 0}";
},
{
name = top;
position = "{564, 602}";
}
);
layerId = "5370898B-AC2E-42A7-894F-0BCCE5AE0A77";
paths = (
{
closed = 1;
nodes = (
"458 127 OFFCURVE",
"549 201 OFFCURVE",
"580 318 CURVE",
"530 336 LINE",
"507 254 OFFCURVE",
"420 199 OFFCURVE",
"311 199 CURVE SMOOTH",
"226 199 OFFCURVE",
"153 226 OFFCURVE",
"106 282 CURVE",
"113 244 LINE",
"222 286 OFFCURVE",
"285 373 OFFCURVE",
"285 471 CURVE SMOOTH",
"285 504 OFFCURVE",
"279 539 OFFCURVE",
"266 574 CURVE",
"188 574 LINE",
"200 539 OFFCURVE",
"206 507 OFFCURVE",
"206 477 CURVE SMOOTH",
"206 397 OFFCURVE",
"155 335 OFFCURVE",
"59 292 CURVE",
"59 220 LINE",
"124 154 OFFCURVE",
"214 127 OFFCURVE",
"304 127 CURVE SMOOTH"
);
},
{
closed = 1;
nodes = (
"597 0 LINE",
"597 622 LINE",
"519 622 LINE",
"519 0 LINE"
);
},
{
closed = 1;
nodes = (
"558 558 LINE",
"558 622 LINE",
"37 622 LINE",
"37 558 LINE"
);
}
);
width = 712;
}
);
rightMetricsKey = MatraAa.Nnagari;
unicode = 119C7;
script = "";
category = Letter;
subCategory = Other;
},
{
glyphname = Ra.Nnagari;
lastChange = "2021-11-05 10:04:10 +0000";
layers = (
{
anchors = (
{
name = bottom;
position = "{436, 0}";
},
{
name = top;
position = "{442, 602}";
}
);
layerId = "5370898B-AC2E-42A7-894F-0BCCE5AE0A77";
paths = (
{
closed = 1;
nodes = (
"475 0 LINE",
"475 622 LINE",
"397 622 LINE",
"397 0 LINE"
);
},
{
closed = 1;
nodes = (
"433 271 LINE",
"433 341 LINE",
"50 341 LINE",
"50 271 LINE"
);
},
{
closed = 1;
nodes = (
"433 558 LINE",
"433 622 LINE",
"30 622 LINE",
"30 558 LINE"
);
}
);
width = 590;
}
);
rightMetricsKey = MatraAa.Nnagari;
unicode = 119C8;
script = "";
category = Letter;
subCategory = Other;
},
{
glyphname = La.Nnagari;
lastChange = "2021-11-05 10:04:10 +0000";
layers = (
{
anchors = (
{
name = bottom;
position = "{628, 0}";
},
{
name = top;
position = "{634, 602}";
}
);
layerId = "5370898B-AC2E-42A7-894F-0BCCE5AE0A77";
paths = (
{
closed = 1;
nodes = (
"218 0 LINE",
"167 89 OFFCURVE",
"143 159 OFFCURVE",
"143 224 CURVE SMOOTH",
"143 295 OFFCURVE",
"179 335 OFFCURVE",
"239 335 CURVE SMOOTH",
"296 335 OFFCURVE",
"338 300 OFFCURVE",
"340 210 CURVE SMOOTH",
"341 162 LINE",
"417 162 LINE",
"418 210 LINE SMOOTH",
"420 303 OFFCURVE",
"473 339 OFFCURVE",
"536 339 CURVE SMOOTH",
"560 339 OFFCURVE",
"585 333 OFFCURVE",
"609 318 CURVE",
"609 390 LINE",
"587 405 OFFCURVE",
"562 411 OFFCURVE",
"532 411 CURVE SMOOTH",
"444 411 OFFCURVE",
"386 365 OFFCURVE",
"370 283 CURVE",
"390 283 LINE",
"374 359 OFFCURVE",
"325 407 OFFCURVE",
"234 407 CURVE SMOOTH",
"135 407 OFFCURVE",
"65 342 OFFCURVE",
"65 224 CURVE SMOOTH",
"65 155 OFFCURVE",
"86 85 OFFCURVE",
"133 0 CURVE"
);
},
{
closed = 1;
nodes = (
"628 558 LINE",
"628 622 LINE",
"40 622 LINE",
"40 558 LINE"
);
},
{
closed = 1;
nodes = (
"667 0 LINE",
"667 622 LINE",
"589 622 LINE",
"589 0 LINE"
);
}
);
width = 782;
}
);
rightMetricsKey = MatraAa.Nnagari;
unicode = 119C9;
script = "";
category = Letter;
subCategory = Other;
},
{
glyphname = Va.Nnagari;
lastChange = "2021-11-05 10:04:10 +0000";
layers = (
{
anchors = (
{
name = bottom;
position = "{482, 0}";
},
{
name = top;
position = "{488, 602}";
}
);
layerId = "5370898B-AC2E-42A7-894F-0BCCE5AE0A77";
paths = (
{
closed = 1;
nodes = (
"378 84 OFFCURVE",
"456 120 OFFCURVE",
"497 185 CURVE",
"467 242 LINE",
"438 202 OFFCURVE",
"383 154 OFFCURVE",
"286 154 CURVE SMOOTH",
"185 154 OFFCURVE",
"129 198 OFFCURVE",
"129 271 CURVE SMOOTH",
"129 339 OFFCURVE",
"175 387 OFFCURVE",
"286 387 CURVE SMOOTH",
"381 387 OFFCURVE",
"441 341 OFFCURVE",
"471 306 CURVE",
"483 379 LINE",
"447 426 OFFCURVE",
"366 457 OFFCURVE",
"280 457 CURVE SMOOTH",
"140 457 OFFCURVE",
"51 382 OFFCURVE",
"51 271 CURVE SMOOTH",
"51 153 OFFCURVE",
"137 84 OFFCURVE",
"280 84 CURVE SMOOTH"
);
},
{
closed = 1;
nodes = (
"521 0 LINE",
"521 622 LINE",
"443 622 LINE",
"443 385 LINE",
"445 373 LINE",
"445 198 LINE",
"443 185 LINE",
"443 0 LINE"
);
},
{
closed = 1;
nodes = (
"479 558 LINE",
"479 622 LINE",
"30 622 LINE",
"30 558 LINE"
);
}
);
width = 636;
}
);
rightMetricsKey = MatraAa.Nnagari;
unicode = 119CA;
script = "";
category = Letter;
subCategory = Other;
},
{
glyphname = Sha.Nnagari;
lastChange = "2021-11-05 10:04:10 +0000";
layers = (
{
anchors = (
{
name = bottom;
position = "{568, 0}";
},
{
name = top;
position = "{574, 602}";
}
);
layerId = "5370898B-AC2E-42A7-894F-0BCCE5AE0A77";
paths = (
{
closed = 1;
nodes = (
"349 0 LINE",
"211 196 LINE SMOOTH",
"171 253 OFFCURVE",
"130 298 OFFCURVE",
"88 320 CURVE",
"43 320 LINE",
"43 275 LINE",
"67 258 OFFCURVE",
"102 218 OFFCURVE",
"141 163 CURVE SMOOTH",
"258 0 LINE"
);
},
{
closed = 1;
nodes = (
"67 286 LINE",
"205 302 OFFCURVE",
"305 396 OFFCURVE",
"305 552 CURVE SMOOTH",
"305 578 LINE",
"225 578 LINE",
"225 552 LINE SMOOTH",
"225 433 OFFCURVE",
"151 358 OFFCURVE",
"52 347 CURVE SMOOTH",
"43 346 LINE",
"43 286 LINE"
);
},
{
closed = 1;
nodes = (
"607 0 LINE",
"607 622 LINE",
"529 622 LINE",
"529 0 LINE"
);
},
{
closed = 1;
nodes = (
"558 558 LINE",
"558 622 LINE",
"25 622 LINE",
"25 558 LINE"
);
}
);
width = 722;
}
);
rightMetricsKey = MatraAa.Nnagari;
unicode = 119CB;
script = "";
category = Letter;
subCategory = Other;
},
{
glyphname = Ssa.Nnagari;
lastChange = "2021-11-05 10:04:10 +0000";
layers = (
{
anchors = (
{
name = bottom;
position = "{517, 0}";
},
{
name = top;
position = "{523, 602}";
}
);
layerId = "5370898B-AC2E-42A7-894F-0BCCE5AE0A77";
paths = (
{
closed = 1;
nodes = (
"452 201 OFFCURVE",
"508 283 OFFCURVE",
"537 344 CURVE",
"486 379 LINE",
"462 316 OFFCURVE",
"394 273 OFFCURVE",
"306 273 CURVE SMOOTH",
"196 273 OFFCURVE",
"138 335 OFFCURVE",
"138 485 CURVE SMOOTH",
"138 595 LINE",
"60 595 LINE",
"60 485 LINE SMOOTH",
"60 305 OFFCURVE",
"135 201 OFFCURVE",
"306 201 CURVE SMOOTH"
);
},
{
closed = 1;
nodes = (
"526 324 LINE",
"205 569 LINE",
"113 564 LINE",
"455 297 LINE"
);
},
{
closed = 1;
nodes = (
"556 0 LINE",
"556 622 LINE",
"478 622 LINE",
"478 0 LINE"
);
},
{
closed = 1;
nodes = (
"504 558 LINE",
"504 622 LINE",
"60 622 LINE",
"60 558 LINE"
);
}
);
width = 671;
}
);
leftMetricsKey = Pa.Nnagari;
rightMetricsKey = MatraAa.Nnagari;
unicode = 119CC;
script = "";
category = Letter;
subCategory = Other;
},
{
glyphname = Sa.Nnagari;
lastChange = "2021-11-05 10:04:10 +0000";
layers = (
{
anchors = (
{
name = bottom;
position = "{647, 0}";
},
{
name = top;
position = "{653, 602}";
}
);
layerId = "5370898B-AC2E-42A7-894F-0BCCE5AE0A77";
paths = (
{
closed = 1;
nodes = (
"349 0 LINE",
"211 196 LINE SMOOTH",
"171 253 OFFCURVE",
"130 298 OFFCURVE",
"88 320 CURVE",
"43 320 LINE",
"43 275 LINE",
"67 258 OFFCURVE",
"102 218 OFFCURVE",
"141 163 CURVE SMOOTH",
"258 0 LINE"
);
},
{
closed = 1;
nodes = (
"67 286 LINE",
"166 296 OFFCURVE",
"274 368 OFFCURVE",
"274 539 CURVE SMOOTH",
"274 602 LINE",
"196 602 LINE",
"196 542 LINE SMOOTH",
"196 410 OFFCURVE",
"128 355 OFFCURVE",
"52 347 CURVE SMOOTH",
"43 346 LINE",
"43 286 LINE"
);
},
{
closed = 1;
nodes = (
"459 332 OFFCURVE",
"528 391 OFFCURVE",
"528 489 CURVE SMOOTH",
"528 540 OFFCURVE",
"514 576 OFFCURVE",
"490 599 CURVE",
"426 567 LINE",
"440 556 OFFCURVE",
"450 529 OFFCURVE",
"450 497 CURVE SMOOTH",
"450 442 OFFCURVE",
"417 404 OFFCURVE",
"353 404 CURVE SMOOTH",
"304 404 OFFCURVE",
"265 422 OFFCURVE",
"242 452 CURVE",
"206 392 LINE",
"230 360 OFFCURVE",
"286 332 OFFCURVE",
"358 332 CURVE SMOOTH"
);
},
{
closed = 1;
nodes = (
"667 558 LINE",
"667 622 LINE",
"25 622 LINE",
"25 558 LINE"
);
},
{
closed = 1;
nodes = (
"686 0 LINE",
"686 622 LINE",
"608 622 LINE",
"608 0 LINE"
);
}
);
width = 801;
}
);
rightMetricsKey = MatraAa.Nnagari;
unicode = 119CD;
script = "";
category = Letter;
subCategory = Other;
},
{
glyphname = Ha.Nnagari;
lastChange = "2021-11-05 10:04:10 +0000";
layers = (
{
anchors = (
{
name = bottom;
position = "{581, 0}";
},
{
name = top;
position = "{340, 602}";
}
);
layerId = "5370898B-AC2E-42A7-894F-0BCCE5AE0A77";
paths = (
{
closed = 1;
nodes = (
"620 0 LINE",
"620 224 LINE SMOOTH",
"620 331 OFFCURVE",
"560 389 OFFCURVE",
"466 389 CURVE SMOOTH",
"370 389 OFFCURVE",
"308 323 OFFCURVE",
"295 221 CURVE",
"323 213 LINE",
"279 304 OFFCURVE",
"203 349 OFFCURVE",
"97 355 CURVE",
"70 355 LINE",
"70 296 LINE",
"160 296 OFFCURVE",
"258 242 OFFCURVE",
"285 145 CURVE",
"355 145 LINE",
"364 286 OFFCURVE",
"411 317 OFFCURVE",
"464 317 CURVE SMOOTH",
"512 317 OFFCURVE",
"542 286 OFFCURVE",
"542 218 CURVE SMOOTH",
"542 0 LINE"
);
},
{
closed = 1;
nodes = (
"124 323 LINE",
"247 360 OFFCURVE",
"354 487 OFFCURVE",
"373 575 CURVE",
"294 581 LINE",
"282 499 OFFCURVE",
"159 402 OFFCURVE",
"70 366 CURVE",
"70 313 LINE"
);
},
{
closed = 1;
nodes = (
"317 558 LINE",
"342 575 LINE",
"373 575 LINE",
"373 622 LINE",
"25 622 LINE",
"25 558 LINE"
);
}
);
width = 725;
}
);
rightKerningGroup = HaRight;
unicode = 119CE;
script = "";
category = Letter;
subCategory = Other;
},
{
glyphname = Lla.Nnagari;
lastChange = "2021-11-05 10:04:10 +0000";
layers = (
{
anchors = (
{
name = bottom;
position = "{655, 0}";
},
{
name = top;
position = "{661, 602}";
}
);
layerId = "5370898B-AC2E-42A7-894F-0BCCE5AE0A77";
paths = (
{
closed = 1;
nodes = (
"278 -2 OFFCURVE",
"324 43 OFFCURVE",
"324 108 CURVE SMOOTH",
"324 188 OFFCURVE",
"266 239 OFFCURVE",
"170 239 CURVE SMOOTH",
"157 239 OFFCURVE",
"144 238 OFFCURVE",
"130 236 CURVE",
"116 170 LINE",
"132 172 OFFCURVE",
"143 174 OFFCURVE",
"159 174 CURVE SMOOTH",
"224 174 OFFCURVE",
"248 140 OFFCURVE",
"248 110 CURVE SMOOTH",
"248 86 OFFCURVE",
"234 68 OFFCURVE",
"204 68 CURVE SMOOTH",
"163 68 OFFCURVE",
"133 106 OFFCURVE",
"133 178 CURVE SMOOTH",
"133 265 OFFCURVE",
"175 315 OFFCURVE",
"254 315 CURVE SMOOTH",
"327 315 OFFCURVE",
"383 272 OFFCURVE",
"386 190 CURVE SMOOTH",
"387 162 LINE",
"463 162 LINE",
"464 190 LINE SMOOTH",
"467 277 OFFCURVE",
"516 325 OFFCURVE",
"597 325 CURVE SMOOTH",
"626 325 OFFCURVE",
"643 322 OFFCURVE",
"666 315 CURVE",
"666 387 LINE",
"643 394 OFFCURVE",
"621 397 OFFCURVE",
"597 397 CURVE SMOOTH",
"500 397 OFFCURVE",
"419 340 OFFCURVE",
"419 237 CURVE",
"441 219 LINE",
"441 299 OFFCURVE",
"384 387 OFFCURVE",
"254 387 CURVE SMOOTH",
"142 387 OFFCURVE",
"55 310 OFFCURVE",
"55 178 CURVE SMOOTH",
"55 69 OFFCURVE",
"112 -2 OFFCURVE",
"205 -2 CURVE SMOOTH"
);
},
{
closed = 1;
nodes = (
"655 558 LINE",
"655 622 LINE",
"40 622 LINE",
"40 558 LINE"
);
},
{
closed = 1;
nodes = (
"694 0 LINE",
"694 622 LINE",
"616 622 LINE",
"616 0 LINE"
);
}
);
width = 809;
}
);
rightMetricsKey = MatraAa.Nnagari;
unicode = 119CF;
script = "";
category = Letter;
subCategory = Other;
},
{
glyphname = Rra.Nnagari;
lastChange = "2021-11-05 10:04:10 +0000";
layers = (
{
anchors = (
{
name = bottom;
position = "{367, 0}";
},
{
name = top;
position = "{372, 602}";
}
);
layerId = "5370898B-AC2E-42A7-894F-0BCCE5AE0A77";
paths = (
{
closed = 1;
nodes = (
"398 0 LINE",
"682 316 LINE",
"627 366 LINE",
"465 179 LINE SMOOTH",
"430 138 OFFCURVE",
"393 82 OFFCURVE",
"370 44 CURVE",
"362 44 LINE",
"338 83 OFFCURVE",
"305 138 OFFCURVE",
"267 181 CURVE SMOOTH",
"105 366 LINE",
"50 316 LINE",
"334 0 LINE"
);
},
{
closed = 1;
nodes = (
"391 16 LINE",
"394 74 OFFCURVE",
"405 165 OFFCURVE",
"405 243 CURVE SMOOTH",
"405 592 LINE",
"327 592 LINE",
"327 243 LINE SMOOTH",
"327 165 OFFCURVE",
"338 74 OFFCURVE",
"341 16 CURVE"
);
},
{
closed = 1;
nodes = (
"692 558 LINE",
"692 622 LINE",
"40 622 LINE",
"40 558 LINE"
);
}
);
width = 752;
}
);
unicode = 119D0;
script = "";
category = Letter;
subCategory = Other;
},
{
glyphname = MatraAa.Nnagari;
lastChange = "2021-11-05 10:04:10 +0000";
layers = (
{
anchors = (
{
name = bottom;
position = "{115, 0}";
},
{
name = top;
position = "{121, 602}";
}
);
layerId = "5370898B-AC2E-42A7-894F-0BCCE5AE0A77";
paths = (
{
closed = 1;
nodes = (
"154 0 LINE",
"154 622 LINE",
"76 622 LINE",
"76 0 LINE"
);
},
{
closed = 1;
nodes = (
"104 558 LINE",
"104 622 LINE",
"-455 622 LINE",
"-455 558 LINE"
);
}
);
width = 269;
}
);
unicode = 119D1;
script = "";
category = Mark;
subCategory = Other;
},
{
glyphname = MatraI.Nnagari;
lastChange = "2021-11-05 10:04:10 +0000";
layers = (
{
layerId = "5370898B-AC2E-42A7-894F-0BCCE5AE0A77";
paths = (
{
closed = 1;
nodes = (
"140 0 LINE",
"140 635 LINE SMOOTH",
"140 750 OFFCURVE",
"206 825 OFFCURVE",
"370 825 CURVE SMOOTH",
"450 825 OFFCURVE",
"532 808 OFFCURVE",
"596 788 CURVE",
"618 855 LINE",
"549 878 OFFCURVE",
"467 897 OFFCURVE",
"370 897 CURVE SMOOTH",
"172 897 OFFCURVE",
"62 803 OFFCURVE",
"62 635 CURVE SMOOTH",
"62 0 LINE"
);
}
);
width = 203;
}
);
unicode = 119D2;
script = "";
category = Mark;
subCategory = Other;
},
{
glyphname = MatraIi.Nnagari;
lastChange = "2021-11-05 10:04:10 +0000";
layers = (
{
components = (
{
name = _Matraii;
}
);
layerId = "5370898B-AC2E-42A7-894F-0BCCE5AE0A77";
paths = (
{
closed = 1;
nodes = (
"-115 558 LINE",
"-115 622 LINE",
"-455 622 LINE",
"-455 558 LINE"
);
}
);
width = 269;
}
);
leftKerningGroup = MatraIi.Nnagari;
unicode = 119D3;
script = "";
category = Mark;
subCategory = Other;
},
{
glyphname = MatraU.Nnagari;
lastChange = "2021-11-05 10:04:10 +0000";
layers = (
{
anchors = (
{
name = _bottom;
position = "{467, 0}";
}
);
layerId = "5370898B-AC2E-42A7-894F-0BCCE5AE0A77";
paths = (
{
closed = 1;
nodes = (
"383 -260 OFFCURVE",
"506 -163 OFFCURVE",
"506 0 CURVE SMOOTH",
"506 26 LINE",
"428 26 LINE",
"428 0 LINE SMOOTH",
"428 -121 OFFCURVE",
"333 -188 OFFCURVE",
"192 -188 CURVE SMOOTH",
"165 -188 OFFCURVE",
"138 -185 OFFCURVE",
"115 -181 CURVE",
"104 -251 LINE",
"130 -257 OFFCURVE",
"161 -260 OFFCURVE",
"192 -260 CURVE SMOOTH"
);
}
);
width = 621;
}
);
unicode = 119D4;
script = "";
category = Mark;
subCategory = Nonspacing;
},
{
glyphname = MatraUu.Nnagari;
lastChange = "2021-11-05 10:04:10 +0000";
layers = (
{
anchors = (
{
name = _bottom;
position = "{448, 0}";
}
);
layerId = "5370898B-AC2E-42A7-894F-0BCCE5AE0A77";
paths = (
{
closed = 1;
nodes = (
"393 -252 OFFCURVE",
"487 -156 OFFCURVE",
"487 -13 CURVE SMOOTH",
"487 26 LINE",
"409 26 LINE",
"409 -13 LINE SMOOTH",
"409 -127 OFFCURVE",
"340 -182 OFFCURVE",
"213 -182 CURVE SMOOTH",
"186 -182 OFFCURVE",
"151 -179 OFFCURVE",
"126 -174 CURVE",
"116 -243 LINE",
"139 -248 OFFCURVE",
"178 -252 OFFCURVE",
"213 -252 CURVE SMOOTH"
);
},
{
closed = 1;
nodes = (
"385 -384 OFFCURVE",
"483 -318 OFFCURVE",
"483 -208 CURVE SMOOTH",
"483 -166 OFFCURVE",
"467 -138 OFFCURVE",
"449 -114 CURVE",
"395 -159 LINE",
"403 -175 OFFCURVE",
"410 -188 OFFCURVE",
"410 -209 CURVE SMOOTH",
"410 -269 OFFCURVE",
"359 -314 OFFCURVE",
"216 -314 CURVE SMOOTH",
"196 -314 OFFCURVE",
"154 -312 OFFCURVE",
"124 -305 CURVE",
"114 -374 LINE",
"143 -380 OFFCURVE",
"182 -384 OFFCURVE",
"216 -384 CURVE SMOOTH"
);
}
);
width = 602;
}
);
unicode = 119D5;
script = "";
category = Mark;
subCategory = Nonspacing;
},
{
glyphname = MatraR.Nnagari;
lastChange = "2021-11-05 10:04:10 +0000";
layers = (
{
anchors = (
{
name = _bottom;
position = "{139, 0}";
}
);
layerId = "5370898B-AC2E-42A7-894F-0BCCE5AE0A77";
paths = (
{
closed = 1;
nodes = (
"336 -242 OFFCURVE",
"358 -239 OFFCURVE",
"369 -236 CURVE",
"357 -167 LINE",
"346 -169 OFFCURVE",
"332 -170 OFFCURVE",
"316 -170 CURVE SMOOTH",
"225 -170 OFFCURVE",
"178 -126 OFFCURVE",
"178 -18 CURVE SMOOTH",
"178 26 LINE",
"100 26 LINE",
"100 -18 LINE SMOOTH",
"100 -168 OFFCURVE",
"175 -242 OFFCURVE",
"316 -242 CURVE SMOOTH"
);
}
);
width = 474;
}
);
unicode = 119D6;
script = "";
category = Mark;
subCategory = Nonspacing;
},
{
glyphname = MatraRr.Nnagari;
lastChange = "2021-11-05 10:04:10 +0000";
layers = (
{
anchors = (
{
name = _bottom;
position = "{139, 0}";
}
);
layerId = "5370898B-AC2E-42A7-894F-0BCCE5AE0A77";
paths = (
{
closed = 1;
nodes = (
"319 -241 OFFCURVE",
"336 -239 OFFCURVE",
"347 -236 CURVE",
"337 -170 LINE",
"330 -172 OFFCURVE",
"315 -173 OFFCURVE",
"302 -173 CURVE SMOOTH",
"216 -173 OFFCURVE",
"178 -137 OFFCURVE",
"178 -50 CURVE SMOOTH",
"178 26 LINE",
"100 26 LINE",
"100 -50 LINE SMOOTH",
"100 -173 OFFCURVE",
"181 -241 OFFCURVE",
"300 -241 CURVE SMOOTH"
);
},
{
closed = 1;
nodes = (
"326 -373 OFFCURVE",
"346 -371 OFFCURVE",
"358 -368 CURVE",
"348 -302 LINE",
"341 -304 OFFCURVE",
"325 -305 OFFCURVE",
"311 -305 CURVE SMOOTH",
"231 -305 OFFCURVE",
"183 -280 OFFCURVE",
"183 -217 CURVE SMOOTH",
"183 -193 OFFCURVE",
"189 -173 OFFCURVE",
"203 -146 CURVE",
"140 -124 LINE",
"121 -152 OFFCURVE",
"110 -185 OFFCURVE",
"110 -216 CURVE SMOOTH",
"110 -315 OFFCURVE",
"179 -373 OFFCURVE",
"304 -373 CURVE SMOOTH"
);
}
);
width = 461;
}
);
unicode = 119D7;
script = "";
category = Mark;
subCategory = Nonspacing;
},
{
glyphname = MatraE.Nnagari;
lastChange = "2021-11-05 10:04:10 +0000";
layers = (
{
anchors = (
{
name = _top;
position = "{303, 602}";
}
);
layerId = "5370898B-AC2E-42A7-894F-0BCCE5AE0A77";
paths = (
{
closed = 1;
nodes = (
"336 595 LINE",
"336 622 LINE",
"161 897 LINE",
"100 858 LINE",
"269 595 LINE"
);
}
);
width = 451;
}
);
unicode = 119DA;
script = "";
category = Mark;
subCategory = Nonspacing;
},
{
glyphname = MatraAi.Nnagari;
lastChange = "2021-11-05 10:04:10 +0000";
layers = (
{
anchors = (
{
name = _top;
position = "{565, 602}";
}
);
layerId = "5370898B-AC2E-42A7-894F-0BCCE5AE0A77";
paths = (
{
closed = 1;
nodes = (
"366 561 LINE",
"366 575 LINE",
"161 897 LINE",
"100 858 LINE",
"281 573 LINE",
"296 561 LINE"
);
},
{
closed = 1;
nodes = (
"598 595 LINE",
"598 622 LINE",
"423 897 LINE",
"362 858 LINE",
"530 595 LINE"
);
}
);
width = 713;
}
);
unicode = 119DB;
script = "";
category = Mark;
subCategory = Nonspacing;
},
{
glyphname = Anusvara.Nnagari;
lastChange = "2021-11-05 10:04:10 +0000";
layers = (
{
layerId = "5370898B-AC2E-42A7-894F-0BCCE5AE0A77";
paths = (
{
closed = 1;
nodes = (
"287 303 OFFCURVE",
"349 360 OFFCURVE",
"349 446 CURVE SMOOTH",
"349 533 OFFCURVE",
"287 591 OFFCURVE",
"194 591 CURVE SMOOTH",
"101 591 OFFCURVE",
"39 533 OFFCURVE",
"39 446 CURVE SMOOTH",
"39 360 OFFCURVE",
"101 303 OFFCURVE",
"194 303 CURVE SMOOTH"
);
},
{
closed = 1;
nodes = (
"148 369 OFFCURVE",
"117 400 OFFCURVE",
"117 446 CURVE SMOOTH",
"117 493 OFFCURVE",
"148 524 OFFCURVE",
"194 524 CURVE SMOOTH",
"240 524 OFFCURVE",
"271 493 OFFCURVE",
"271 446 CURVE SMOOTH",
"271 400 OFFCURVE",
"240 369 OFFCURVE",
"194 369 CURVE SMOOTH"
);
}
);
width = 441;
}
);
unicode = 119DE;
script = "";
category = Mark;
subCategory = Other;
},
{
glyphname = Visarga.Nnagari;
lastChange = "2021-11-05 10:04:10 +0000";
layers = (
{
layerId = "5370898B-AC2E-42A7-894F-0BCCE5AE0A77";
paths = (
{
closed = 1;
nodes = (
"263 349 OFFCURVE",
"324 400 OFFCURVE",
"324 475 CURVE SMOOTH",
"324 550 OFFCURVE",
"263 601 OFFCURVE",
"188 601 CURVE SMOOTH",
"113 601 OFFCURVE",
"52 550 OFFCURVE",
"52 475 CURVE SMOOTH",
"52 400 OFFCURVE",
"113 349 OFFCURVE",
"188 349 CURVE SMOOTH"
);
},
{
closed = 1;
nodes = (
"263 9 OFFCURVE",
"324 60 OFFCURVE",
"324 135 CURVE SMOOTH",
"324 210 OFFCURVE",
"263 261 OFFCURVE",
"188 261 CURVE SMOOTH",
"113 261 OFFCURVE",
"52 210 OFFCURVE",
"52 135 CURVE SMOOTH",
"52 60 OFFCURVE",
"113 9 OFFCURVE",
"188 9 CURVE SMOOTH"
);
},
{
closed = 1;
nodes = (
"150 71 OFFCURVE",
"124 97 OFFCURVE",
"124 135 CURVE SMOOTH",
"124 173 OFFCURVE",
"150 199 OFFCURVE",
"188 199 CURVE SMOOTH",
"226 199 OFFCURVE",
"252 173 OFFCURVE",
"252 135 CURVE SMOOTH",
"252 97 OFFCURVE",
"226 71 OFFCURVE",
"188 71 CURVE SMOOTH"
);
},
{
closed = 1;
nodes = (
"150 411 OFFCURVE",
"124 437 OFFCURVE",
"124 475 CURVE SMOOTH",
"124 513 OFFCURVE",
"150 539 OFFCURVE",
"188 539 CURVE SMOOTH",
"226 539 OFFCURVE",
"252 513 OFFCURVE",
"252 475 CURVE SMOOTH",
"252 437 OFFCURVE",
"226 411 OFFCURVE",
"188 411 CURVE SMOOTH"
);
}
);
width = 439;
}
);
unicode = 119DF;
script = "";
category = Mark;
subCategory = Other;
},
{
glyphname = Virama.Nnagari;
lastChange = "2021-11-05 10:04:10 +0000";
layers = (
{
anchors = (
{
name = _bottom;
position = "{234, 0}";
}
);
layerId = "5370898B-AC2E-42A7-894F-0BCCE5AE0A77";
paths = (
{
closed = 1;
nodes = (
"382 -297 LINE",
"333 -227 LINE SMOOTH",
"284 -157 OFFCURVE",
"249 -132 OFFCURVE",
"186 -128 CURVE",
"186 -150 LINE",
"245 -140 OFFCURVE",
"273 -96 OFFCURVE",
"273 -32 CURVE SMOOTH",
"273 26 LINE",
"195 26 LINE",
"195 -32 LINE SMOOTH",
"195 -82 OFFCURVE",
"170 -107 OFFCURVE",
"120 -107 CURVE SMOOTH",
"100 -107 LINE",
"100 -179 LINE",
"138 -179 LINE SMOOTH",
"193 -179 OFFCURVE",
"228 -200 OFFCURVE",
"268 -260 CURVE SMOOTH",
"319 -336 LINE"
);
}
);
width = 482;
}
);
unicode = 119E0;
script = "";
category = Mark;
subCategory = Nonspacing;
},
{
glyphname = Avagraha.Nnagari;
lastChange = "2021-11-05 10:04:10 +0000";
layers = (
{
layerId = "5370898B-AC2E-42A7-894F-0BCCE5AE0A77";
paths = (
{
closed = 1;
nodes = (
"408 -5 OFFCURVE",
"484 64 OFFCURVE",
"484 167 CURVE SMOOTH",
"484 293 OFFCURVE",
"381 328 OFFCURVE",
"294 364 CURVE SMOOTH",
"234 389 OFFCURVE",
"182 413 OFFCURVE",
"182 471 CURVE SMOOTH",
"182 526 OFFCURVE",
"219 559 OFFCURVE",
"284 559 CURVE SMOOTH",
"347 559 OFFCURVE",
"383 526 OFFCURVE",
"403 495 CURVE",
"465 531 LINE",
"438 581 OFFCURVE",
"382 627 OFFCURVE",
"284 627 CURVE SMOOTH",
"179 627 OFFCURVE",
"104 566 OFFCURVE",
"104 471 CURVE SMOOTH",
"104 367 OFFCURVE",
"183 331 OFFCURVE",
"259 299 CURVE SMOOTH",
"334 268 OFFCURVE",
"406 242 OFFCURVE",
"406 167 CURVE SMOOTH",
"406 100 OFFCURVE",
"363 63 OFFCURVE",
"286 63 CURVE SMOOTH",
"213 63 OFFCURVE",
"169 93 OFFCURVE",
"137 143 CURVE",
"77 101 LINE",
"111 41 OFFCURVE",
"174 -5 OFFCURVE",
"284 -5 CURVE SMOOTH"
);
}
);
width = 595;
}
);
unicode = 119E1;
script = "";
category = Letter;
subCategory = Other;
},
{
glyphname = Siddham.Nnagari;
lastChange = "2021-11-05 10:04:10 +0000";
layers = (
{
layerId = "5370898B-AC2E-42A7-894F-0BCCE5AE0A77";
paths = (
{
closed = 1;
nodes = (
"306 70 LINE",
"287 73 OFFCURVE",
"267 89 OFFCURVE",
"267 115 CURVE SMOOTH",
"267 233 OFFCURVE",
"490 269 OFFCURVE",
"490 452 CURVE SMOOTH",
"490 555 OFFCURVE",
"403 622 OFFCURVE",
"307 622 CURVE SMOOTH",
"213 622 OFFCURVE",
"125 560 OFFCURVE",
"125 460 CURVE SMOOTH",
"125 374 OFFCURVE",
"185 329 OFFCURVE",
"225 314 CURVE",
"262 372 LINE",
"232 385 OFFCURVE",
"202 415 OFFCURVE",
"202 460 CURVE SMOOTH",
"202 510 OFFCURVE",
"243 550 OFFCURVE",
"307 550 CURVE SMOOTH",
"373 550 OFFCURVE",
"412 505 OFFCURVE",
"412 452 CURVE SMOOTH",
"412 311 OFFCURVE",
"191 280 OFFCURVE",
"191 115 CURVE SMOOTH",
"191 45 OFFCURVE",
"240 7 OFFCURVE",
"293 0 CURVE"
);
}
);
width = 605;
}
);
unicode = 119E2;
script = "";
category = Letter;
subCategory = Other;
},
{
glyphname = AnusvaraAntargomukha.Nnagari;
lastChange = "2021-11-05 10:04:10 +0000";
layers = (
{
layerId = "5370898B-AC2E-42A7-894F-0BCCE5AE0A77";
paths = (
{
closed = 1;
nodes = (
"574 297 OFFCURVE",
"690 366 OFFCURVE",
"690 505 CURVE SMOOTH",
"690 583 OFFCURVE",
"629 646 OFFCURVE",
"545 646 CURVE SMOOTH",
"479 646 OFFCURVE",
"430 610 OFFCURVE",
"430 543 CURVE SMOOTH",
"430 476 OFFCURVE",
"477 440 OFFCURVE",
"539 440 CURVE SMOOTH",
"618 440 OFFCURVE",
"643 483 OFFCURVE",
"659 529 CURVE",
"616 557 LINE",
"615 530 OFFCURVE",
"586 506 OFFCURVE",
"550 506 CURVE SMOOTH",
"522 506 OFFCURVE",
"505 519 OFFCURVE",
"505 543 CURVE SMOOTH",
"505 566 OFFCURVE",
"522 580 OFFCURVE",
"550 580 CURVE SMOOTH",
"603 580 OFFCURVE",
"630 548 OFFCURVE",
"630 505 CURVE SMOOTH",
"630 416 OFFCURVE",
"540 365 OFFCURVE",
"380 365 CURVE SMOOTH",
"220 365 OFFCURVE",
"130 416 OFFCURVE",
"130 505 CURVE SMOOTH",
"130 548 OFFCURVE",
"157 580 OFFCURVE",
"210 580 CURVE SMOOTH",
"238 580 OFFCURVE",
"255 566 OFFCURVE",
"255 543 CURVE SMOOTH",
"255 519 OFFCURVE",
"238 506 OFFCURVE",
"210 506 CURVE SMOOTH",
"174 506 OFFCURVE",
"145 530 OFFCURVE",
"144 557 CURVE",
"101 529 LINE",
"117 483 OFFCURVE",
"142 440 OFFCURVE",
"221 440 CURVE SMOOTH",
"283 440 OFFCURVE",
"330 476 OFFCURVE",
"330 543 CURVE SMOOTH",
"330 610 OFFCURVE",
"281 646 OFFCURVE",
"215 646 CURVE SMOOTH",
"131 646 OFFCURVE",
"70 583 OFFCURVE",
"70 505 CURVE SMOOTH",
"70 366 OFFCURVE",
"186 297 OFFCURVE",
"380 297 CURVE SMOOTH"
);
}
);
width = 760;
}
);
unicode = 1CE9;
},
{
glyphname = DoubleAnusvaraAntargomukha.Nnagari;
lastChange = "2021-11-05 10:04:10 +0000";
layers = (
{
layerId = "5370898B-AC2E-42A7-894F-0BCCE5AE0A77";
paths = (
{
closed = 1;
nodes = (
"574 297 OFFCURVE",
"690 366 OFFCURVE",
"690 505 CURVE SMOOTH",
"690 583 OFFCURVE",
"629 646 OFFCURVE",
"545 646 CURVE SMOOTH",
"479 646 OFFCURVE",
"430 610 OFFCURVE",
"430 543 CURVE SMOOTH",
"430 476 OFFCURVE",
"477 440 OFFCURVE",
"539 440 CURVE SMOOTH",
"618 440 OFFCURVE",
"643 483 OFFCURVE",
"659 529 CURVE",
"616 557 LINE",
"615 530 OFFCURVE",
"586 506 OFFCURVE",
"550 506 CURVE SMOOTH",
"522 506 OFFCURVE",
"505 519 OFFCURVE",
"505 543 CURVE SMOOTH",
"505 566 OFFCURVE",
"522 580 OFFCURVE",
"550 580 CURVE SMOOTH",
"603 580 OFFCURVE",
"630 548 OFFCURVE",
"630 505 CURVE SMOOTH",
"630 416 OFFCURVE",
"540 365 OFFCURVE",
"380 365 CURVE SMOOTH",
"220 365 OFFCURVE",
"130 416 OFFCURVE",
"130 505 CURVE SMOOTH",
"130 548 OFFCURVE",
"157 580 OFFCURVE",
"210 580 CURVE SMOOTH",
"238 580 OFFCURVE",
"255 566 OFFCURVE",
"255 543 CURVE SMOOTH",
"255 519 OFFCURVE",
"238 506 OFFCURVE",
"210 506 CURVE SMOOTH",
"174 506 OFFCURVE",
"145 530 OFFCURVE",
"144 557 CURVE",
"101 529 LINE",
"117 483 OFFCURVE",
"142 440 OFFCURVE",
"221 440 CURVE SMOOTH",
"283 440 OFFCURVE",
"330 476 OFFCURVE",
"330 543 CURVE SMOOTH",
"330 610 OFFCURVE",
"281 646 OFFCURVE",
"215 646 CURVE SMOOTH",
"131 646 OFFCURVE",
"70 583 OFFCURVE",
"70 505 CURVE SMOOTH",
"70 366 OFFCURVE",
"186 297 OFFCURVE",
"380 297 CURVE SMOOTH"
);
},
{
closed = 1;
nodes = (
"574 -113 OFFCURVE",
"690 -44 OFFCURVE",
"690 95 CURVE SMOOTH",
"690 173 OFFCURVE",
"629 236 OFFCURVE",
"545 236 CURVE SMOOTH",
"479 236 OFFCURVE",
"430 200 OFFCURVE",
"430 133 CURVE SMOOTH",
"430 66 OFFCURVE",
"477 30 OFFCURVE",
"539 30 CURVE SMOOTH",
"618 30 OFFCURVE",
"643 73 OFFCURVE",
"659 119 CURVE",
"616 147 LINE",
"615 120 OFFCURVE",
"586 96 OFFCURVE",
"550 96 CURVE SMOOTH",
"522 96 OFFCURVE",
"505 109 OFFCURVE",
"505 133 CURVE SMOOTH",
"505 156 OFFCURVE",
"522 170 OFFCURVE",
"550 170 CURVE SMOOTH",
"603 170 OFFCURVE",
"630 138 OFFCURVE",
"630 95 CURVE SMOOTH",
"630 6 OFFCURVE",
"540 -45 OFFCURVE",
"380 -45 CURVE SMOOTH",
"220 -45 OFFCURVE",
"130 6 OFFCURVE",
"130 95 CURVE SMOOTH",
"130 138 OFFCURVE",
"157 170 OFFCURVE",
"210 170 CURVE SMOOTH",
"238 170 OFFCURVE",
"255 156 OFFCURVE",
"255 133 CURVE SMOOTH",
"255 109 OFFCURVE",
"238 96 OFFCURVE",
"210 96 CURVE SMOOTH",
"174 96 OFFCURVE",
"145 120 OFFCURVE",
"144 147 CURVE",
"101 119 LINE",
"117 73 OFFCURVE",
"142 30 OFFCURVE",
"221 30 CURVE SMOOTH",
"283 30 OFFCURVE",
"330 66 OFFCURVE",
"330 133 CURVE SMOOTH",
"330 200 OFFCURVE",
"281 236 OFFCURVE",
"215 236 CURVE SMOOTH",
"131 236 OFFCURVE",
"70 173 OFFCURVE",
"70 95 CURVE SMOOTH",
"70 -44 OFFCURVE",
"186 -113 OFFCURVE",
"380 -113 CURVE SMOOTH"
);
}
);
width = 760;
}
);
unicode = 1CFA;
},
{
glyphname = Ardhavisarga.Nnagari;
lastChange = "2021-11-05 10:04:10 +0000";
layers = (
{
layerId = "5370898B-AC2E-42A7-894F-0BCCE5AE0A77";
paths = (
{
closed = 1;
nodes = (
"263 369 OFFCURVE",
"324 416 OFFCURVE",
"324 495 CURVE",
"324 554 LINE",
"252 554 LINE",
"252 495 LINE",
"252 454 OFFCURVE",
"226 431 OFFCURVE",
"188 431 CURVE SMOOTH",
"150 431 OFFCURVE",
"124 454 OFFCURVE",
"124 495 CURVE",
"124 554 LINE",
"52 554 LINE",
"52 495 LINE",
"52 416 OFFCURVE",
"113 369 OFFCURVE",
"188 369 CURVE SMOOTH"
);
},
{
closed = 1;
nodes = (
"124 56 LINE",
"124 115 LINE",
"124 156 OFFCURVE",
"150 179 OFFCURVE",
"188 179 CURVE SMOOTH",
"226 179 OFFCURVE",
"252 156 OFFCURVE",
"252 115 CURVE",
"252 56 LINE",
"324 56 LINE",
"324 115 LINE",
"324 194 OFFCURVE",
"263 241 OFFCURVE",
"188 241 CURVE SMOOTH",
"113 241 OFFCURVE",
"52 194 OFFCURVE",
"52 115 CURVE",
"52 56 LINE"
);
}
);
width = 600;
}
);
unicode = 1CF2;
},
{
glyphname = Headstroke.Nnagari;
lastChange = "2021-11-05 10:04:10 +0000";
layers = (
{
layerId = "5370898B-AC2E-42A7-894F-0BCCE5AE0A77";
paths = (
{
closed = 1;
nodes = (
"548 558 LINE",
"548 622 LINE",
"40 622 LINE",
"40 558 LINE"
);
}
);
width = 663;
}
);
unicode = 119E3;
script = "";
category = Mark;
subCategory = Other;
},
{
glyphname = Prishthamatrae.Nnagari;
lastChange = "2021-11-05 10:04:10 +0000";
layers = (
{
layerId = "5370898B-AC2E-42A7-894F-0BCCE5AE0A77";
paths = (
{
closed = 1;
nodes = (
"193 0 LINE",
"193 622 LINE",
"115 622 LINE",
"115 0 LINE"
);
},
{
closed = 1;
nodes = (
"452 558 LINE",
"512 622 LINE",
"164 622 LINE",
"164 558 LINE"
);
}
);
width = 288;
}
);
unicode = 119E4;
script = "";
category = Mark;
subCategory = "";
},
{
glyphname = zero.Nnagari;
lastChange = "2021-11-05 10:04:10 +0000";
layers = (
{
layerId = "5370898B-AC2E-42A7-894F-0BCCE5AE0A77";
paths = (
{
closed = 1;
nodes = (
"492 -12 OFFCURVE",
"559 147 OFFCURVE",
"559 312 CURVE SMOOTH",
"559 475 OFFCURVE",
"485 632 OFFCURVE",
"302 632 CURVE SMOOTH",
"121 632 OFFCURVE",
"47 480 OFFCURVE",
"47 308 CURVE SMOOTH",
"47 139 OFFCURVE",
"124 -12 OFFCURVE",
"302 -12 CURVE SMOOTH"
);
},
{
closed = 1;
nodes = (
"199 59 OFFCURVE",
"125 145 OFFCURVE",
"125 308 CURVE SMOOTH",
"125 471 OFFCURVE",
"195 561 OFFCURVE",
"299 561 CURVE SMOOTH",
"411 561 OFFCURVE",
"481 472 OFFCURVE",
"481 312 CURVE SMOOTH",
"481 150 OFFCURVE",
"415 59 OFFCURVE",
"302 59 CURVE SMOOTH"
);
}
);
width = 649;
}
);
unicode = 0CE6;
script = "";
category = Number;
subCategory = "Decimal Digit";
},
{
glyphname = one.Nnagari;
lastChange = "2021-11-05 10:04:10 +0000";
layers = (
{
layerId = "5370898B-AC2E-42A7-894F-0BCCE5AE0A77";
paths = (
{
closed = 1;
nodes = (
"227 33 LINE",
"156 120 OFFCURVE",
"124 216 OFFCURVE",
"124 323 CURVE SMOOTH",
"124 455 OFFCURVE",
"182 559 OFFCURVE",
"306 559 CURVE SMOOTH",
"430 559 OFFCURVE",
"488 455 OFFCURVE",
"488 323 CURVE SMOOTH",
"488 213 OFFCURVE",
"447 111 OFFCURVE",
"384 33 CURVE",
"450 -13 LINE",
"522 80 OFFCURVE",
"567 190 OFFCURVE",
"567 319 CURVE SMOOTH",
"567 488 OFFCURVE",
"484 632 OFFCURVE",
"306 632 CURVE SMOOTH",
"134 632 OFFCURVE",
"45 491 OFFCURVE",
"45 320 CURVE SMOOTH",
"45 182 OFFCURVE",
"93 77 OFFCURVE",
"162 -13 CURVE"
);
}
);
width = 657;
}
);
unicode = 0CE7;
script = "";
category = Number;
subCategory = "Decimal Digit";
},
{
glyphname = two.Nnagari;
lastChange = "2021-11-05 10:04:10 +0000";
layers = (
{
layerId = "5370898B-AC2E-42A7-894F-0BCCE5AE0A77";
paths = (
{
closed = 1;
nodes = (
"252 0 LINE",
"475 0 OFFCURVE",
"574 103 OFFCURVE",
"574 329 CURVE SMOOTH",
"574 515 OFFCURVE",
"491 632 OFFCURVE",
"352 632 CURVE SMOOTH",
"247 632 OFFCURVE",
"175 572 OFFCURVE",
"175 473 CURVE SMOOTH",
"175 390 OFFCURVE",
"227 341 OFFCURVE",
"304 341 CURVE SMOOTH",
"392 341 OFFCURVE",
"417 396 OFFCURVE",
"417 440 CURVE SMOOTH",
"417 450 OFFCURVE",
"416 460 OFFCURVE",
"415 465 CURVE",
"347 460 LINE",
"347 430 OFFCURVE",
"334 410 OFFCURVE",
"303 410 CURVE SMOOTH",
"270 410 OFFCURVE",
"252 431 OFFCURVE",
"252 470 CURVE SMOOTH",
"252 524 OFFCURVE",
"282 562 OFFCURVE",
"352 562 CURVE SMOOTH",
"447 562 OFFCURVE",
"495 463 OFFCURVE",
"495 323 CURVE SMOOTH",
"495 135 OFFCURVE",
"420 73 OFFCURVE",
"230 73 CURVE SMOOTH",
"30 73 LINE",
"30 0 LINE"
);
}
);
width = 662;
}
);
unicode = 0CE8;
script = "";
category = Number;
subCategory = "Decimal Digit";
},
{
glyphname = three.Nnagari;
lastChange = "2021-11-05 10:04:10 +0000";
layers = (
{
layerId = "5370898B-AC2E-42A7-894F-0BCCE5AE0A77";
paths = (
{
closed = 1;
nodes = (
"568 -12 OFFCURVE",
"594 -6 OFFCURVE",
"619 6 CURVE",
"597 76 LINE",
"574 65 OFFCURVE",
"554 61 OFFCURVE",
"537 61 CURVE SMOOTH",
"486 61 OFFCURVE",
"451 87 OFFCURVE",
"388 189 CURVE",
"369 205 LINE",
"334 256 OFFCURVE",
"291 296 OFFCURVE",
"210 296 CURVE SMOOTH",
"125 296 OFFCURVE",
"65 246 OFFCURVE",
"65 165 CURVE SMOOTH",
"65 76 OFFCURVE",
"126 31 OFFCURVE",
"208 31 CURVE SMOOTH",
"361 31 OFFCURVE",
"438 187 OFFCURVE",
"438 358 CURVE SMOOTH",
"438 502 OFFCURVE",
"381 632 OFFCURVE",
"235 632 CURVE SMOOTH",
"136 632 OFFCURVE",
"81 568 OFFCURVE",
"81 493 CURVE SMOOTH",
"81 413 OFFCURVE",
"136 369 OFFCURVE",
"202 369 CURVE SMOOTH",
"283 369 OFFCURVE",
"309 419 OFFCURVE",
"309 459 CURVE SMOOTH",
"309 466 OFFCURVE",
"308 476 OFFCURVE",
"307 481 CURVE",
"242 476 LINE",
"242 451 OFFCURVE",
"235 436 OFFCURVE",
"201 436 CURVE SMOOTH",
"174 436 OFFCURVE",
"158 457 OFFCURVE",
"158 490 CURVE SMOOTH",
"158 528 OFFCURVE",
"185 561 OFFCURVE",
"233 561 CURVE SMOOTH",
"326 561 OFFCURVE",
"360 479 OFFCURVE",
"360 345 CURVE SMOOTH",
"360 215 OFFCURVE",
"312 100 OFFCURVE",
"213 100 CURVE SMOOTH",
"169 100 OFFCURVE",
"141 120 OFFCURVE",
"141 164 CURVE SMOOTH",
"141 206 OFFCURVE",
"175 229 OFFCURVE",
"216 229 CURVE SMOOTH",
"268 229 OFFCURVE",
"301 196 OFFCURVE",
"330 156 CURVE SMOOTH",
"352 125 LINE SMOOTH",
"409 45 OFFCURVE",
"450 -12 OFFCURVE",
"540 -12 CURVE SMOOTH"
);
}
);
width = 564;
}
);
unicode = 0CE9;
script = "";
category = Number;
subCategory = "Decimal Digit";
},
{
glyphname = four.Nnagari;
lastChange = "2021-11-05 10:04:10 +0000";
layers = (
{
layerId = "5370898B-AC2E-42A7-894F-0BCCE5AE0A77";
paths = (
{
closed = 1;
nodes = (
"439 -10 OFFCURVE",
"496 36 OFFCURVE",
"496 109 CURVE SMOOTH",
"496 159 OFFCURVE",
"466 187 OFFCURVE",
"432 203 CURVE",
"426 189 LINE",
"514 227 OFFCURVE",
"603 299 OFFCURVE",
"603 422 CURVE SMOOTH",
"603 522 OFFCURVE",
"539 596 OFFCURVE",
"467 634 CURVE",
"418 570 LINE",
"491 529 OFFCURVE",
"525 480 OFFCURVE",
"525 416 CURVE SMOOTH",
"525 337 OFFCURVE",
"464 266 OFFCURVE",
"350 235 CURVE",
"162 262 OFFCURVE",
"129 359 OFFCURVE",
"129 432 CURVE SMOOTH",
"129 515 OFFCURVE",
"165 567 OFFCURVE",
"229 567 CURVE SMOOTH",
"260 567 OFFCURVE",
"283 554 OFFCURVE",
"283 522 CURVE SMOOTH",
"283 486 OFFCURVE",
"260 462 OFFCURVE",
"200 462 CURVE SMOOTH",
"175 462 OFFCURVE",
"145 468 OFFCURVE",
"120 483 CURVE",
"114 417 LINE",
"137 404 OFFCURVE",
"177 396 OFFCURVE",
"210 396 CURVE SMOOTH",
"321 396 OFFCURVE",
"361 451 OFFCURVE",
"361 520 CURVE SMOOTH",
"361 601 OFFCURVE",
"303 634 OFFCURVE",
"234 634 CURVE SMOOTH",
"120 634 OFFCURVE",
"53 550 OFFCURVE",
"53 437 CURVE SMOOTH",
"53 298 OFFCURVE",
"135 218 OFFCURVE",
"270 180 CURVE",
"249 199 LINE",
"206 179 OFFCURVE",
"191 147 OFFCURVE",
"191 109 CURVE SMOOTH",
"191 42 OFFCURVE",
"239 -10 OFFCURVE",
"343 -10 CURVE SMOOTH"
);
},
{
closed = 1;
nodes = (
"285 58 OFFCURVE",
"266 83 OFFCURVE",
"266 111 CURVE SMOOTH",
"266 145 OFFCURVE",
"301 168 OFFCURVE",
"344 173 CURVE",
"389 165 OFFCURVE",
"422 145 OFFCURVE",
"422 112 CURVE SMOOTH",
"422 78 OFFCURVE",
"393 58 OFFCURVE",
"343 58 CURVE SMOOTH"
);
}
);
width = 676;
}
);
unicode = 0CEA;
script = "";
category = Number;
subCategory = "Decimal Digit";
},
{
glyphname = five.Nnagari;
lastChange = "2021-11-05 10:04:10 +0000";
layers = (
{
layerId = "5370898B-AC2E-42A7-894F-0BCCE5AE0A77";
paths = (
{
closed = 1;
nodes = (
"301 -7 OFFCURVE",
"362 79 OFFCURVE",
"362 251 CURVE SMOOTH",
"362 500 OFFCURVE",
"310 633 OFFCURVE",
"185 633 CURVE SMOOTH",
"111 633 OFFCURVE",
"50 591 OFFCURVE",
"50 508 CURVE SMOOTH",
"50 415 OFFCURVE",
"106 380 OFFCURVE",
"184 373 CURVE",
"192 445 LINE",
"150 448 OFFCURVE",
"124 467 OFFCURVE",
"124 507 CURVE SMOOTH",
"124 548 OFFCURVE",
"151 565 OFFCURVE",
"183 565 CURVE SMOOTH",
"264 565 OFFCURVE",
"284 381 OFFCURVE",
"284 244 CURVE SMOOTH",
"284 104 OFFCURVE",
"242 63 OFFCURVE",
"188 63 CURVE SMOOTH",
"154 63 OFFCURVE",
"125 84 OFFCURVE",
"125 132 CURVE SMOOTH",
"125 197 OFFCURVE",
"164 251 OFFCURVE",
"342 295 CURVE SMOOTH",
"500 334 LINE",
"594 369 OFFCURVE",
"634 431 OFFCURVE",
"634 507 CURVE SMOOTH",
"634 581 OFFCURVE",
"593 633 OFFCURVE",
"511 633 CURVE SMOOTH",
"434 633 OFFCURVE",
"387 586 OFFCURVE",
"387 505 CURVE SMOOTH",
"387 453 OFFCURVE",
"411 401 OFFCURVE",
"442 350 CURVE",
"453 333 LINE",
"503 254 OFFCURVE",
"520 211 OFFCURVE",
"520 156 CURVE SMOOTH",
"520 111 OFFCURVE",
"499 80 OFFCURVE",
"465 48 CURVE",
"531 -7 LINE",
"575 43 OFFCURVE",
"598 84 OFFCURVE",
"598 149 CURVE SMOOTH",
"598 232 OFFCURVE",
"560 296 OFFCURVE",
"520 356 CURVE",
"473 418 OFFCURVE",
"456 464 OFFCURVE",
"456 506 CURVE SMOOTH",
"456 543 OFFCURVE",
"477 565 OFFCURVE",
"509 565 CURVE SMOOTH",
"537 565 OFFCURVE",
"556 548 OFFCURVE",
"556 506 CURVE SMOOTH",
"556 445 OFFCURVE",
"520 407 OFFCURVE",
"444 384 CURVE",
"322 357 LINE SMOOTH",
"109 310 OFFCURVE",
"51 219 OFFCURVE",
"51 133 CURVE SMOOTH",
"51 56 OFFCURVE",
"96 -7 OFFCURVE",
"184 -7 CURVE SMOOTH"
);
}
);
width = 719;
}
);
unicode = 0CEB;
script = "";
category = Number;
subCategory = "Decimal Digit";
},
{
glyphname = six.Nnagari;
lastChange = "2021-11-05 10:04:10 +0000";
layers = (
{
layerId = "5370898B-AC2E-42A7-894F-0BCCE5AE0A77";
paths = (
{
closed = 1;
nodes = (
"587 0 LINE",
"587 71 LINE",
"336 71 LINE SMOOTH",
"186 71 OFFCURVE",
"125 121 OFFCURVE",
"125 230 CURVE SMOOTH",
"125 284 OFFCURVE",
"146 326 OFFCURVE",
"178 352 CURVE",
"206 365 LINE",
"228 375 OFFCURVE",
"254 383 OFFCURVE",
"282 383 CURVE SMOOTH",
"345 383 OFFCURVE",
"365 357 OFFCURVE",
"365 328 CURVE SMOOTH",
"365 300 OFFCURVE",
"346 274 OFFCURVE",
"299 274 CURVE SMOOTH",
"240 274 OFFCURVE",
"225 309 OFFCURVE",
"225 351 CURVE SMOOTH",
"225 379 OFFCURVE",
"234 409 OFFCURVE",
"244 441 CURVE SMOOTH",
"254 473 OFFCURVE",
"262 506 OFFCURVE",
"262 539 CURVE SMOOTH",
"262 589 OFFCURVE",
"236 631 OFFCURVE",
"164 631 CURVE SMOOTH",
"132 631 OFFCURVE",
"103 626 OFFCURVE",
"76 616 CURVE",
"92 550 LINE",
"111 556 OFFCURVE",
"130 559 OFFCURVE",
"147 559 CURVE SMOOTH",
"171 559 OFFCURVE",
"186 544 OFFCURVE",
"186 515 CURVE SMOOTH",
"186 485 OFFCURVE",
"177 452 OFFCURVE",
"169 427 CURVE SMOOTH",
"160 400 OFFCURVE",
"156 372 OFFCURVE",
"156 336 CURVE SMOOTH",
"156 279 OFFCURVE",
"191 206 OFFCURVE",
"297 206 CURVE SMOOTH",
"400 206 OFFCURVE",
"442 263 OFFCURVE",
"442 331 CURVE SMOOTH",
"442 390 OFFCURVE",
"405 453 OFFCURVE",
"289 453 CURVE SMOOTH",
"262 453 OFFCURVE",
"236 448 OFFCURVE",
"212 439 CURVE",
"184 428 LINE",
"106 397 OFFCURVE",
"52 320 OFFCURVE",
"52 225 CURVE SMOOTH",
"52 90 OFFCURVE",
"130 0 OFFCURVE",
"325 0 CURVE SMOOTH"
);
}
);
width = 562;
}
);
unicode = 0CEC;
script = "";
category = Number;
subCategory = "Decimal Digit";
},
{
glyphname = seven.Nnagari;
lastChange = "2021-11-05 10:04:10 +0000";
layers = (
{
layerId = "5370898B-AC2E-42A7-894F-0BCCE5AE0A77";
paths = (
{
closed = 1;
nodes = (
"586 0 LINE",
"586 71 LINE",
"275 71 LINE SMOOTH",
"165 71 OFFCURVE",
"130 99 OFFCURVE",
"130 158 CURVE SMOOTH",
"130 219 OFFCURVE",
"188 251 OFFCURVE",
"250 284 CURVE SMOOTH",
"327 325 OFFCURVE",
"410 373 OFFCURVE",
"410 488 CURVE SMOOTH",
"410 583 OFFCURVE",
"347 630 OFFCURVE",
"255 630 CURVE SMOOTH",
"156 630 OFFCURVE",
"99 576 OFFCURVE",
"99 509 CURVE SMOOTH",
"99 434 OFFCURVE",
"153 390 OFFCURVE",
"222 390 CURVE",
"229 459 LINE",
"192 461 OFFCURVE",
"176 480 OFFCURVE",
"176 504 CURVE SMOOTH",
"176 545 OFFCURVE",
"216 562 OFFCURVE",
"253 562 CURVE SMOOTH",
"300 562 OFFCURVE",
"332 534 OFFCURVE",
"332 487 CURVE SMOOTH",
"332 413 OFFCURVE",
"272 381 OFFCURVE",
"206 345 CURVE SMOOTH",
"132 305 OFFCURVE",
"52 260 OFFCURVE",
"52 158 CURVE SMOOTH",
"52 32 OFFCURVE",
"133 0 OFFCURVE",
"277 0 CURVE SMOOTH"
);
}
);
width = 586;
}
);
unicode = 0CED;
script = "";
category = Number;
subCategory = "Decimal Digit";
},
{
glyphname = eight.Nnagari;
lastChange = "2021-11-05 10:04:10 +0000";
layers = (
{
layerId = "5370898B-AC2E-42A7-894F-0BCCE5AE0A77";
paths = (
{
closed = 1;
nodes = (
"482 -5 OFFCURVE",
"585 63 OFFCURVE",
"585 212 CURVE SMOOTH",
"585 287 OFFCURVE",
"557 354 OFFCURVE",
"534 409 CURVE SMOOTH",
"517 450 OFFCURVE",
"503 485 OFFCURVE",
"503 513 CURVE SMOOTH",
"503 544 OFFCURVE",
"528 548 OFFCURVE",
"572 548 CURVE SMOOTH",
"615 548 LINE",
"615 622 LINE",
"571 622 LINE SMOOTH",
"515 622 OFFCURVE",
"483 616 OFFCURVE",
"459 596 CURVE SMOOTH",
"438 579 OFFCURVE",
"425 555 OFFCURVE",
"425 520 CURVE SMOOTH",
"425 469 OFFCURVE",
"443 424 OFFCURVE",
"463 377 CURVE SMOOTH",
"484 328 OFFCURVE",
"506 275 OFFCURVE",
"506 212 CURVE SMOOTH",
"506 135 OFFCURVE",
"463 67 OFFCURVE",
"353 67 CURVE SMOOTH",
"187 67 OFFCURVE",
"142 235 OFFCURVE",
"142 364 CURVE SMOOTH",
"142 490 OFFCURVE",
"191 567 OFFCURVE",
"255 567 CURVE SMOOTH",
"289 567 OFFCURVE",
"303 549 OFFCURVE",
"303 522 CURVE SMOOTH",
"303 484 OFFCURVE",
"280 463 OFFCURVE",
"220 463 CURVE SMOOTH",
"192 463 OFFCURVE",
"166 469 OFFCURVE",
"141 483 CURVE",
"131 419 LINE",
"155 406 OFFCURVE",
"198 397 OFFCURVE",
"230 397 CURVE SMOOTH",
"341 397 OFFCURVE",
"381 452 OFFCURVE",
"381 519 CURVE SMOOTH",
"381 589 OFFCURVE",
"337 633 OFFCURVE",
"260 633 CURVE SMOOTH",
"156 633 OFFCURVE",
"65 549 OFFCURVE",
"65 364 CURVE SMOOTH",
"65 202 OFFCURVE",
"129 -5 OFFCURVE",
"354 -5 CURVE SMOOTH"
);
}
);
width = 690;
}
);
unicode = 0CEE;
script = "";
category = Number;
subCategory = "Decimal Digit";
},
{
glyphname = nine.Nnagari;
lastChange = "2021-11-05 10:04:10 +0000";
layers = (
{
layerId = "5370898B-AC2E-42A7-894F-0BCCE5AE0A77";
paths = (
{
closed = 1;
nodes = (
"286 0 LINE",
"286 70 LINE",
"270 70 LINE SMOOTH",
"194 70 OFFCURVE",
"121 103 OFFCURVE",
"121 206 CURVE SMOOTH",
"121 238 OFFCURVE",
"130 263 OFFCURVE",
"144 283 CURVE SMOOTH",
"172 324 OFFCURVE",
"222 346 OFFCURVE",
"268 346 CURVE SMOOTH",
"311 346 OFFCURVE",
"326 331 OFFCURVE",
"326 308 CURVE SMOOTH",
"326 280 OFFCURVE",
"300 270 OFFCURVE",
"268 270 CURVE SMOOTH",
"207 270 OFFCURVE",
"169 298 OFFCURVE",
"147 334 CURVE SMOOTH",
"132 358 OFFCURVE",
"125 384 OFFCURVE",
"125 409 CURVE SMOOTH",
"125 529 OFFCURVE",
"213 552 OFFCURVE",
"354 552 CURVE SMOOTH",
"575 552 LINE",
"575 622 LINE",
"325 622 LINE SMOOTH",
"156 622 OFFCURVE",
"50 562 OFFCURVE",
"50 424 CURVE SMOOTH",
"50 374 OFFCURVE",
"68 327 OFFCURVE",
"101 285 CURVE SMOOTH",
"143 232 OFFCURVE",
"200 203 OFFCURVE",
"268 203 CURVE SMOOTH",
"357 203 OFFCURVE",
"398 246 OFFCURVE",
"398 308 CURVE SMOOTH",
"398 376 OFFCURVE",
"356 414 OFFCURVE",
"276 414 CURVE SMOOTH",
"200 414 OFFCURVE",
"149 385 OFFCURVE",
"107 340 CURVE SMOOTH",
"72 302 OFFCURVE",
"50 252 OFFCURVE",
"50 201 CURVE SMOOTH",
"50 71 OFFCURVE",
"148 0 OFFCURVE",
"277 0 CURVE SMOOTH"
);
}
);
width = 565;
}
);
unicode = 0CEF;
script = "";
category = Number;
subCategory = "Decimal Digit";
},
{
glyphname = Danda.Nnagari;
lastChange = "2021-11-05 10:04:10 +0000";
layers = (
{
layerId = "5370898B-AC2E-42A7-894F-0BCCE5AE0A77";
paths = (
{
closed = 1;
nodes = (
"154 0 LINE",
"154 622 LINE",
"76 622 LINE",
"76 0 LINE"
);
}
);
width = 269;
}
);
unicode = 0964;
script = "";
category = Letter;
subCategory = Other;
},
{
glyphname = Doubledanda.Nnagari;
lastChange = "2021-11-05 10:04:10 +0000";
layers = (
{
layerId = "5370898B-AC2E-42A7-894F-0BCCE5AE0A77";
paths = (
{
closed = 1;
nodes = (
"423 0 LINE",
"423 622 LINE",
"345 622 LINE",
"345 0 LINE"
);
},
{
closed = 1;
nodes = (
"154 0 LINE",
"154 622 LINE",
"76 622 LINE",
"76 0 LINE"
);
}
);
width = 538;
}
);
unicode = 0965;
script = "";
category = Letter;
subCategory = Other;
},
{
glyphname = Onequarter.Nnagari;
lastChange = "2021-11-05 10:04:10 +0000";
layers = (
{
layerId = "5370898B-AC2E-42A7-894F-0BCCE5AE0A77";
paths = (
{
closed = 1;
nodes = (
"203 0 LINE",
"203 622 LINE",
"125 622 LINE",
"125 0 LINE"
);
}
);
width = 328;
}
);
unicode = A830;
},
{
glyphname = Onehalf.Nnagari;
lastChange = "2021-11-05 10:04:10 +0000";
layers = (
{
layerId = "5370898B-AC2E-42A7-894F-0BCCE5AE0A77";
paths = (
{
closed = 1;
nodes = (
"442 0 LINE",
"442 622 LINE",
"364 622 LINE",
"364 0 LINE"
);
},
{
closed = 1;
nodes = (
"203 0 LINE",
"203 622 LINE",
"125 622 LINE",
"125 0 LINE"
);
}
);
width = 567;
}
);
unicode = A831;
},
{
glyphname = Threequarter.Nnagari;
lastChange = "2021-11-05 10:04:10 +0000";
layers = (
{
layerId = "5370898B-AC2E-42A7-894F-0BCCE5AE0A77";
paths = (
{
closed = 1;
nodes = (
"681 0 LINE",
"681 622 LINE",
"603 622 LINE",
"603 0 LINE"
);
},
{
closed = 1;
nodes = (
"203 0 LINE",
"203 622 LINE",
"125 622 LINE",
"125 0 LINE"
);
},
{
closed = 1;
nodes = (
"442 0 LINE",
"442 622 LINE",
"364 622 LINE",
"364 0 LINE"
);
}
);
width = 806;
}
);
unicode = A832;
},
{
glyphname = Onesixteenth.Nnagari;
lastChange = "2021-11-05 10:04:10 +0000";
layers = (
{
layerId = "5370898B-AC2E-42A7-894F-0BCCE5AE0A77";
paths = (
{
closed = 1;
nodes = (
"692 337 LINE",
"692 418 LINE",
"115 262 LINE",
"115 181 LINE"
);
}
);
width = 807;
}
);
unicode = A833;
},
{
glyphname = Oneeight.Nnagari;
lastChange = "2021-11-05 10:04:10 +0000";
layers = (
{
layerId = "5370898B-AC2E-42A7-894F-0BCCE5AE0A77";
paths = (
{
closed = 1;
nodes = (
"692 457 LINE",
"692 538 LINE",
"115 382 LINE",
"115 301 LINE"
);
},
{
closed = 1;
nodes = (
"692 217 LINE",
"692 298 LINE",
"115 142 LINE",
"115 61 LINE"
);
}
);
width = 807;
}
);
unicode = A834;
},
{
glyphname = Threesixteenths.Nnagari;
lastChange = "2021-11-05 10:04:10 +0000";
layers = (
{
layerId = "5370898B-AC2E-42A7-894F-0BCCE5AE0A77";
paths = (
{
closed = 1;
nodes = (
"692 537 LINE",
"692 618 LINE",
"115 462 LINE",
"115 381 LINE"
);
},
{
closed = 1;
nodes = (
"692 137 LINE",
"692 218 LINE",
"115 62 LINE",
"115 -19 LINE"
);
},
{
closed = 1;
nodes = (
"692 337 LINE",
"692 418 LINE",
"115 262 LINE",
"115 181 LINE"
);
}
);
width = 807;
}
);
unicode = A835;
},
{
color = 10;
glyphname = KaSsa.Nnagari;
lastChange = "2021-11-05 10:04:10 +0000";
layers = (
{
anchors = (
{
name = bottom;
position = "{617, 0}";
}
);
components = (
{
name = Da.Nnagari;
}
);
layerId = "5370898B-AC2E-42A7-894F-0BCCE5AE0A77";
paths = (
{
closed = 1;
nodes = (
"656 0 LINE",
"656 324 LINE",
"323 324 LINE",
"323 256 LINE",
"578 256 LINE",
"578 0 LINE"
);
}
);
width = 751;
}
);
leftMetricsKey = Da.Nnagari;
rightKerningGroup = KaSsaRight;
rightMetricsKey = Ka.Nnagari;
script = "";
category = Letter;
subCategory = Other;
},
{
color = 10;
glyphname = KaSsaNna.Nnagari;
lastChange = "2021-11-05 10:04:10 +0000";
layers = (
{
anchors = (
{
name = bottom;
position = "{621, -101}";
},
{
name = top;
position = "{328, 602}";
}
);
components = (
{
alignment = -1;
name = _Nna.half;
transform = "{1, 0, 0, 1, -90, 0}";
}
);
layerId = "5370898B-AC2E-42A7-894F-0BCCE5AE0A77";
paths = (
{
closed = 1;
nodes = (
"385 135 LINE",
"385 285 LINE SMOOTH",
"385 385 OFFCURVE",
"327 424 OFFCURVE",
"229 424 CURVE SMOOTH",
"58 424 LINE",
"58 356 LINE",
"224 356 LINE SMOOTH",
"281 356 OFFCURVE",
"307 338 OFFCURVE",
"307 280 CURVE SMOOTH",
"307 135 LINE"
);
},
{
closed = 1;
nodes = (
"114 392 LINE",
"214 426 OFFCURVE",
"327 514 OFFCURVE",
"361 558 CURVE",
"361 591 LINE",
"291 591 LINE",
"260 543 OFFCURVE",
"147 467 OFFCURVE",
"58 431 CURVE",
"58 392 LINE"
);
},
{
closed = 1;
nodes = (
"660 137 LINE",
"660 389 LINE",
"327 389 LINE",
"327 321 LINE",
"582 321 LINE",
"582 137 LINE"
);
},
{
closed = 1;
nodes = (
"361 558 LINE",
"361 622 LINE",
"29 622 LINE",
"29 558 LINE"
);
}
);
width = 755;
}
);
leftMetricsKey = Da.Nnagari;
rightMetricsKey = Ka.Nnagari;
script = "";
category = Letter;
subCategory = Other;
},
{
color = 10;
glyphname = KaSsaMa.Nnagari;
lastChange = "2021-11-05 10:04:10 +0000";
layers = (
{
anchors = (
{
name = bottom;
position = "{955, 0}";
},
{
name = top;
position = "{961, 602}";
}
);
components = (
{
name = Da.Nnagari;
},
{
name = _Danda;
transform = "{1, 0, 0, 1, 840, 0}";
},
{
name = _part.Shirorekha;
transform = "{1, 0, 0, 1, 942, 0}";
}
);
layerId = "5370898B-AC2E-42A7-894F-0BCCE5AE0A77";
paths = (
{
closed = 1;
nodes = (
"741 5 OFFCURVE",
"793 53 OFFCURVE",
"793 133 CURVE",
"793 198 OFFCURVE",
"756 253 OFFCURVE",
"692 283 CURVE",
"633 256 LINE",
"680 232 OFFCURVE",
"715 188 OFFCURVE",
"715 137 CURVE",
"715 92 OFFCURVE",
"689 75 OFFCURVE",
"655 75 CURVE",
"617 75 OFFCURVE",
"592 102 OFFCURVE",
"592 142 CURVE",
"592 224 OFFCURVE",
"658 254 OFFCURVE",
"849 254 CURVE",
"980 254 LINE",
"980 326 LINE",
"833 326 LINE",
"616 326 OFFCURVE",
"514 266 OFFCURVE",
"514 142 CURVE",
"514 58 OFFCURVE",
"574 5 OFFCURVE",
"655 5 CURVE"
);
},
{
closed = 1;
nodes = (
"690 297 LINE",
"645 335 OFFCURVE",
"584 360 OFFCURVE",
"493 360 CURVE SMOOTH",
"309 360 LINE",
"309 290 LINE",
"498 290 LINE SMOOTH",
"562 290 OFFCURVE",
"601 278 OFFCURVE",
"629 257 CURVE"
);
}
);
width = 1109;
}
);
leftMetricsKey = Da.Nnagari;
rightMetricsKey = MatraAa.Nnagari;
script = "";
category = Letter;
subCategory = Other;
},
{
color = 10;
glyphname = KaSsaRa.Nnagari;
lastChange = "2021-11-05 10:04:10 +0000";
layers = (
{
anchors = (
{
name = bottom;
position = "{667, 0}";
}
);
components = (
{
name = Da.Nnagari;
},
{
name = _part.Ra;
piece = {
Width = 53.61915;
};
transform = "{1, 0, 0, 1, 196, -184}";
}
);
layerId = "5370898B-AC2E-42A7-894F-0BCCE5AE0A77";
paths = (
{
closed = 1;
nodes = (
"706 0 LINE",
"706 324 LINE",
"323 324 LINE",
"323 256 LINE",
"628 256 LINE",
"628 0 LINE"
);
}
);
width = 801;
}
);
leftMetricsKey = Da.Nnagari;
rightKerningGroup = KaSsaRight;
rightMetricsKey = Ka.Nnagari;
script = "";
category = Letter;
subCategory = Other;
},
{
color = 10;
glyphname = KaSsaVa.Nnagari;
lastChange = "2021-11-05 10:04:10 +0000";
layers = (
{
anchors = (
{
name = bottom;
position = "{721, -101}";
}
);
components = (
{
name = _KaSsa.wide;
},
{
name = _part.Va;
piece = {
wide = -50;
};
transform = "{1, 0, 0, 1, 200, -59}";
}
);
layerId = "5370898B-AC2E-42A7-894F-0BCCE5AE0A77";
paths = (
{
closed = 1;
nodes = (
"760 -101 LINE",
"760 55 LINE",
"682 55 LINE",
"682 -101 LINE"
);
}
);
width = 855;
}
);
leftMetricsKey = Da.Nnagari;
rightMetricsKey = Ka.Nnagari;
script = "";
category = Letter;
subCategory = Other;
},
{
color = 10;
glyphname = GaDha.Nnagari;
lastChange = "2021-11-05 10:04:10 +0000";
layers = (
{
anchors = (
{
name = bottom;
position = "{1108, 0}";
},
{
name = top;
position = "{990, 602}";
}
);
layerId = "5370898B-AC2E-42A7-894F-0BCCE5AE0A77";
paths = (
{
closed = 1;
nodes = (
"655 295 OFFCURVE",
"703 337 OFFCURVE",
"703 413 CURVE SMOOTH",
"703 512 OFFCURVE",
"629 561 OFFCURVE",
"553 567 CURVE",
"545 516 LINE",
"582 512 OFFCURVE",
"627 472 OFFCURVE",
"627 415 CURVE SMOOTH",
"627 382 OFFCURVE",
"610 365 OFFCURVE",
"582 365 CURVE SMOOTH",
"556 365 OFFCURVE",
"531 385 OFFCURVE",
"531 437 CURVE SMOOTH",
"531 475 OFFCURVE",
"546 512 OFFCURVE",
"571 531 CURVE SMOOTH",
"576 535 OFFCURVE",
"582 539 OFFCURVE",
"589 542 CURVE SMOOTH",
"606 550 OFFCURVE",
"627 555 OFFCURVE",
"651 555 CURVE SMOOTH",
"740 555 OFFCURVE",
"786 491 OFFCURVE",
"790 405 CURVE SMOOTH",
"792 365 LINE",
"870 365 LINE",
"872 415 LINE SMOOTH",
"876 505 OFFCURVE",
"906 555 OFFCURVE",
"970 555 CURVE SMOOTH",
"1034 555 OFFCURVE",
"1069 507 OFFCURVE",
"1069 421 CURVE SMOOTH",
"1069 337 LINE",
"1147 337 LINE",
"1147 423 LINE SMOOTH",
"1147 555 OFFCURVE",
"1086 627 OFFCURVE",
"975 627 CURVE SMOOTH",
"873 627 OFFCURVE",
"816 559 OFFCURVE",
"816 437 CURVE",
"846 443 LINE",
"846 555 OFFCURVE",
"767 627 OFFCURVE",
"654 627 CURVE SMOOTH",
"542 627 OFFCURVE",
"455 556 OFFCURVE",
"455 435 CURVE SMOOTH",
"455 340 OFFCURVE",
"509 295 OFFCURVE",
"582 295 CURVE SMOOTH"
);
},
{
closed = 1;
nodes = (
"286 236 OFFCURVE",
"333 276 OFFCURVE",
"333 370 CURVE",
"333 442 OFFCURVE",
"324 523 OFFCURVE",
"314 597 CURVE",
"241 594 LINE",
"252 522 OFFCURVE",
"260 446 OFFCURVE",
"260 370 CURVE",
"260 317 OFFCURVE",
"240 298 OFFCURVE",
"208 298 CURVE",
"174 298 OFFCURVE",
"154 318 OFFCURVE",
"154 347 CURVE",
"154 383 OFFCURVE",
"186 407 OFFCURVE",
"284 407 CURVE",
"282 471 LINE",
"136 471 OFFCURVE",
"81 420 OFFCURVE",
"81 346 CURVE",
"81 279 OFFCURVE",
"134 236 OFFCURVE",
"209 236 CURVE"
);
},
{
closed = 1;
nodes = (
"555 586 LINE",
"518 610 OFFCURVE",
"451 622 OFFCURVE",
"372 622 CURVE",
"60 622 LINE",
"60 558 LINE",
"379 558 LINE",
"434 558 OFFCURVE",
"484 554 OFFCURVE",
"534 531 CURVE"
);
},
{
closed = 1;
nodes = (
"1147 0 LINE",
"1147 362 LINE",
"1069 362 LINE",
"1069 0 LINE"
);
}
);
width = 1262;
}
);
leftMetricsKey = Ga.Nnagari;
rightMetricsKey = MatraAa.Nnagari;
script = "";
category = Letter;
subCategory = Other;
},
{
color = 10;
glyphname = GhaGha.Nnagari;
lastChange = "2021-11-05 10:04:10 +0000";
layers = (
{
anchors = (
{
name = bottom;
position = "{1247, 0}";
},
{
name = top;
position = "{1253, 602}";
}
);
components = (
{
name = Gha.Nnagari;
}
);
layerId = "5370898B-AC2E-42A7-894F-0BCCE5AE0A77";
paths = (
{
closed = 1;
nodes = (
"947 220 OFFCURVE",
"987 345 OFFCURVE",
"987 418 CURVE",
"932 418 LINE",
"932 345 OFFCURVE",
"974 225 OFFCURVE",
"1102 225 CURVE SMOOTH",
"1185 225 OFFCURVE",
"1229 267 OFFCURVE",
"1249 326 CURVE",
"1213 382 LINE",
"1202 332 OFFCURVE",
"1172 297 OFFCURVE",
"1107 297 CURVE SMOOTH",
"1022 297 OFFCURVE",
"998 371 OFFCURVE",
"998 427 CURVE SMOOTH",
"998 496 LINE",
"922 496 LINE",
"922 427 LINE SMOOTH",
"922 355 OFFCURVE",
"891 292 OFFCURVE",
"817 292 CURVE SMOOTH",
"741 292 OFFCURVE",
"712 348 OFFCURVE",
"712 440 CURVE SMOOTH",
"712 586 LINE",
"664 586 LINE",
"664 440 LINE SMOOTH",
"664 318 OFFCURVE",
"700 220 OFFCURVE",
"817 220 CURVE SMOOTH"
);
},
{
closed = 1;
nodes = (
"1247 558 LINE",
"1247 622 LINE",
"664 622 LINE",
"664 558 LINE"
);
},
{
closed = 1;
nodes = (
"1286 0 LINE",
"1286 622 LINE",
"1208 622 LINE",
"1208 0 LINE"
);
}
);
width = 1401;
}
);
leftMetricsKey = Gha.Nnagari;
rightMetricsKey = MatraAa.Nnagari;
script = "";
category = Letter;
subCategory = Other;
},
{
color = 10;
glyphname = NgaGa.Nnagari;
lastChange = "2021-11-05 10:04:10 +0000";
layers = (
{
components = (
{
name = _Nga.half;
transform = "{1, 0, 0, 1, 10, 0}";
}
);
layerId = "5370898B-AC2E-42A7-894F-0BCCE5AE0A77";
paths = (
{
closed = 1;
nodes = (
"332 -186 OFFCURVE",
"379 -146 OFFCURVE",
"379 -50 CURVE",
"379 25 OFFCURVE",
"367 141 OFFCURVE",
"356 218 CURVE",
"282 215 LINE",
"294 140 OFFCURVE",
"306 29 OFFCURVE",
"306 -50 CURVE",
"306 -104 OFFCURVE",
"286 -124 OFFCURVE",
"252 -124 CURVE",
"218 -124 OFFCURVE",
"198 -104 OFFCURVE",
"198 -74 CURVE",
"198 -37 OFFCURVE",
"230 -12 OFFCURVE",
"331 -12 CURVE",
"329 52 LINE",
"181 52 OFFCURVE",
"124 0 OFFCURVE",
"124 -75 CURVE",
"124 -144 OFFCURVE",
"178 -186 OFFCURVE",
"253 -186 CURVE"
);
}
);
width = 766;
}
);
script = "";
category = Letter;
subCategory = Other;
},
{
color = 10;
glyphname = NgaMa.Nnagari;
lastChange = "2021-11-05 10:04:10 +0000";
layers = (
{
components = (
{
name = _Nga.half;
transform = "{1, 0, 0, 1, 10, 0}";
}
);
layerId = "5370898B-AC2E-42A7-894F-0BCCE5AE0A77";
paths = (
{
closed = 1;
nodes = (
"302 -186 OFFCURVE",
"347 -148 OFFCURVE",
"347 -68 CURVE SMOOTH",
"347 22 OFFCURVE",
"337 115 OFFCURVE",
"327 202 CURVE",
"250 202 LINE",
"262 115 OFFCURVE",
"270 27 OFFCURVE",
"270 -60 CURVE SMOOTH",
"270 -104 OFFCURVE",
"255 -118 OFFCURVE",
"230 -118 CURVE SMOOTH",
"202 -118 OFFCURVE",
"188 -101 OFFCURVE",
"188 -77 CURVE SMOOTH",
"188 -24 OFFCURVE",
"232 -6 OFFCURVE",
"368 -6 CURVE SMOOTH",
"554 -6 LINE",
"554 65 LINE",
"368 65 LINE SMOOTH",
"179 65 OFFCURVE",
"111 19 OFFCURVE",
"111 -79 CURVE SMOOTH",
"111 -144 OFFCURVE",
"160 -186 OFFCURVE",
"231 -186 CURVE SMOOTH"
);
}
);
width = 766;
}
);
script = "";
category = Letter;
subCategory = Other;
},
{
color = 10;
glyphname = CaCha.Nnagari;
lastChange = "2021-11-05 10:04:10 +0000";
layers = (
{
anchors = (
{
name = top;
position = "{490, 602}";
}
);
components = (
{
name = _Cha.bottom;
transform = "{1, 0, 0, 1, 59, 98}";
},
{
name = _part.Shirorekha;
piece = {
Scale = -16.87721;
};
transform = "{1, 0, 0, 1, 455, 0}";
},
{
name = _part.Ca;
piece = {
Small = -58.1907;
};
transform = "{1, 0, 0, 1, 11, 125}";
}
);
layerId = "5370898B-AC2E-42A7-894F-0BCCE5AE0A77";
paths = (
{
closed = 1;
nodes = (
"523 160 LINE",
"523 622 LINE",
"449 622 LINE",
"449 160 LINE"
);
}
);
width = 866;
}
);
leftMetricsKey = Ca.Nnagari;
rightKerningGroup = CaChaRight;
rightMetricsKey = Ddha.Nnagari;
script = "";
category = Letter;
subCategory = Other;
},
{
color = 10;
glyphname = CaChaRa.Nnagari;
lastChange = "2021-11-05 10:04:10 +0000";
layers = (
{
anchors = (
{
name = bottom;
position = "{484, -341}";
}
);
components = (
{
name = _part.Ra;
piece = {
Width = -85.52617;
};
transform = "{1, 0, 0, 1, 41, -532}";
},
{
name = CaCha.Nnagari;
}
);
layerId = "5370898B-AC2E-42A7-894F-0BCCE5AE0A77";
paths = (
{
closed = 1;
nodes = (
"522 -341 LINE",
"522 -68 LINE",
"448 -68 LINE",
"448 -341 LINE"
);
}
);
width = 866;
}
);
leftMetricsKey = Ca.Nnagari;
rightKerningGroup = CaChaRight;
rightMetricsKey = Ddha.Nnagari;
script = "";
category = Letter;
subCategory = Other;
},
{
color = 10;
glyphname = CaChaLa.Nnagari;
lastChange = "2021-11-05 10:04:10 +0000";
layers = (
{
anchors = (
{
name = bottom;
position = "{487, -400}";
}
);
components = (
{
name = _part.La;
piece = {
Scale = 20;
};
transform = "{1, 0, 0, 1, -161, -400}";
},
{
name = CaCha.Nnagari;
}
);
layerId = "5370898B-AC2E-42A7-894F-0BCCE5AE0A77";
paths = (
{
closed = 1;
nodes = (
"525 -400 LINE",
"525 -90 LINE",
"451 -90 LINE",
"451 -400 LINE"
);
}
);
width = 866;
}
);
leftMetricsKey = Ca.Nnagari;
rightKerningGroup = CaChaRight;
rightMetricsKey = Ddha.Nnagari;
script = "";
category = Letter;
subCategory = Other;
},
{
color = 10;
glyphname = CaChaVa.Nnagari;
lastChange = "2021-11-05 10:04:10 +0000";
layers = (
{
anchors = (
{
name = bottom;
position = "{485, -400}";
}
);
components = (
{
name = CaCha.Nnagari;
},
{
name = _part.Va;
piece = {
wide = -69.17237;
};
transform = "{1, 0, 0, 1, -41, -393}";
}
);
layerId = "5370898B-AC2E-42A7-894F-0BCCE5AE0A77";
paths = (
{
closed = 1;
nodes = (
"523 -400 LINE",
"523 -88 LINE",
"449 -88 LINE",
"449 -400 LINE"
);
}
);
width = 866;
}
);
leftMetricsKey = Ca.Nnagari;
rightKerningGroup = CaChaRight;
rightMetricsKey = Ddha.Nnagari;
script = "";
category = Letter;
subCategory = Other;
},
{
color = 10;
glyphname = CaVa.Nnagari;
lastChange = "2021-11-05 10:04:10 +0000";
layers = (
{
anchors = (
{
name = bottom;
position = "{486, -241}";
}
);
components = (
{
name = _Ca.half;
},
{
name = _part.Va;
piece = {
wide = 70;
};
transform = "{1, 0, 0, 1, -33, -197}";
}
);
layerId = "5370898B-AC2E-42A7-894F-0BCCE5AE0A77";
paths = (
{
closed = 1;
nodes = (
"524 -241 LINE",
"524 -37 LINE",
"450 -37 LINE",
"450 -241 LINE"
);
}
);
width = 639;
}
);
leftMetricsKey = Ca.Nnagari;
rightMetricsKey = MatraAa.Nnagari;
script = "";
category = Letter;
subCategory = Other;
},
{
color = 10;
glyphname = ChaRa.Nnagari;
lastChange = "2021-11-05 10:04:10 +0000";
layers = (
{
anchors = (
{
name = bottom;
position = "{383, -241}";
},
{
name = top;
position = "{390, 602}";
}
);
components = (
{
name = _part.Ra;
piece = {
Width = -70;
};
transform = "{1, 0, 0, 1, -85, -385}";
},
{
name = _Cha;
}
);
layerId = "5370898B-AC2E-42A7-894F-0BCCE5AE0A77";
paths = (
{
closed = 1;
nodes = (
"421 -241 LINE",
"421 112 LINE",
"347 112 LINE",
"347 -241 LINE"
);
}
);
width = 783;
}
);
rightKerningGroup = ChaRight;
script = "";
category = Letter;
subCategory = Other;
},
{
color = 10;
glyphname = JaJa.Nnagari;
lastChange = "2021-11-05 10:04:10 +0000";
layers = (
{
anchors = (
{
name = bottom;
position = "{1079, -140}";
}
);
components = (
{
name = _Ja.half;
}
);
layerId = "5370898B-AC2E-42A7-894F-0BCCE5AE0A77";
paths = (
{
closed = 1;
nodes = (
"889 -140 OFFCURVE",
"929 -93 OFFCURVE",
"929 -35 CURVE SMOOTH",
"929 20 OFFCURVE",
"892 64 OFFCURVE",
"843 98 CURVE SMOOTH",
"840 101 OFFCURVE",
"837 106 OFFCURVE",
"834 108 CURVE SMOOTH",
"780 142 OFFCURVE",
"698 160 OFFCURVE",
"647 160 CURVE SMOOTH",
"597 160 LINE",
"597 113 LINE",
"670 109 OFFCURVE",
"739 93 OFFCURVE",
"787 64 CURVE SMOOTH",
"792 61 OFFCURVE",
"796 55 OFFCURVE",
"801 51 CURVE SMOOTH",
"835 28 OFFCURVE",
"856 2 OFFCURVE",
"856 -33 CURVE SMOOTH",
"856 -60 OFFCURVE",
"839 -78 OFFCURVE",
"813 -78 CURVE SMOOTH",
"788 -78 OFFCURVE",
"770 -60 OFFCURVE",
"770 -33 CURVE SMOOTH",
"770 0 OFFCURVE",
"793 29 OFFCURVE",
"822 47 CURVE",
"779 92 LINE",
"737 64 OFFCURVE",
"697 23 OFFCURVE",
"697 -35 CURVE SMOOTH",
"697 -93 OFFCURVE",
"741 -140 OFFCURVE",
"813 -140 CURVE SMOOTH"
);
},
{
closed = 1;
nodes = (
"452 275 OFFCURVE",
"513 312 OFFCURVE",
"612 312 CURVE SMOOTH",
"774 312 LINE",
"830 336 LINE",
"847 336 LINE",
"847 378 LINE",
"612 378 LINE SMOOTH",
"488 378 OFFCURVE",
"414 329 OFFCURVE",
"337 284 CURVE",
"395 239 LINE"
);
},
{
closed = 1;
nodes = (
"1117 -140 LINE",
"1117 40 LINE SMOOTH",
"1117 121 OFFCURVE",
"1066 170 OFFCURVE",
"993 170 CURVE SMOOTH",
"920 170 OFFCURVE",
"859 140 OFFCURVE",
"797 99 CURVE",
"839 52 LINE",
"882 81 OFFCURVE",
"932 105 OFFCURVE",
"977 105 CURVE SMOOTH",
"1021 105 OFFCURVE",
"1043 78 OFFCURVE",
"1043 31 CURVE SMOOTH",
"1043 -140 LINE"
);
},
{
closed = 1;
nodes = (
"665 141 LINE",
"738 176 OFFCURVE",
"817 251 OFFCURVE",
"847 336 CURVE",
"788 362 LINE",
"759 272 OFFCURVE",
"672 204 OFFCURVE",
"597 168 CURVE",
"597 141 LINE"
);
}
);
width = 1180;
}
);
leftMetricsKey = Ja.Nnagari;
rightMetricsKey = "=Ka.Nnagari-32";
script = "";
category = Letter;
subCategory = Other;
},
{
color = 10;
glyphname = JaJaNya.Nnagari;
lastChange = "2021-11-05 10:04:10 +0000";
layers = (
{
anchors = (
{
name = bottom;
position = "{1033, -115}";
}
);
components = (
{
name = _Ja.half;
}
);
layerId = "5370898B-AC2E-42A7-894F-0BCCE5AE0A77";
paths = (
{
closed = 1;
nodes = (
"815 -115 OFFCURVE",
"887 -62 OFFCURVE",
"887 24 CURVE SMOOTH",
"887 104 OFFCURVE",
"830 153 OFFCURVE",
"722 153 CURVE SMOOTH",
"605 153 LINE",
"605 100 LINE",
"717 100 LINE SMOOTH",
"778 100 OFFCURVE",
"814 74 OFFCURVE",
"814 28 CURVE SMOOTH",
"814 -23 OFFCURVE",
"778 -53 OFFCURVE",
"700 -53 CURVE",
"760 -60 LINE",
"729 -27 OFFCURVE",
"680 1 OFFCURVE",
"635 1 CURVE SMOOTH",
"597 1 OFFCURVE",
"566 -13 OFFCURVE",
"566 -50 CURVE SMOOTH",
"566 -89 OFFCURVE",
"610 -115 OFFCURVE",
"683 -115 CURVE SMOOTH"
);
},
{
closed = 1;
nodes = (
"878 -178 LINE",
"841 -141 OFFCURVE",
"802 -105 OFFCURVE",
"760 -68 CURVE",
"694 -80 LINE",
"728 -115 OFFCURVE",
"760 -147 OFFCURVE",
"788 -178 CURVE"
);
},
{
closed = 1;
nodes = (
"451 261 OFFCURVE",
"555 268 OFFCURVE",
"642 268 CURVE SMOOTH",
"804 268 LINE",
"860 292 LINE",
"877 292 LINE",
"877 334 LINE",
"642 334 LINE SMOOTH",
"528 334 OFFCURVE",
"414 318 OFFCURVE",
"337 284 CURVE",
"396 238 LINE"
);
},
{
closed = 1;
nodes = (
"1071 -115 LINE",
"1071 129 LINE",
"955 129 LINE SMOOTH",
"902 129 OFFCURVE",
"859 126 OFFCURVE",
"818 122 CURVE",
"818 64 LINE",
"997 64 LINE",
"997 -115 LINE"
);
},
{
closed = 1;
nodes = (
"672 125 LINE",
"747 147 OFFCURVE",
"836 221 OFFCURVE",
"877 292 CURVE",
"818 320 LINE",
"780 252 OFFCURVE",
"679 177 OFFCURVE",
"605 153 CURVE",
"605 113 LINE"
);
}
);
width = 1134;
}
);
leftMetricsKey = Ja.Nnagari;
rightMetricsKey = "=Ka.Nnagari-32";
script = "";
category = Letter;
subCategory = Other;
},
{
color = 10;
glyphname = JaJha.Nnagari;
lastChange = "2021-11-05 10:04:10 +0000";
layers = (
{
anchors = (
{
name = bottom;
position = "{945, -191}";
},
{
name = top;
position = "{340, 602}";
}
);
components = (
{
name = _Ja.half;
}
);
layerId = "5370898B-AC2E-42A7-894F-0BCCE5AE0A77";
paths = (
{
closed = 1;
nodes = (
"786 -191 LINE",
"786 167 LINE SMOOTH",
"786 300 OFFCURVE",
"718 371 OFFCURVE",
"590 371 CURVE SMOOTH",
"509 371 OFFCURVE",
"419 340 OFFCURVE",
"331 280 CURVE",
"390 234 LINE",
"463 281 OFFCURVE",
"518 299 OFFCURVE",
"588 299 CURVE SMOOTH",
"672 299 OFFCURVE",
"708 252 OFFCURVE",
"708 160 CURVE SMOOTH",
"708 -191 LINE"
);
},
{
closed = 1;
nodes = (
"983 -191 LINE",
"983 -68 LINE",
"983 47 LINE",
"553 47 LINE",
"553 -21 LINE",
"909 -21 LINE",
"909 -191 LINE"
);
}
);
width = 1068;
}
);
leftMetricsKey = Ja.Nnagari;
script = "";
category = Letter;
subCategory = Other;
},
{
color = 10;
glyphname = JaNya.Nnagari;
lastChange = "2021-11-05 10:04:10 +0000";
layers = (
{
anchors = (
{
name = bottom;
position = "{673, 0}";
},
{
name = top;
position = "{435, 602}";
}
);
layerId = "5370898B-AC2E-42A7-894F-0BCCE5AE0A77";
paths = (
{
closed = 1;
nodes = (
"356 -3 OFFCURVE",
"468 67 OFFCURVE",
"468 187 CURVE SMOOTH",
"468 316 OFFCURVE",
"362 367 OFFCURVE",
"214 367 CURVE SMOOTH",
"115 367 LINE",
"115 309 LINE",
"204 309 LINE SMOOTH",
"335 309 OFFCURVE",
"391 266 OFFCURVE",
"391 192 CURVE SMOOTH",
"391 112 OFFCURVE",
"332 65 OFFCURVE",
"215 65 CURVE",
"287 57 LINE",
"257 89 OFFCURVE",
"202 111 OFFCURVE",
"150 111 CURVE SMOOTH",
"106 111 OFFCURVE",
"81 93 OFFCURVE",
"81 60 CURVE",
"81 17 OFFCURVE",
"123 -3 OFFCURVE",
"198 -3 CURVE SMOOTH"
);
},
{
closed = 1;
nodes = (
"459 -120 LINE",
"383 -40 OFFCURVE",
"330 12 OFFCURVE",
"264 70 CURVE",
"213 34 LINE",
"275 -30 OFFCURVE",
"328 -84 OFFCURVE",
"359 -120 CURVE"
);
},
{
closed = 1;
nodes = (
"712 0 LINE",
"712 334 LINE",
"376 334 LINE",
"376 267 LINE",
"634 267 LINE",
"634 0 LINE"
);
},
{
closed = 1;
nodes = (
"172 332 LINE",
"339 371 OFFCURVE",
"440 497 OFFCURVE",
"468 575 CURVE",
"406 613 LINE",
"375 516 OFFCURVE",
"267 415 OFFCURVE",
"115 378 CURVE",
"115 325 LINE"
);
},
{
closed = 1;
nodes = (
"403 558 LINE",
"418 575 LINE",
"468 575 LINE",
"468 622 LINE",
"60 622 LINE",
"60 558 LINE"
);
}
);
width = 817;
}
);
leftMetricsKey = Dda.Nnagari;
rightMetricsKey = Ja.Nnagari;
script = "";
category = Letter;
subCategory = Other;
},
{
color = 10;
glyphname = JaNyaVa.Nnagari;
lastChange = "2021-11-05 10:04:10 +0000";
layers = (
{
anchors = (
{
name = bottom;
position = "{787, -201}";
},
{
name = top;
position = "{435, 602}";
}
);
components = (
{
name = _part.Va;
piece = {
wide = -20;
};
transform = "{1, 0, 0, 1, 263, -148}";
}
);
layerId = "5370898B-AC2E-42A7-894F-0BCCE5AE0A77";
paths = (
{
closed = 1;
nodes = (
"826 -201 LINE",
"827 334 LINE",
"376 334 LINE",
"376 267 LINE",
"749 267 LINE",
"748 -201 LINE"
);
},
{
closed = 1;
nodes = (
"429 -120 LINE",
"382 -58 OFFCURVE",
"348 -15 OFFCURVE",
"292 47 CURVE",
"216 34 LINE",
"257 -16 OFFCURVE",
"297 -72 OFFCURVE",
"329 -120 CURVE"
);
},
{
closed = 1;
nodes = (
"356 -3 OFFCURVE",
"468 67 OFFCURVE",
"468 187 CURVE SMOOTH",
"468 316 OFFCURVE",
"362 367 OFFCURVE",
"214 367 CURVE SMOOTH",
"115 367 LINE",
"115 309 LINE",
"204 309 LINE SMOOTH",
"335 309 OFFCURVE",
"391 266 OFFCURVE",
"391 192 CURVE SMOOTH",
"391 112 OFFCURVE",
"332 65 OFFCURVE",
"215 65 CURVE",
"287 57 LINE",
"257 89 OFFCURVE",
"202 111 OFFCURVE",
"150 111 CURVE SMOOTH",
"106 111 OFFCURVE",
"81 93 OFFCURVE",
"81 60 CURVE",
"81 17 OFFCURVE",
"123 -3 OFFCURVE",
"198 -3 CURVE SMOOTH"
);
},
{
closed = 1;
nodes = (
"172 332 LINE",
"339 371 OFFCURVE",
"440 497 OFFCURVE",
"468 575 CURVE",
"406 613 LINE",
"375 516 OFFCURVE",
"267 415 OFFCURVE",
"115 378 CURVE",
"115 325 LINE"
);
},
{
closed = 1;
nodes = (
"403 558 LINE",
"418 575 LINE",
"468 575 LINE",
"468 622 LINE",
"60 622 LINE",
"60 558 LINE"
);
}
);
width = 932;
}
);
leftMetricsKey = JaNya.Nnagari;
rightMetricsKey = Ja.Nnagari;
script = "";
category = Letter;
subCategory = Other;
},
{
color = 10;
glyphname = JaBha.Nnagari;
lastChange = "2021-11-05 10:04:10 +0000";
layers = (
{
anchors = (
{
name = bottom;
position = "{747, -280}";
},
{
name = top;
position = "{340, 602}";
}
);
components = (
{
name = _Ja.wide;
}
);
layerId = "5370898B-AC2E-42A7-894F-0BCCE5AE0A77";
paths = (
{
closed = 1;
nodes = (
"756 -121 LINE",
"756 -51 LINE",
"420 -51 LINE",
"420 -121 LINE"
);
},
{
closed = 1;
nodes = (
"498 -280 LINE",
"498 -90 LINE",
"420 -90 LINE",
"420 -280 LINE"
);
},
{
closed = 1;
nodes = (
"786 -280 LINE",
"786 -96 LINE",
"708 -96 LINE",
"708 -280 LINE"
);
}
);
width = 891;
}
);
leftMetricsKey = Ja.Nnagari;
rightMetricsKey = Ja.Nnagari;
},
{
color = 10;
glyphname = JhaRa.Nnagari;
lastChange = "2021-11-05 10:04:10 +0000";
layers = (
{
anchors = (
{
name = bottom;
position = "{707, -103}";
},
{
name = top;
position = "{357, 602}";
}
);
layerId = "5370898B-AC2E-42A7-894F-0BCCE5AE0A77";
paths = (
{
closed = 1;
nodes = (
"746 -103 LINE",
"746 353 LINE",
"60 353 LINE",
"60 283 LINE",
"668 283 LINE",
"668 -103 LINE"
);
},
{
closed = 1;
nodes = (
"390 0 LINE",
"390 622 LINE",
"312 622 LINE",
"312 0 LINE"
);
},
{
closed = 1;
nodes = (
"709 57 LINE",
"709 125 LINE",
"476 125 LINE",
"476 57 LINE"
);
},
{
closed = 1;
nodes = (
"342 558 LINE",
"342 622 LINE",
"40 622 LINE",
"40 558 LINE"
);
}
);
width = 851;
}
);
leftMetricsKey = Jha.Nnagari;
rightMetricsKey = Jha.Nnagari;
script = "";
category = Letter;
subCategory = Other;
},
{
color = 10;
glyphname = TtaKa.Nnagari;
lastChange = "2021-11-05 10:04:10 +0000";
layers = (
{
anchors = (
{
name = bottom;
position = "{663, -231}";
},
{
name = top;
position = "{400, 602}";
}
);
components = (
{
name = _Tta.half;
transform = "{1, 0, 0, 1, 8, 0}";
},
{
name = _part.Ka;
piece = {
LongerTail = 24;
};
transform = "{1, 0, 0, 1, -12, -217}";
}
);
layerId = "5370898B-AC2E-42A7-894F-0BCCE5AE0A77";
paths = (
{
closed = 1;
nodes = (
"424 -241 LINE",
"424 142 LINE",
"350 142 LINE",
"350 -241 LINE"
);
}
);
width = 797;
}
);
leftMetricsKey = Ka.Nnagari;
rightMetricsKey = Ka.Nnagari;
script = "";
category = Letter;
subCategory = Other;
},
{
color = 10;
glyphname = TtaKaRa.Nnagari;
lastChange = "2021-11-05 10:04:10 +0000";
layers = (
{
anchors = (
{
name = bottom;
position = "{386, -400}";
},
{
name = top;
position = "{400, 602}";
}
);
components = (
{
name = _Tta.half;
transform = "{1, 0, 0, 1, 8, 0}";
},
{
name = _part.Ka;
piece = {
LongerTail = 24;
};
transform = "{1, 0, 0, 1, -12, -207}";
},
{
name = _part.Ra;
transform = "{1, 0, 0, 1, -34, -615}";
}
);
layerId = "5370898B-AC2E-42A7-894F-0BCCE5AE0A77";
paths = (
{
closed = 1;
nodes = (
"424 -400 LINE",
"424 153 LINE",
"350 153 LINE",
"350 -400 LINE"
);
}
);
width = 797;
}
);
leftMetricsKey = Ka.Nnagari;
rightMetricsKey = Ka.Nnagari;
script = "";
category = Letter;
subCategory = Other;
},
{
color = 10;
glyphname = TtaTta.Nnagari;
lastChange = "2021-11-05 10:04:10 +0000";
layers = (
{
anchors = (
{
name = bottom;
position = "{346, -258}";
},
{
name = top;
position = "{385, 602}";
}
);
components = (
{
name = _Tta.half;
transform = "{1, 0, 0, 1, -7, 0}";
}
);
layerId = "5370898B-AC2E-42A7-894F-0BCCE5AE0A77";
paths = (
{
closed = 1;
nodes = (
"470 -284 OFFCURVE",
"569 -233 OFFCURVE",
"630 -174 CURVE",
"584 -118 LINE",
"534 -169 OFFCURVE",
"445 -216 OFFCURVE",
"341 -216 CURVE SMOOTH",
"205 -216 OFFCURVE",
"154 -174 OFFCURVE",
"154 -111 CURVE SMOOTH",
"154 -60 OFFCURVE",
"186 -20 OFFCURVE",
"297 -20 CURVE SMOOTH",
"388 -20 LINE",
"388 46 LINE",
"297 46 LINE SMOOTH",
"155 46 OFFCURVE",
"74 -8 OFFCURVE",
"74 -111 CURVE SMOOTH",
"74 -212 OFFCURVE",
"151 -284 OFFCURVE",
"341 -284 CURVE SMOOTH"
);
},
{
closed = 1;
nodes = (
"418 -107 LINE",
"418 162 LINE",
"344 162 LINE",
"344 -107 LINE"
);
}
);
width = 706;
}
);
leftMetricsKey = Tta.Nnagari;
rightMetricsKey = Tta.Nnagari;
script = "";
category = Letter;
subCategory = Other;
},
{
color = 10;
glyphname = TtaTtaYa.Nnagari;
lastChange = "2021-11-05 10:04:10 +0000";
layers = (
{
anchors = (
{
name = bottom;
position = "{932, 0}";
},
{
name = top;
position = "{938, 602}";
}
);
components = (
{
name = TtaTta.Nnagari;
}
);
layerId = "5370898B-AC2E-42A7-894F-0BCCE5AE0A77";
paths = (
{
closed = 1;
nodes = (
"939 493 LINE",
"939 568 LINE",
"899 568 LINE",
"562 -152 LINE",
"630 -174 LINE"
);
},
{
closed = 1;
nodes = (
"921 558 LINE",
"921 622 LINE",
"115 622 LINE",
"115 558 LINE"
);
},
{
closed = 1;
nodes = (
"971 0 LINE",
"971 622 LINE",
"893 622 LINE",
"893 0 LINE"
);
}
);
width = 1086;
}
);
leftMetricsKey = Tta.Nnagari;
rightMetricsKey = MatraAa.Nnagari;
script = "";
category = Letter;
subCategory = Other;
},
{
color = 10;
glyphname = TtaTtha.Nnagari;
lastChange = "2021-11-05 10:04:10 +0000";
layers = (
{
anchors = (
{
name = bottom;
position = "{343, -271}";
},
{
name = top;
position = "{363, 602}";
}
);
components = (
{
name = _Tta.half;
transform = "{1, 0, 0, 1, -29, 0}";
}
);
layerId = "5370898B-AC2E-42A7-894F-0BCCE5AE0A77";
paths = (
{
closed = 1;
nodes = (
"525 -307 OFFCURVE",
"620 -243 OFFCURVE",
"620 -137 CURVE SMOOTH",
"620 -21 OFFCURVE",
"530 30 OFFCURVE",
"343 30 CURVE SMOOTH",
"178 30 OFFCURVE",
"65 -14 OFFCURVE",
"65 -137 CURVE SMOOTH",
"65 -243 OFFCURVE",
"158 -307 OFFCURVE",
"343 -307 CURVE SMOOTH"
);
},
{
closed = 1;
nodes = (
"209 -239 OFFCURVE",
"147 -201 OFFCURVE",
"147 -137 CURVE SMOOTH",
"147 -70 OFFCURVE",
"210 -35 OFFCURVE",
"343 -35 CURVE SMOOTH",
"472 -35 OFFCURVE",
"538 -63 OFFCURVE",
"538 -137 CURVE SMOOTH",
"538 -202 OFFCURVE",
"476 -239 OFFCURVE",
"343 -239 CURVE SMOOTH"
);
},
{
closed = 1;
nodes = (
"382 -137 LINE",
"382 171 LINE",
"304 171 LINE",
"304 -137 LINE"
);
}
);
width = 696;
}
);
leftMetricsKey = Ttha.Nnagari;
rightMetricsKey = Tta.Nnagari;
},
{
color = 10;
glyphname = TtaTa.Nnagari;
lastChange = "2021-11-05 10:04:10 +0000";
layers = (
{
anchors = (
{
name = bottom;
position = "{469, -241}";
},
{
name = top;
position = "{385, 602}";
}
);
components = (
{
name = _Tta.half;
transform = "{1, 0, 0, 1, -7, 0}";
},
{
name = _part.Ta;
piece = {
Big = 75;
Small = 40;
};
transform = "{1, 0, 0, 1, -87, -241}";
}
);
layerId = "5370898B-AC2E-42A7-894F-0BCCE5AE0A77";
paths = (
{
closed = 1;
nodes = (
"508 -241 LINE",
"508 181 LINE",
"430 181 LINE",
"430 -241 LINE"
);
}
);
width = 694;
}
);
leftMetricsKey = Tta.Nnagari;
rightMetricsKey = Tta.Nnagari;
},
{
color = 10;
glyphname = TtaTaVa.Nnagari;
lastChange = "2021-11-05 10:04:10 +0000";
layers = (
{
anchors = (
{
name = bottom;
position = "{469, -301}";
},
{
name = top;
position = "{385, 602}";
}
);
components = (
{
name = _Tta.half;
transform = "{1, 0, 0, 1, -7, 0}";
},
{
name = _part.Va;
piece = {
wide = -100;
};
transform = "{1, 0, 0, 1, -59, -289}";
},
{
name = _part.Ta;
piece = {
Big = -100;
Small = -8.4502;
};
transform = "{1, 0, 0, 1, -90, -311}";
}
);
layerId = "5370898B-AC2E-42A7-894F-0BCCE5AE0A77";
paths = (
{
closed = 1;
nodes = (
"508 -301 LINE",
"508 181 LINE",
"430 181 LINE",
"430 -301 LINE"
);
}
);
width = 694;
}
);
leftMetricsKey = Tta.Nnagari;
rightMetricsKey = Tta.Nnagari;
},
{
color = 10;
glyphname = TtaYa.Nnagari;
lastChange = "2021-11-05 10:04:10 +0000";
layers = (
{
anchors = (
{
name = bottom;
position = "{837, 0}";
},
{
name = top;
position = "{843, 602}";
}
);
components = (
{
name = _part.Shirorekha;
transform = "{1, 0, 0, 1, 834, 0}";
},
{
name = _Danda;
transform = "{1, 0, 0, 1, 722, 0}";
}
);
layerId = "5370898B-AC2E-42A7-894F-0BCCE5AE0A77";
paths = (
{
closed = 1;
nodes = (
"455 0 OFFCURVE",
"532 39 OFFCURVE",
"574 70 CURVE",
"844 503 LINE",
"844 568 LINE",
"804 568 LINE",
"521 123 LINE",
"487 99 OFFCURVE",
"429 72 OFFCURVE",
"336 72 CURVE SMOOTH",
"217 72 OFFCURVE",
"144 128 OFFCURVE",
"144 233 CURVE SMOOTH",
"144 334 OFFCURVE",
"206 397 OFFCURVE",
"323 397 CURVE SMOOTH",
"368 397 LINE",
"368 463 LINE",
"323 463 LINE SMOOTH",
"164 463 OFFCURVE",
"62 374 OFFCURVE",
"62 233 CURVE SMOOTH",
"62 85 OFFCURVE",
"167 0 OFFCURVE",
"336 0 CURVE SMOOTH"
);
},
{
closed = 1;
nodes = (
"387 558 LINE",
"387 622 LINE",
"72 622 LINE",
"72 558 LINE"
);
},
{
closed = 1;
nodes = (
"429 246 LINE",
"429 622 LINE",
"351 622 LINE",
"351 246 LINE"
);
}
);
width = 991;
}
);
leftMetricsKey = Tta.Nnagari;
rightMetricsKey = MatraAa.Nnagari;
script = "";
category = Letter;
subCategory = Other;
},
{
color = 10;
glyphname = TtaVa.Nnagari;
lastChange = "2021-11-05 10:04:10 +0000";
layers = (
{
anchors = (
{
name = bottom;
position = "{468, -241}";
},
{
name = top;
position = "{385, 602}";
}
);
components = (
{
name = _Tta.half;
transform = "{1, 0, 0, 1, -7, 0}";
},
{
name = _part.Va;
piece = {
wide = 70;
};
transform = "{1, 0, 0, 1, -50, -198}";
}
);
layerId = "5370898B-AC2E-42A7-894F-0BCCE5AE0A77";
paths = (
{
closed = 1;
nodes = (
"506 -241 LINE",
"506 178 LINE",
"432 178 LINE",
"432 -241 LINE"
);
}
);
width = 694;
}
);
leftMetricsKey = Tta.Nnagari;
rightMetricsKey = Tta.Nnagari;
script = "";
category = Letter;
subCategory = Other;
},
{
color = 10;
glyphname = TthaTtha.Nnagari;
lastChange = "2021-11-05 10:04:10 +0000";
layers = (
{
anchors = (
{
name = bottom;
position = "{333, -261}";
}
);
components = (
{
name = _ttha;
}
);
layerId = "5370898B-AC2E-42A7-894F-0BCCE5AE0A77";
paths = (
{
closed = 1;
nodes = (
"515 -261 OFFCURVE",
"610 -197 OFFCURVE",
"610 -91 CURVE SMOOTH",
"610 25 OFFCURVE",
"520 76 OFFCURVE",
"333 76 CURVE SMOOTH",
"168 76 OFFCURVE",
"55 32 OFFCURVE",
"55 -91 CURVE SMOOTH",
"55 -197 OFFCURVE",
"148 -261 OFFCURVE",
"333 -261 CURVE SMOOTH"
);
},
{
closed = 1;
nodes = (
"199 -193 OFFCURVE",
"137 -155 OFFCURVE",
"137 -91 CURVE SMOOTH",
"137 -24 OFFCURVE",
"200 11 OFFCURVE",
"333 11 CURVE SMOOTH",
"462 11 OFFCURVE",
"528 -17 OFFCURVE",
"528 -91 CURVE SMOOTH",
"528 -156 OFFCURVE",
"466 -193 OFFCURVE",
"333 -193 CURVE SMOOTH"
);
},
{
closed = 1;
nodes = (
"372 -90 LINE",
"372 171 LINE",
"294 171 LINE",
"294 -90 LINE"
);
}
);
width = 700;
}
);
leftMetricsKey = Ttha.Nnagari;
rightMetricsKey = Ttha.Nnagari;
},
{
color = 10;
glyphname = DdaGa.Nnagari;
lastChange = "2021-11-05 10:04:10 +0000";
layers = (
{
anchors = (
{
name = bottom;
position = "{433, -241}";
},
{
name = top;
position = "{451, 602}";
}
);
components = (
{
name = _Dda.half;
transform = "{1, 0, 0, 1, 26, 0}";
}
);
layerId = "5370898B-AC2E-42A7-894F-0BCCE5AE0A77";
paths = (
{
closed = 1;
nodes = (
"254 -243 OFFCURVE",
"301 -209 OFFCURVE",
"301 -125 CURVE SMOOTH",
"301 -68 OFFCURVE",
"289 27 OFFCURVE",
"275 105 CURVE",
"205 105 LINE",
"220 29 OFFCURVE",
"230 -62 OFFCURVE",
"230 -125 CURVE SMOOTH",
"230 -171 OFFCURVE",
"209 -185 OFFCURVE",
"179 -185 CURVE SMOOTH",
"147 -185 OFFCURVE",
"131 -164 OFFCURVE",
"131 -134 CURVE SMOOTH",
"131 -97 OFFCURVE",
"159 -78 OFFCURVE",
"240 -78 CURVE",
"240 -17 LINE",
"109 -17 OFFCURVE",
"60 -62 OFFCURVE",
"60 -136 CURVE SMOOTH",
"60 -201 OFFCURVE",
"109 -243 OFFCURVE",
"180 -243 CURVE SMOOTH"
);
},
{
closed = 1;
nodes = (
"472 -241 LINE",
"472 213 LINE",
"394 162 LINE",
"394 -241 LINE"
);
}
);
width = 578;
}
);
leftMetricsKey = Dda.Nnagari;
rightMetricsKey = Dda.Nnagari;
},
{
color = 10;
glyphname = DdaBa.Nnagari;
lastChange = "2021-11-05 10:04:10 +0000";
layers = (
{
anchors = (
{
name = bottom;
position = "{410, -241}";
},
{
name = top;
position = "{455, 602}";
}
);
components = (
{
name = _part.Va;
piece = {
wide = -20;
};
transform = "{1, 0, 0, 1, -111, -218}";
},
{
name = _Dda.half;
transform = "{1, 0, 0, 1, 30, 0}";
}
);
layerId = "5370898B-AC2E-42A7-894F-0BCCE5AE0A77";
paths = (
{
closed = 1;
nodes = (
"448 -241 LINE",
"448 195 LINE",
"374 140 LINE",
"374 -241 LINE"
);
},
{
closed = 1;
nodes = (
"375 -174 LINE",
"240 -9 LINE",
"181 -9 LINE",
"317 -174 LINE"
);
}
);
width = 582;
}
);
leftMetricsKey = "=Dda.Nnagari+30";
rightMetricsKey = Dda.Nnagari;
script = "";
category = Letter;
subCategory = Other;
},
{
color = 10;
glyphname = DdaBha.Nnagari;
lastChange = "2021-11-05 10:04:10 +0000";
layers = (
{
anchors = (
{
name = bottom;
position = "{455, -239}";
},
{
name = top;
position = "{465, 602}";
}
);
components = (
{
name = _Dda.half;
transform = "{1, 0, 0, 1, 40, 0}";
}
);
layerId = "5370898B-AC2E-42A7-894F-0BCCE5AE0A77";
paths = (
{
closed = 1;
nodes = (
"494 -239 LINE",
"494 233 LINE",
"416 186 LINE",
"416 -239 LINE"
);
},
{
closed = 1;
nodes = (
"138 -239 LINE",
"138 -39 LINE",
"60 -39 LINE",
"60 -239 LINE"
);
},
{
closed = 1;
nodes = (
"453 -70 LINE",
"453 0 LINE",
"60 0 LINE",
"60 -70 LINE"
);
}
);
width = 592;
}
);
leftMetricsKey = Dda.Nnagari;
rightMetricsKey = Dda.Nnagari;
script = "";
category = Letter;
subCategory = Other;
},
{
color = 10;
glyphname = DdaRa.Nnagari;
lastChange = "2021-11-05 10:04:10 +0000";
layers = (
{
anchors = (
{
name = bottom;
position = "{420, -241}";
}
);
components = (
{
name = _part.Ra;
transform = "{1, 0, 0, 1, -37, -397}";
},
{
name = _Dda.half;
transform = "{1, 0, 0, 1, 16, 0}";
}
);
layerId = "5370898B-AC2E-42A7-894F-0BCCE5AE0A77";
paths = (
{
closed = 1;
nodes = (
"458 -241 LINE",
"458 189 LINE",
"384 189 LINE",
"384 -241 LINE"
);
}
);
width = 568;
}
);
leftMetricsKey = Dda.Nnagari;
rightMetricsKey = Dda.Nnagari;
script = "";
category = Letter;
subCategory = Other;
},
{
color = 10;
glyphname = DdaLa.Nnagari;
lastChange = "2021-11-05 10:04:10 +0000";
layers = (
{
anchors = (
{
name = bottom;
position = "{486, -241}";
},
{
name = top;
position = "{499, 602}";
}
);
components = (
{
name = _part.La;
piece = {
Scale = 80;
};
transform = "{1, 0, 0, 1, -161, -240}";
},
{
name = _Dda.half;
transform = "{1, 0, 0, 1, 74, 0}";
}
);
layerId = "5370898B-AC2E-42A7-894F-0BCCE5AE0A77";
paths = (
{
closed = 1;
nodes = (
"524 -241 LINE",
"524 191 LINE",
"450 191 LINE",
"450 -241 LINE"
);
}
);
width = 626;
}
);
leftMetricsKey = Dda.Nnagari;
rightMetricsKey = Dda.Nnagari;
script = "";
category = Letter;
subCategory = Other;
},
{
color = 10;
glyphname = DdaVa.Nnagari;
lastChange = "2021-11-05 10:04:10 +0000";
layers = (
{
anchors = (
{
name = bottom;
position = "{410, -241}";
},
{
name = top;
position = "{455, 602}";
}
);
components = (
{
name = _part.Va;
piece = {
wide = -20;
};
transform = "{1, 0, 0, 1, -111, -218}";
},
{
name = _Dda.half;
transform = "{1, 0, 0, 1, 30, 0}";
}
);
layerId = "5370898B-AC2E-42A7-894F-0BCCE5AE0A77";
paths = (
{
closed = 1;
nodes = (
"448 -241 LINE",
"448 195 LINE",
"374 140 LINE",
"374 -241 LINE"
);
}
);
width = 582;
}
);
leftMetricsKey = "=Dda.Nnagari+30";
rightMetricsKey = Dda.Nnagari;
script = "";
category = Letter;
subCategory = Other;
},
{
color = 10;
glyphname = DdhaRa.Nnagari;
lastChange = "2021-11-05 10:04:10 +0000";
layers = (
{
anchors = (
{
name = bottom;
position = "{487, -171}";
},
{
name = top;
position = "{334, 602}";
}
);
components = (
{
name = _part.Ra;
transform = "{1, 0, 0, 1, 10, -345}";
},
{
name = _Ddha.half;
}
);
layerId = "5370898B-AC2E-42A7-894F-0BCCE5AE0A77";
paths = (
{
closed = 1;
nodes = (
"525 -171 LINE",
"525 156 LINE",
"451 156 LINE",
"451 -171 LINE"
);
}
);
width = 740;
}
);
leftMetricsKey = Ddha.Nnagari;
rightMetricsKey = Ddha.Nnagari;
script = "";
category = Letter;
subCategory = Other;
},
{
color = 10;
glyphname = DdhaVa.Nnagari;
lastChange = "2021-11-05 10:04:10 +0000";
layers = (
{
anchors = (
{
name = bottom;
position = "{502, -288}";
},
{
name = top;
position = "{334, 602}";
}
);
components = (
{
name = _Ddha.half;
},
{
name = _part.Va;
piece = {
wide = 70;
};
transform = "{1, 0, 0, 1, -16, -233}";
}
);
layerId = "5370898B-AC2E-42A7-894F-0BCCE5AE0A77";
paths = (
{
closed = 1;
nodes = (
"540 -288 LINE",
"540 151 LINE",
"466 151 LINE",
"466 -288 LINE"
);
}
);
width = 740;
}
);
leftMetricsKey = Ddha.Nnagari;
rightMetricsKey = Ddha.Nnagari;
script = "";
category = Letter;
subCategory = Other;
},
{
color = 10;
glyphname = TaKa.Nnagari;
lastChange = "2021-11-05 10:04:10 +0000";
layers = (
{
anchors = (
{
name = bottom;
position = "{790, 0}";
},
{
name = top;
position = "{565, 602}";
}
);
components = (
{
name = _part.Shirorekha;
piece = {
Scale = -69;
};
transform = "{1, 0, 0, 1, 571, 0}";
},
{
name = _Danda;
transform = "{1, 0, 0, 1, 444, 0}";
},
{
name = _part.Va;
piece = {
wide = -40;
};
transform = "{1, 0, 0, 1, 38, 34}";
},
{
name = _part.Ta;
piece = {
Big = -60;
};
transform = "{1, 0, 0, 1, 9, 0}";
}
);
layerId = "5370898B-AC2E-42A7-894F-0BCCE5AE0A77";
paths = (
{
closed = 1;
nodes = (
"829 0 LINE",
"829 98 LINE SMOOTH",
"829 167 OFFCURVE",
"793 206 OFFCURVE",
"718 206 CURVE SMOOTH",
"689 206 OFFCURVE",
"649 197 OFFCURVE",
"605 181 CURVE SMOOTH",
"542 158 LINE",
"566 102 LINE",
"606 116 LINE SMOOTH",
"646 130 OFFCURVE",
"682 142 OFFCURVE",
"705 142 CURVE SMOOTH",
"737 142 OFFCURVE",
"751 126 OFFCURVE",
"751 92 CURVE SMOOTH",
"751 0 LINE"
);
}
);
width = 884;
}
);
leftMetricsKey = Ta.Nnagari;
rightKerningGroup = TaKa;
rightMetricsKey = "=Ka.Nnagari-40";
script = "";
category = Letter;
subCategory = Other;
},
{
color = 10;
glyphname = TaKaLa.Nnagari;
lastChange = "2021-11-05 10:04:10 +0000";
layers = (
{
anchors = (
{
name = bottom;
position = "{560, -275.869}";
},
{
name = top;
position = "{564, 602}";
}
);
components = (
{
name = _part.La;
piece = {
Scale = 60;
};
transform = "{1, 0, 0, 1, -94, -276}";
},
{
name = _part.Danda_long;
piece = {
Length = 45.72383;
};
transform = "{1, 0, 0, 1, 445, 0}";
},
{
name = _part.Shirorekha;
piece = {
Scale = -69;
};
transform = "{1, 0, 0, 1, 571, 0}";
},
{
name = _part.Ta;
piece = {
Big = -60;
};
transform = "{1, 0, 0, 1, 9, 0}";
},
{
name = _part.Va;
piece = {
wide = -40;
};
transform = "{1, 0, 0, 1, 38, 34}";
}
);
layerId = "5370898B-AC2E-42A7-894F-0BCCE5AE0A77";
paths = (
{
closed = 1;
nodes = (
"829 0 LINE",
"829 98 LINE SMOOTH",
"829 167 OFFCURVE",
"793 206 OFFCURVE",
"718 206 CURVE SMOOTH",
"689 206 OFFCURVE",
"649 197 OFFCURVE",
"605 181 CURVE SMOOTH",
"542 158 LINE",
"566 102 LINE",
"606 116 LINE SMOOTH",
"646 130 OFFCURVE",
"682 142 OFFCURVE",
"705 142 CURVE SMOOTH",
"737 142 OFFCURVE",
"751 126 OFFCURVE",
"751 92 CURVE SMOOTH",
"751 0 LINE"
);
}
);
width = 884;
}
);
leftMetricsKey = Ta.Nnagari;
rightKerningGroup = TaKa;
rightMetricsKey = "=Ka.Nnagari-40";
script = "";
category = Letter;
subCategory = Other;
},
{
color = 10;
glyphname = TaKaSsaVa.Nnagari;
lastChange = "2021-11-05 10:04:10 +0000";
layers = (
{
anchors = (
{
name = bottom;
position = "{736, -101}";
}
);
components = (
{
name = _part.Ta;
piece = {
Big = 21.85291;
Small = -47.6176;
};
transform = "{1, 0, 0, 1, -164, -60}";
},
{
name = _KaSsa.wide;
transform = "{1, 0, 0, 1, 15, 0}";
},
{
name = _part.Va;
piece = {
wide = -50;
};
transform = "{1, 0, 0, 1, 215, -59}";
}
);
layerId = "5370898B-AC2E-42A7-894F-0BCCE5AE0A77";
paths = (
{
closed = 1;
nodes = (
"775 -101 LINE",
"775 55 LINE",
"697 55 LINE",
"697 -101 LINE"
);
}
);
width = 870;
}
);
leftMetricsKey = Ta.Nnagari;
rightMetricsKey = Ka.Nnagari;
script = "";
category = Letter;
subCategory = Other;
},
{
color = 10;
glyphname = TaTaRa.Nnagari;
lastChange = "2021-11-05 10:04:10 +0000";
layers = (
{
anchors = (
{
name = bottom;
position = "{503, -101}";
}
);
components = (
{
name = _part.Shirorekha;
piece = {
Scale = -41.85347;
};
transform = "{1, 0, 0, 1, 510, 0}";
},
{
name = _part.Danda_long;
transform = "{1, 0, 0, 1, 389, 0}";
}
);
layerId = "5370898B-AC2E-42A7-894F-0BCCE5AE0A77";
paths = (
{
closed = 1;
nodes = (
"476 368 LINE",
"476 438 LINE",
"83 438 LINE",
"83 368 LINE"
);
},
{
closed = 1;
nodes = (
"476 8 LINE",
"476 78 LINE",
"83 78 LINE",
"83 8 LINE"
);
},
{
closed = 1;
nodes = (
"476 188 LINE",
"476 258 LINE",
"83 258 LINE",
"83 188 LINE"
);
}
);
width = 656;
}
);
leftMetricsKey = Ta.Nnagari;
rightMetricsKey = MatraAa.Nnagari;
script = "";
category = Letter;
subCategory = Other;
},
{
color = 10;
glyphname = TaTaSa.Nnagari;
lastChange = "2021-11-05 10:04:10 +0000";
layers = (
{
components = (
{
name = _part.Ta;
piece = {
Small = -51.78335;
};
transform = "{1, 0, 0, 1, -168, 0}";
},
{
name = Sa.Nnagari;
transform = "{1, 0, 0, 1, 200, 0}";
}
);
layerId = "5370898B-AC2E-42A7-894F-0BCCE5AE0A77";
paths = (
{
closed = 1;
nodes = (
"311 558 LINE",
"311 622 LINE",
"40 622 LINE",
"40 558 LINE"
);
},
{
closed = 1;
nodes = (
"279 242 LINE",
"279 313 LINE",
"40 313 LINE",
"40 242 LINE"
);
}
);
width = 1001;
}
);
leftMetricsKey = Ta.Nnagari;
rightMetricsKey = MatraAa.Nnagari;
script = "";
category = Letter;
subCategory = Other;
},
{
color = 10;
glyphname = TaYaVa.Nnagari;
lastChange = "2021-11-05 10:04:10 +0000";
layers = (
{
components = (
{
name = Ta.Nnagari;
},
{
name = _part.Danda_long;
piece = {
Length = 100;
};
transform = "{1, 0, 0, 1, 709, 0}";
},
{
name = _part.Va;
piece = {
wide = 0;
};
transform = "{1, 0, 0, 1, 304, -305}";
}
);
layerId = "5370898B-AC2E-42A7-894F-0BCCE5AE0A77";
paths = (
{
closed = 1;
nodes = (
"543 0 LINE",
"830 502 LINE",
"830 568 LINE",
"790 568 LINE",
"495 56 LINE",
"495 0 LINE"
);
},
{
closed = 1;
nodes = (
"843 558 LINE",
"843 622 LINE",
"501 622 LINE",
"501 558 LINE"
);
}
);
width = 977;
}
);
leftMetricsKey = Ta.Nnagari;
rightMetricsKey = MatraAa.Nnagari;
script = "";
category = Letter;
subCategory = Other;
},
{
color = 10;
glyphname = TaRa.Nnagari;
lastChange = "2021-11-05 10:04:10 +0000";
layers = (
{
components = (
{
name = _part.Shirorekha;
piece = {
Scale = -41.85347;
};
transform = "{1, 0, 0, 1, 510, 0}";
},
{
name = _Danda;
transform = "{1, 0, 0, 1, 389, 0}";
}
);
layerId = "5370898B-AC2E-42A7-894F-0BCCE5AE0A77";
paths = (
{
closed = 1;
nodes = (
"476 348 LINE",
"476 418 LINE",
"83 418 LINE",
"83 348 LINE"
);
},
{
closed = 1;
nodes = (
"476 146 LINE",
"476 216 LINE",
"83 216 LINE",
"83 146 LINE"
);
}
);
width = 658;
}
);
leftMetricsKey = Ta.Nnagari;
rightMetricsKey = MatraAa.Nnagari;
script = "";
category = Letter;
subCategory = Other;
},
{
color = 10;
glyphname = TaRaVa.Nnagari;
lastChange = "2021-11-05 10:04:10 +0000";
layers = (
{
anchors = (
{
name = bottom;
position = "{505, -161}";
}
);
components = (
{
name = _part.Va;
transform = "{1, 0, 0, 1, -13, -96}";
},
{
name = _part.Danda_long;
piece = {
Length = -50;
};
transform = "{1, 0, 0, 1, 391, 0}";
},
{
name = _part.Shirorekha;
piece = {
Scale = -41.85347;
};
transform = "{1, 0, 0, 1, 510, 0}";
}
);
layerId = "5370898B-AC2E-42A7-894F-0BCCE5AE0A77";
paths = (
{
closed = 1;
nodes = (
"476 408 LINE",
"476 478 LINE",
"83 478 LINE",
"83 408 LINE"
);
},
{
closed = 1;
nodes = (
"476 258 LINE",
"476 328 LINE",
"83 328 LINE",
"83 258 LINE"
);
}
);
width = 658;
}
);
leftMetricsKey = Ta.Nnagari;
rightMetricsKey = MatraAa.Nnagari;
script = "";
category = Letter;
subCategory = Other;
},
{
color = 10;
glyphname = TaSsa.Nnagari;
lastChange = "2021-11-05 10:04:10 +0000";
layers = (
{
anchors = (
{
name = bottom;
position = "{912, 0}";
},
{
name = top;
position = "{918, 602}";
}
);
components = (
{
name = Ta.Nnagari;
}
);
layerId = "5370898B-AC2E-42A7-894F-0BCCE5AE0A77";
paths = (
{
closed = 1;
nodes = (
"852 211 OFFCURVE",
"906 293 OFFCURVE",
"934 354 CURVE",
"883 389 LINE",
"860 326 OFFCURVE",
"795 283 OFFCURVE",
"711 283 CURVE SMOOTH",
"601 283 OFFCURVE",
"543 345 OFFCURVE",
"543 495 CURVE SMOOTH",
"543 595 LINE",
"495 595 LINE",
"495 495 LINE SMOOTH",
"495 315 OFFCURVE",
"561 211 OFFCURVE",
"711 211 CURVE SMOOTH"
);
},
{
closed = 1;
nodes = (
"929 324 LINE",
"603 569 LINE",
"511 564 LINE",
"858 297 LINE"
);
},
{
closed = 1;
nodes = (
"951 0 LINE",
"951 622 LINE",
"873 622 LINE",
"873 0 LINE"
);
},
{
closed = 1;
nodes = (
"889 558 LINE",
"889 622 LINE",
"495 622 LINE",
"495 558 LINE"
);
}
);
width = 1066;
}
);
rightMetricsKey = MatraAa.Nnagari;
},
{
color = 10;
glyphname = ThaVa.Nnagari;
lastChange = "2021-11-05 10:04:10 +0000";
layers = (
{
components = (
{
name = _part.Va;
piece = {
wide = 70;
};
transform = "{1, 0, 0, 1, -16, -178}";
},
{
name = _part.Danda_long;
piece = {
Length = 18.19788;
};
transform = "{1, 0, 0, 1, 390, 0}";
}
);
layerId = "5370898B-AC2E-42A7-894F-0BCCE5AE0A77";
paths = (
{
closed = 1;
nodes = (
"364 160 OFFCURVE",
"442 181 OFFCURVE",
"486 205 CURVE",
"474 269 LINE",
"428 244 OFFCURVE",
"352 229 OFFCURVE",
"283 229 CURVE SMOOTH",
"171 229 OFFCURVE",
"153 266 OFFCURVE",
"153 305 CURVE SMOOTH",
"153 345 OFFCURVE",
"178 370 OFFCURVE",
"227 370 CURVE SMOOTH",
"372 370 LINE",
"372 434 LINE",
"222 434 LINE SMOOTH",
"166 434 OFFCURVE",
"144 460 OFFCURVE",
"144 496 CURVE SMOOTH",
"144 534 OFFCURVE",
"167 558 OFFCURVE",
"220 558 CURVE SMOOTH",
"481 558 LINE",
"481 622 LINE",
"209 622 LINE SMOOTH",
"107 622 OFFCURVE",
"60 575 OFFCURVE",
"60 496 CURVE SMOOTH",
"60 434 OFFCURVE",
"104 388 OFFCURVE",
"187 388 CURVE",
"202 414 LINE",
"113 414 OFFCURVE",
"69 369 OFFCURVE",
"69 301 CURVE SMOOTH",
"69 206 OFFCURVE",
"136 160 OFFCURVE",
"279 160 CURVE SMOOTH"
);
}
);
width = 658;
}
);
leftMetricsKey = Tha.Nnagari;
rightMetricsKey = MatraAa.Nnagari;
script = "";
category = Letter;
subCategory = Other;
},
{
color = 10;
glyphname = DaGa.Nnagari;
lastChange = "2021-11-05 10:04:10 +0000";
layers = (
{
components = (
{
name = _Da.Half1;
}
);
layerId = "5370898B-AC2E-42A7-894F-0BCCE5AE0A77";
paths = (
{
closed = 1;
nodes = (
"251 -99 OFFCURVE",
"296 -65 OFFCURVE",
"296 19 CURVE SMOOTH",
"296 69 OFFCURVE",
"291 131 OFFCURVE",
"285 189 CURVE",
"215 189 LINE",
"221 133 OFFCURVE",
"225 74 OFFCURVE",
"225 19 CURVE SMOOTH",
"225 -27 OFFCURVE",
"206 -41 OFFCURVE",
"179 -41 CURVE SMOOTH",
"147 -41 OFFCURVE",
"131 -24 OFFCURVE",
"131 0 CURVE SMOOTH",
"131 30 OFFCURVE",
"159 46 OFFCURVE",
"240 46 CURVE",
"240 107 LINE",
"109 107 OFFCURVE",
"60 66 OFFCURVE",
"60 -2 CURVE SMOOTH",
"60 -61 OFFCURVE",
"109 -99 OFFCURVE",
"180 -99 CURVE SMOOTH"
);
},
{
closed = 1;
nodes = (
"448 169 LINE",
"448 233 LINE",
"45 233 LINE",
"45 169 LINE"
);
}
);
width = 586;
}
);
leftMetricsKey = Da.Nnagari;
rightMetricsKey = Da.Nnagari;
script = "";
category = Letter;
subCategory = Other;
},
{
color = 10;
glyphname = DaGaRa.Nnagari;
lastChange = "2021-11-05 10:04:10 +0000";
layers = (
{
components = (
{
name = _part.Ra;
transform = "{1, 0, 0, 1, -10, -524}";
},
{
name = _Da.Half2;
}
);
layerId = "5370898B-AC2E-42A7-894F-0BCCE5AE0A77";
paths = (
{
closed = 1;
nodes = (
"238 -97 OFFCURVE",
"301 -37 OFFCURVE",
"301 63 CURVE SMOOTH",
"301 124 OFFCURVE",
"281 164 OFFCURVE",
"264 189 CURVE",
"197 178 LINE",
"213 154 OFFCURVE",
"230 113 OFFCURVE",
"230 63 CURVE SMOOTH",
"230 -4 OFFCURVE",
"191 -33 OFFCURVE",
"158 -33 CURVE SMOOTH",
"137 -33 OFFCURVE",
"124 -24 OFFCURVE",
"124 -5 CURVE SMOOTH",
"124 25 OFFCURVE",
"149 37 OFFCURVE",
"239 38 CURVE",
"234 98 LINE",
"109 97 OFFCURVE",
"54 62 OFFCURVE",
"54 -3 CURVE SMOOTH",
"54 -61 OFFCURVE",
"91 -97 OFFCURVE",
"158 -97 CURVE SMOOTH"
);
},
{
closed = 1;
nodes = (
"448 169 LINE",
"448 233 LINE",
"45 233 LINE",
"45 169 LINE"
);
}
);
width = 586;
}
);
leftMetricsKey = Da.Nnagari;
rightMetricsKey = Da.Nnagari;
script = "";
category = Letter;
subCategory = Other;
},
{
color = 10;
glyphname = DaGaLa.Nnagari;
lastChange = "2021-11-05 10:04:10 +0000";
layers = (
{
components = (
{
name = _part.La;
piece = {
Scale = -13.6727;
};
transform = "{1, 0, 0, 1, -214, -341}";
},
{
name = _Da.Half2;
}
);
layerId = "5370898B-AC2E-42A7-894F-0BCCE5AE0A77";
paths = (
{
closed = 1;
nodes = (
"238 -97 OFFCURVE",
"301 -37 OFFCURVE",
"301 63 CURVE SMOOTH",
"301 124 OFFCURVE",
"281 164 OFFCURVE",
"264 189 CURVE",
"197 178 LINE",
"213 154 OFFCURVE",
"230 113 OFFCURVE",
"230 63 CURVE SMOOTH",
"230 -4 OFFCURVE",
"191 -33 OFFCURVE",
"158 -33 CURVE SMOOTH",
"137 -33 OFFCURVE",
"124 -24 OFFCURVE",
"124 -5 CURVE SMOOTH",
"124 25 OFFCURVE",
"149 37 OFFCURVE",
"239 38 CURVE",
"234 98 LINE",
"109 97 OFFCURVE",
"54 62 OFFCURVE",
"54 -3 CURVE SMOOTH",
"54 -61 OFFCURVE",
"91 -97 OFFCURVE",
"158 -97 CURVE SMOOTH"
);
},
{
closed = 1;
nodes = (
"448 169 LINE",
"448 233 LINE",
"45 233 LINE",
"45 169 LINE"
);
}
);
width = 586;
}
);
leftMetricsKey = Da.Nnagari;
rightMetricsKey = Da.Nnagari;
script = "";
category = Letter;
subCategory = Other;
},
{
color = 10;
glyphname = DaGhaRa.Nnagari;
lastChange = "2021-11-05 10:04:10 +0000";
layers = (
{
components = (
{
name = _Da.Half2;
transform = "{1, 0, 0, 1, 20, 0}";
},
{
name = _Ghasmall;
transform = "{1, 0, 0, 1, 0, -35}";
}
);
layerId = "5370898B-AC2E-42A7-894F-0BCCE5AE0A77";
paths = (
{
closed = 1;
nodes = (
"447 -210 LINE",
"447 -146 LINE",
"84 -146 LINE",
"84 -210 LINE"
);
}
);
width = 606;
}
);
leftMetricsKey = Da.Nnagari;
rightMetricsKey = Da.Nnagari;
script = "";
category = Letter;
subCategory = Other;
},
{
color = 10;
glyphname = DaDa.Nnagari;
lastChange = "2021-11-05 10:04:10 +0000";
layers = (
{
anchors = (
{
name = bottom;
position = "{355, -101}";
},
{
name = top;
position = "{324, 602}";
}
);
layerId = "5370898B-AC2E-42A7-894F-0BCCE5AE0A77";
paths = (
{
closed = 1;
nodes = (
"394 -101 LINE",
"394 3 LINE SMOOTH",
"394 95 OFFCURVE",
"353 132 OFFCURVE",
"257 132 CURVE SMOOTH",
"61 132 LINE",
"61 64 LINE",
"256 64 LINE SMOOTH",
"300 64 OFFCURVE",
"316 47 OFFCURVE",
"316 3 CURVE SMOOTH",
"316 -101 LINE"
);
},
{
closed = 1;
nodes = (
"122 100 LINE",
"222 139 OFFCURVE",
"327 225 OFFCURVE",
"374 311 CURVE",
"374 344 LINE",
"307 344 LINE",
"271 270 OFFCURVE",
"151 183 OFFCURVE",
"61 141 CURVE",
"61 100 LINE"
);
},
{
closed = 1;
nodes = (
"374 311 LINE",
"374 379 LINE",
"44 379 LINE",
"44 311 LINE"
);
},
{
closed = 1;
nodes = (
"105 347 LINE",
"205 386 OFFCURVE",
"310 472 OFFCURVE",
"357 558 CURVE",
"357 591 LINE",
"290 591 LINE",
"254 517 OFFCURVE",
"134 430 OFFCURVE",
"44 388 CURVE",
"44 347 LINE"
);
},
{
closed = 1;
nodes = (
"357 558 LINE",
"357 622 LINE",
"25 622 LINE",
"25 558 LINE"
);
}
);
width = 479;
}
);
leftMetricsKey = Da.Nnagari;
script = "";
category = Letter;
subCategory = Other;
},
{
color = 10;
glyphname = DaDha.Nnagari;
lastChange = "2021-11-05 10:04:10 +0000";
layers = (
{
anchors = (
{
name = bottom;
position = "{642, 0}";
},
{
name = top;
position = "{648, 602}";
}
);
components = (
{
name = _DaDhaPart;
}
);
layerId = "5370898B-AC2E-42A7-894F-0BCCE5AE0A77";
paths = (
{
closed = 1;
nodes = (
"681 0 LINE",
"681 622 LINE",
"603 622 LINE",
"603 0 LINE"
);
}
);
width = 796;
}
);
leftMetricsKey = Dha.Nnagari;
rightMetricsKey = MatraAa.Nnagari;
},
{
color = 10;
glyphname = DaBha.Nnagari;
lastChange = "2021-11-05 10:04:10 +0000";
layers = (
{
components = (
{
name = _Da.half;
transform = "{1, 0, 0, 1, 15, 0}";
}
);
layerId = "5370898B-AC2E-42A7-894F-0BCCE5AE0A77";
paths = (
{
closed = 1;
nodes = (
"369 107 LINE",
"369 169 LINE",
"40 169 LINE",
"40 107 LINE"
);
},
{
closed = 1;
nodes = (
"114 -101 LINE",
"114 133 LINE",
"40 133 LINE",
"40 -101 LINE"
);
}
);
width = 537;
}
);
leftMetricsKey = Bha.Nnagari;
rightMetricsKey = Da.Nnagari;
script = "";
category = Letter;
subCategory = Other;
},
{
color = 10;
glyphname = DaMa.Nnagari;
lastChange = "2021-11-05 10:04:10 +0000";
layers = (
{
anchors = (
{
name = bottom;
position = "{607, 0}";
},
{
name = top;
position = "{613, 602}";
}
);
layerId = "5370898B-AC2E-42A7-894F-0BCCE5AE0A77";
paths = (
{
closed = 1;
nodes = (
"352 1 OFFCURVE",
"397 39 OFFCURVE",
"397 119 CURVE SMOOTH",
"397 153 OFFCURVE",
"397 187 OFFCURVE",
"396 222 CURVE",
"320 221 LINE",
"320 189 OFFCURVE",
"320 158 OFFCURVE",
"320 127 CURVE SMOOTH",
"320 83 OFFCURVE",
"305 69 OFFCURVE",
"280 69 CURVE SMOOTH",
"252 69 OFFCURVE",
"238 86 OFFCURVE",
"238 110 CURVE SMOOTH",
"238 163 OFFCURVE",
"282 181 OFFCURVE",
"418 181 CURVE SMOOTH",
"604 181 LINE",
"604 252 LINE",
"418 252 LINE SMOOTH",
"229 252 OFFCURVE",
"161 206 OFFCURVE",
"161 108 CURVE SMOOTH",
"161 43 OFFCURVE",
"210 1 OFFCURVE",
"281 1 CURVE SMOOTH"
);
},
{
closed = 1;
nodes = (
"397 232 LINE",
"397 260 LINE SMOOTH",
"397 363 OFFCURVE",
"337 409 OFFCURVE",
"231 409 CURVE SMOOTH",
"54 409 LINE",
"54 341 LINE",
"226 341 LINE SMOOTH",
"292 341 OFFCURVE",
"319 316 OFFCURVE",
"319 255 CURVE SMOOTH",
"319 232 LINE"
);
},
{
closed = 1;
nodes = (
"106 377 LINE",
"202 402 OFFCURVE",
"321 493 OFFCURVE",
"357 558 CURVE",
"357 591 LINE",
"287 591 LINE",
"264 535 OFFCURVE",
"133 444 OFFCURVE",
"54 416 CURVE",
"54 377 LINE"
);
},
{
closed = 1;
nodes = (
"603 558 LINE",
"603 622 LINE",
"25 622 LINE",
"25 558 LINE"
);
},
{
closed = 1;
nodes = (
"646 0 LINE",
"646 622 LINE",
"568 622 LINE",
"568 0 LINE"
);
}
);
width = 761;
}
);
leftMetricsKey = Da.Nnagari;
rightMetricsKey = MatraAa.Nnagari;
script = "";
category = Letter;
subCategory = Other;
},
{
color = 10;
glyphname = DhaDha.Nnagari;
lastChange = "2021-11-05 10:04:10 +0000";
layers = (
{
anchors = (
{
name = bottom;
position = "{673, -70}";
},
{
name = top;
position = "{565, 603}";
}
);
layerId = "5370898B-AC2E-42A7-894F-0BCCE5AE0A77";
paths = (
{
closed = 1;
nodes = (
"244 334 OFFCURVE",
"286 371 OFFCURVE",
"286 429 CURVE SMOOTH",
"286 488 OFFCURVE",
"240 534 OFFCURVE",
"162 534 CURVE SMOOTH",
"157 534 OFFCURVE",
"145 534 OFFCURVE",
"141 533 CURVE",
"121 477 LINE",
"126 478 OFFCURVE",
"140 479 OFFCURVE",
"145 479 CURVE SMOOTH",
"193 479 OFFCURVE",
"214 455 OFFCURVE",
"214 431 CURVE SMOOTH",
"214 413 OFFCURVE",
"202 400 OFFCURVE",
"182 400 CURVE SMOOTH",
"158 400 OFFCURVE",
"137 423 OFFCURVE",
"137 464 CURVE SMOOTH",
"137 484 OFFCURVE",
"135 492 OFFCURVE",
"143 505 CURVE SMOOTH",
"146 509 OFFCURVE",
"152 520 OFFCURVE",
"156 524 CURVE SMOOTH",
"171 544 OFFCURVE",
"203 560 OFFCURVE",
"245 560 CURVE SMOOTH",
"324 560 OFFCURVE",
"368 509 OFFCURVE",
"372 438 CURVE SMOOTH",
"374 400 LINE",
"455 400 LINE",
"457 447 LINE SMOOTH",
"460 515 OFFCURVE",
"485 560 OFFCURVE",
"545 560 CURVE SMOOTH",
"606 560 OFFCURVE",
"634 517 OFFCURVE",
"634 453 CURVE SMOOTH",
"634 355 LINE",
"712 355 LINE",
"712 455 LINE SMOOTH",
"712 565 OFFCURVE",
"655 628 OFFCURVE",
"550 628 CURVE SMOOTH",
"454 628 OFFCURVE",
"400 559 OFFCURVE",
"400 468 CURVE",
"428 473 LINE",
"428 555 OFFCURVE",
"354 628 OFFCURVE",
"247 628 CURVE SMOOTH",
"142 628 OFFCURVE",
"60 563 OFFCURVE",
"60 462 CURVE SMOOTH",
"60 383 OFFCURVE",
"110 334 OFFCURVE",
"182 334 CURVE SMOOTH"
);
},
{
closed = 1;
nodes = (
"244 -6 OFFCURVE",
"286 31 OFFCURVE",
"286 89 CURVE SMOOTH",
"286 148 OFFCURVE",
"240 194 OFFCURVE",
"162 194 CURVE SMOOTH",
"157 194 OFFCURVE",
"145 194 OFFCURVE",
"141 193 CURVE",
"121 137 LINE",
"126 138 OFFCURVE",
"140 139 OFFCURVE",
"145 139 CURVE SMOOTH",
"193 139 OFFCURVE",
"214 115 OFFCURVE",
"214 91 CURVE SMOOTH",
"214 73 OFFCURVE",
"202 60 OFFCURVE",
"182 60 CURVE SMOOTH",
"158 60 OFFCURVE",
"137 83 OFFCURVE",
"137 124 CURVE SMOOTH",
"137 144 OFFCURVE",
"135 152 OFFCURVE",
"143 165 CURVE SMOOTH",
"146 169 OFFCURVE",
"152 180 OFFCURVE",
"156 184 CURVE SMOOTH",
"171 204 OFFCURVE",
"203 220 OFFCURVE",
"245 220 CURVE SMOOTH",
"324 220 OFFCURVE",
"368 169 OFFCURVE",
"372 98 CURVE SMOOTH",
"374 60 LINE",
"455 60 LINE",
"457 107 LINE SMOOTH",
"460 175 OFFCURVE",
"485 220 OFFCURVE",
"545 220 CURVE SMOOTH",
"606 220 OFFCURVE",
"634 177 OFFCURVE",
"634 113 CURVE SMOOTH",
"634 59 LINE",
"672 59 LINE",
"672 115 LINE SMOOTH",
"672 225 OFFCURVE",
"645 288 OFFCURVE",
"550 288 CURVE SMOOTH",
"454 288 OFFCURVE",
"400 219 OFFCURVE",
"400 128 CURVE",
"428 133 LINE",
"428 215 OFFCURVE",
"354 288 OFFCURVE",
"247 288 CURVE SMOOTH",
"142 288 OFFCURVE",
"60 223 OFFCURVE",
"60 122 CURVE SMOOTH",
"60 43 OFFCURVE",
"110 -6 OFFCURVE",
"182 -6 CURVE SMOOTH"
);
},
{
closed = 1;
nodes = (
"712 -70 LINE",
"712 362 LINE",
"634 362 LINE",
"634 -70 LINE"
);
}
);
width = 827;
}
);
leftMetricsKey = Dha.Nnagari;
rightMetricsKey = Dha.Nnagari;
script = "";
category = Letter;
subCategory = Other;
},
{
color = 10;
glyphname = DhaMa.Nnagari;
lastChange = "2021-11-05 10:04:10 +0000";
layers = (
{
components = (
{
name = _part.Shirorekha;
piece = {
Scale = -13.93275;
};
transform = "{1, 0, 0, 1, 991, 0}";
},
{
name = _Danda;
transform = "{1, 0, 0, 1, 867, 0}";
}
);
layerId = "5370898B-AC2E-42A7-894F-0BCCE5AE0A77";
paths = (
{
closed = 1;
nodes = (
"752 230 LINE",
"752 423 LINE SMOOTH",
"752 555 OFFCURVE",
"691 627 OFFCURVE",
"580 627 CURVE SMOOTH",
"478 627 OFFCURVE",
"421 559 OFFCURVE",
"421 437 CURVE",
"451 443 LINE",
"451 555 OFFCURVE",
"372 627 OFFCURVE",
"259 627 CURVE SMOOTH",
"147 627 OFFCURVE",
"60 558 OFFCURVE",
"60 441 CURVE SMOOTH",
"60 342 OFFCURVE",
"118 295 OFFCURVE",
"190 295 CURVE SMOOTH",
"257 295 OFFCURVE",
"305 337 OFFCURVE",
"305 401 CURVE SMOOTH",
"305 480 OFFCURVE",
"245 527 OFFCURVE",
"168 527 CURVE SMOOTH",
"163 527 OFFCURVE",
"159 527 OFFCURVE",
"154 526 CURVE",
"133 467 LINE",
"139 468 OFFCURVE",
"145 469 OFFCURVE",
"150 469 CURVE SMOOTH",
"194 470 OFFCURVE",
"229 445 OFFCURVE",
"229 403 CURVE SMOOTH",
"229 380 OFFCURVE",
"213 365 OFFCURVE",
"190 365 CURVE SMOOTH",
"164 365 OFFCURVE",
"136 384 OFFCURVE",
"136 443 CURVE SMOOTH",
"136 464 OFFCURVE",
"140 483 OFFCURVE",
"148 496 CURVE SMOOTH",
"151 501 OFFCURVE",
"158 512 OFFCURVE",
"162 517 CURVE SMOOTH",
"178 538 OFFCURVE",
"212 555 OFFCURVE",
"256 555 CURVE SMOOTH",
"345 555 OFFCURVE",
"391 491 OFFCURVE",
"395 405 CURVE SMOOTH",
"397 365 LINE",
"475 365 LINE",
"477 415 LINE SMOOTH",
"481 505 OFFCURVE",
"511 555 OFFCURVE",
"575 555 CURVE SMOOTH",
"639 555 OFFCURVE",
"674 507 OFFCURVE",
"674 421 CURVE SMOOTH",
"674 230 LINE"
);
},
{
closed = 1;
nodes = (
"712 1 OFFCURVE",
"757 39 OFFCURVE",
"757 119 CURVE SMOOTH",
"757 153 OFFCURVE",
"757 187 OFFCURVE",
"756 222 CURVE",
"680 221 LINE",
"680 189 OFFCURVE",
"680 158 OFFCURVE",
"680 127 CURVE SMOOTH",
"680 83 OFFCURVE",
"665 69 OFFCURVE",
"640 69 CURVE SMOOTH",
"612 69 OFFCURVE",
"598 86 OFFCURVE",
"598 110 CURVE SMOOTH",
"598 163 OFFCURVE",
"642 181 OFFCURVE",
"778 181 CURVE SMOOTH",
"964 181 LINE",
"964 252 LINE",
"778 252 LINE SMOOTH",
"589 252 OFFCURVE",
"521 206 OFFCURVE",
"521 108 CURVE SMOOTH",
"521 43 OFFCURVE",
"570 1 OFFCURVE",
"641 1 CURVE SMOOTH"
);
}
);
width = 1136;
}
);
leftMetricsKey = Dha.Nnagari;
rightMetricsKey = MatraAa.Nnagari;
script = "";
category = Letter;
subCategory = Other;
},
{
color = 10;
glyphname = DhaVaRa.Nnagari;
lastChange = "2021-11-05 10:04:10 +0000";
layers = (
{
anchors = (
{
name = bottom;
position = "{673, -171}";
},
{
name = top;
position = "{579, 602}";
}
);
components = (
{
name = _part.Va;
piece = {
wide = 50;
};
transform = "{1, 0, 0, 1, 152, 76}";
},
{
name = _part.Ra;
transform = "{1, 0, 0, 1, 205, -362}";
}
);
layerId = "5370898B-AC2E-42A7-894F-0BCCE5AE0A77";
paths = (
{
closed = 1;
nodes = (
"244 334 OFFCURVE",
"286 371 OFFCURVE",
"286 429 CURVE SMOOTH",
"286 488 OFFCURVE",
"240 534 OFFCURVE",
"162 534 CURVE SMOOTH",
"157 534 OFFCURVE",
"145 534 OFFCURVE",
"141 533 CURVE",
"121 477 LINE",
"126 478 OFFCURVE",
"140 479 OFFCURVE",
"145 479 CURVE SMOOTH",
"193 479 OFFCURVE",
"214 455 OFFCURVE",
"214 431 CURVE SMOOTH",
"214 413 OFFCURVE",
"202 400 OFFCURVE",
"182 400 CURVE SMOOTH",
"158 400 OFFCURVE",
"136 423 OFFCURVE",
"136 464 CURVE SMOOTH",
"136 484 OFFCURVE",
"143 492 OFFCURVE",
"146 505 CURVE SMOOTH",
"147 509 OFFCURVE",
"152 520 OFFCURVE",
"156 524 CURVE SMOOTH",
"171 544 OFFCURVE",
"203 560 OFFCURVE",
"245 560 CURVE SMOOTH",
"324 560 OFFCURVE",
"368 509 OFFCURVE",
"372 438 CURVE SMOOTH",
"374 400 LINE",
"455 400 LINE",
"457 447 LINE SMOOTH",
"460 515 OFFCURVE",
"485 560 OFFCURVE",
"545 560 CURVE SMOOTH",
"606 560 OFFCURVE",
"634 521 OFFCURVE",
"634 453 CURVE SMOOTH",
"634 355 LINE",
"712 355 LINE",
"712 455 LINE SMOOTH",
"712 569 OFFCURVE",
"655 628 OFFCURVE",
"550 628 CURVE SMOOTH",
"451 628 OFFCURVE",
"400 559 OFFCURVE",
"400 468 CURVE",
"428 473 LINE",
"428 555 OFFCURVE",
"354 628 OFFCURVE",
"247 628 CURVE SMOOTH",
"142 628 OFFCURVE",
"60 563 OFFCURVE",
"60 462 CURVE SMOOTH",
"60 383 OFFCURVE",
"110 334 OFFCURVE",
"182 334 CURVE SMOOTH"
);
},
{
closed = 1;
nodes = (
"712 -171 LINE",
"712 362 LINE",
"634 362 LINE",
"634 -171 LINE"
);
}
);
width = 827;
}
);
leftMetricsKey = Dha.Nnagari;
rightMetricsKey = Dha.Nnagari;
script = "";
category = Letter;
subCategory = Other;
},
{
color = 10;
glyphname = NaPaSa.Nnagari;
lastChange = "2021-11-05 10:04:10 +0000";
layers = (
{
components = (
{
name = Na.Nnagari;
},
{
name = _part.Shirorekha;
piece = {
Scale = 67.89421;
};
transform = "{1, 0, 0, 1, 751, 0}";
},
{
name = Sa.Nnagari;
transform = "{1, 0, 0, 1, 686, 0}";
}
);
layerId = "5370898B-AC2E-42A7-894F-0BCCE5AE0A77";
paths = (
{
closed = 1;
nodes = (
"765 274 LINE",
"765 346 LINE",
"730 346 LINE",
"634 348 OFFCURVE",
"545 377 OFFCURVE",
"545 515 CURVE SMOOTH",
"545 595 LINE",
"505 595 LINE",
"505 515 LINE SMOOTH",
"505 308 OFFCURVE",
"613 275 OFFCURVE",
"731 274 CURVE"
);
}
);
width = 1487;
}
);
leftMetricsKey = Na.Nnagari;
rightMetricsKey = MatraAa.Nnagari;
script = "";
category = Letter;
subCategory = Other;
},
{
color = 10;
glyphname = NaMaRa.Nnagari;
lastChange = "2021-11-05 10:04:10 +0000";
layers = (
{
components = (
{
name = _part.Ra;
transform = "{1, 0, 0, 1, 301, -437}";
},
{
name = _part.Danda_long;
piece = {
Length = 50;
};
transform = "{1, 0, 0, 1, 656, 0}";
},
{
name = _part.Shirorekha;
piece = {
Scale = 60.65868;
};
transform = "{1, 0, 0, 1, 793, 0}";
},
{
name = _Na.join;
transform = "{1, 0, 0, 1, 5, -6}";
},
{
name = _part.Shirorekha;
transform = "{1, 0, 0, 1, 640, 0}";
}
);
layerId = "5370898B-AC2E-42A7-894F-0BCCE5AE0A77";
paths = (
{
closed = 1;
nodes = (
"510 1 OFFCURVE",
"555 39 OFFCURVE",
"555 119 CURVE SMOOTH",
"555 276 OFFCURVE",
"550 448 OFFCURVE",
"545 599 CURVE",
"468 599 LINE",
"474 446 OFFCURVE",
"478 280 OFFCURVE",
"478 127 CURVE SMOOTH",
"478 83 OFFCURVE",
"463 69 OFFCURVE",
"438 69 CURVE SMOOTH",
"410 69 OFFCURVE",
"396 86 OFFCURVE",
"396 110 CURVE SMOOTH",
"396 163 OFFCURVE",
"440 181 OFFCURVE",
"576 181 CURVE SMOOTH",
"762 181 LINE",
"762 252 LINE",
"576 252 LINE SMOOTH",
"387 252 OFFCURVE",
"319 206 OFFCURVE",
"319 108 CURVE SMOOTH",
"319 43 OFFCURVE",
"368 1 OFFCURVE",
"439 1 CURVE SMOOTH"
);
}
);
width = 924;
}
);
leftMetricsKey = Na.Nnagari;
rightMetricsKey = MatraAa.Nnagari;
script = "";
category = Letter;
subCategory = Other;
},
{
color = 10;
glyphname = NaMaLa.Nnagari;
lastChange = "2021-11-05 10:04:10 +0000";
layers = (
{
components = (
{
name = _Na.join;
transform = "{1, 0, 0, 1, 0, -6}";
},
{
name = _part.La;
piece = {
Scale = 60;
};
transform = "{1, 0, 0, 1, 122, -281}";
},
{
name = _part.Danda_long;
piece = {
Length = 50;
};
transform = "{1, 0, 0, 1, 656, 0}";
}
);
layerId = "5370898B-AC2E-42A7-894F-0BCCE5AE0A77";
paths = (
{
closed = 1;
nodes = (
"510 16 OFFCURVE",
"555 54 OFFCURVE",
"555 134 CURVE SMOOTH",
"555 291 OFFCURVE",
"550 448 OFFCURVE",
"545 599 CURVE",
"468 599 LINE",
"474 446 OFFCURVE",
"478 295 OFFCURVE",
"478 142 CURVE SMOOTH",
"478 98 OFFCURVE",
"463 84 OFFCURVE",
"438 84 CURVE SMOOTH",
"410 84 OFFCURVE",
"396 101 OFFCURVE",
"396 125 CURVE SMOOTH",
"396 178 OFFCURVE",
"440 196 OFFCURVE",
"576 196 CURVE SMOOTH",
"762 196 LINE",
"762 267 LINE",
"576 267 LINE SMOOTH",
"387 267 OFFCURVE",
"319 221 OFFCURVE",
"319 123 CURVE SMOOTH",
"319 58 OFFCURVE",
"368 16 OFFCURVE",
"439 16 CURVE SMOOTH"
);
},
{
closed = 1;
nodes = (
"741 558 LINE",
"741 622 LINE",
"40 622 LINE",
"40 558 LINE"
);
}
);
width = 924;
}
);
leftMetricsKey = Na.Nnagari;
rightMetricsKey = MatraAa.Nnagari;
script = "";
category = Letter;
subCategory = Other;
},
{
color = 10;
glyphname = NaYaVa.Nnagari;
lastChange = "2021-11-05 10:04:10 +0000";
layers = (
{
components = (
{
name = Na.Nnagari;
},
{
name = _part.Danda_long;
piece = {
Length = 100;
};
transform = "{1, 0, 0, 1, 709, 0}";
},
{
name = _part.Va;
piece = {
wide = 0;
};
transform = "{1, 0, 0, 1, 304, -305}";
}
);
layerId = "5370898B-AC2E-42A7-894F-0BCCE5AE0A77";
paths = (
{
closed = 1;
nodes = (
"543 0 LINE",
"830 502 LINE",
"830 568 LINE",
"790 568 LINE",
"495 56 LINE",
"495 0 LINE"
);
},
{
closed = 1;
nodes = (
"843 558 LINE",
"843 622 LINE",
"501 622 LINE",
"501 558 LINE"
);
}
);
width = 977;
}
);
leftMetricsKey = Na.Nnagari;
rightMetricsKey = MatraAa.Nnagari;
script = "";
category = Letter;
subCategory = Other;
},
{
color = 10;
glyphname = NaHa.Nnagari;
lastChange = "2021-11-05 10:04:10 +0000";
layers = (
{
anchors = (
{
name = bottom;
position = "{738, -171}";
},
{
name = top;
position = "{507, 602}";
}
);
components = (
{
name = _part.Na;
transform = "{1, 0, 0, 1, -57, 201}";
},
{
name = _part.Shirorekha;
piece = {
Scale = -38.6843;
};
transform = "{1, 0, 0, 1, 503, 0}";
}
);
layerId = "5370898B-AC2E-42A7-894F-0BCCE5AE0A77";
paths = (
{
closed = 1;
nodes = (
"777 -171 LINE",
"777 -1 LINE SMOOTH",
"777 86 OFFCURVE",
"724 139 OFFCURVE",
"631 139 CURVE SMOOTH",
"549 139 OFFCURVE",
"487 89 OFFCURVE",
"464 8 CURVE",
"486 16 LINE",
"452 63 OFFCURVE",
"398 103 OFFCURVE",
"331 116 CURVE",
"341 102 LINE",
"399 119 OFFCURVE",
"540 191 OFFCURVE",
"540 377 CURVE",
"540 622 LINE",
"462 622 LINE",
"462 377 LINE",
"462 212 OFFCURVE",
"308 159 OFFCURVE",
"237 133 CURVE",
"237 63 LINE",
"322 63 OFFCURVE",
"408 7 OFFCURVE",
"449 -46 CURVE",
"522 -46 LINE",
"540 34 OFFCURVE",
"578 69 OFFCURVE",
"627 69 CURVE SMOOTH",
"673 69 OFFCURVE",
"699 42 OFFCURVE",
"699 -7 CURVE SMOOTH",
"699 -171 LINE"
);
}
);
width = 842;
}
);
leftMetricsKey = Na.Nnagari;
rightMetricsKey = "=Ha.Nnagari-40";
script = "";
category = Letter;
subCategory = Other;
},
{
color = 10;
glyphname = PaSa.Nnagari;
lastChange = "2021-11-05 10:04:10 +0000";
layers = (
{
components = (
{
name = _PaSha.half;
transform = "{1, 0, 0, 1, 105, 0}";
},
{
name = _Danda;
transform = "{1, 0, 0, 1, 805, 0}";
}
);
layerId = "5370898B-AC2E-42A7-894F-0BCCE5AE0A77";
paths = (
{
closed = 1;
nodes = (
"732 332 OFFCURVE",
"801 391 OFFCURVE",
"801 489 CURVE SMOOTH",
"801 540 OFFCURVE",
"787 576 OFFCURVE",
"763 599 CURVE",
"699 567 LINE",
"713 556 OFFCURVE",
"723 529 OFFCURVE",
"723 497 CURVE SMOOTH",
"723 442 OFFCURVE",
"690 404 OFFCURVE",
"626 404 CURVE SMOOTH",
"577 404 OFFCURVE",
"538 422 OFFCURVE",
"515 452 CURVE",
"479 392 LINE",
"503 360 OFFCURVE",
"559 332 OFFCURVE",
"631 332 CURVE SMOOTH"
);
},
{
closed = 1;
nodes = (
"940 558 LINE",
"940 622 LINE",
"298 622 LINE",
"298 558 LINE"
);
}
);
width = 1074;
}
);
leftMetricsKey = Pa.Nnagari;
rightMetricsKey = MatraAa.Nnagari;
script = "";
category = Letter;
subCategory = Other;
},
{
color = 10;
glyphname = PaSaVa.Nnagari;
lastChange = "2021-11-05 10:04:10 +0000";
layers = (
{
anchors = (
{
name = bottom;
position = "{920, -60}";
}
);
components = (
{
name = PaSa.Nnagari;
},
{
name = _part.Va;
piece = {
wide = 0;
};
transform = "{1, 0, 0, 1, 395, 20}";
}
);
layerId = "5370898B-AC2E-42A7-894F-0BCCE5AE0A77";
paths = (
{
closed = 1;
nodes = (
"959 -60 LINE",
"959 34 LINE",
"881 34 LINE",
"881 -60 LINE"
);
}
);
width = 1074;
}
);
leftMetricsKey = Pa.Nnagari;
rightMetricsKey = MatraAa.Nnagari;
script = "";
category = Letter;
subCategory = Other;
},
{
color = 10;
glyphname = BaGaRa.Nnagari;
lastChange = "2021-11-05 10:04:10 +0000";
layers = (
{
anchors = (
{
name = bottom;
position = "{516, -417}";
},
{
name = top;
position = "{521, 602}";
}
);
components = (
{
name = _part.Ra;
transform = "{1, 0, 0, 1, 42, -643}";
},
{
name = _part.Ba;
piece = {
Scale = -65;
};
transform = "{1, 0, 0, 1, 6, 213}";
},
{
name = _part.Shirorekha;
piece = {
Scale = -51.33061;
};
transform = "{1, 0, 0, 1, 529, 0}";
}
);
layerId = "5370898B-AC2E-42A7-894F-0BCCE5AE0A77";
paths = (
{
closed = 1;
nodes = (
"311 -251 OFFCURVE",
"362 -169 OFFCURVE",
"362 -58 CURVE SMOOTH",
"362 16 OFFCURVE",
"339 54 OFFCURVE",
"318 76 CURVE",
"249 62 LINE",
"271 39 OFFCURVE",
"288 5 OFFCURVE",
"288 -58 CURVE SMOOTH",
"288 -146 OFFCURVE",
"251 -183 OFFCURVE",
"201 -183 CURVE SMOOTH",
"173 -183 OFFCURVE",
"153 -167 OFFCURVE",
"153 -143 CURVE SMOOTH",
"153 -107 OFFCURVE",
"183 -76 OFFCURVE",
"306 -77 CURVE",
"301 -9 LINE",
"147 -9 OFFCURVE",
"78 -56 OFFCURVE",
"78 -143 CURVE SMOOTH",
"78 -206 OFFCURVE",
"114 -251 OFFCURVE",
"201 -251 CURVE SMOOTH"
);
},
{
closed = 1;
nodes = (
"523 51 LINE",
"523 115 LINE",
"60 115 LINE",
"60 51 LINE"
);
},
{
closed = 1;
nodes = (
"554 -417 LINE",
"554 622 LINE",
"480 622 LINE",
"480 -417 LINE"
);
}
);
width = 669;
}
);
leftMetricsKey = Ba.Nnagari;
rightMetricsKey = MatraAa.Nnagari;
script = "";
category = Letter;
subCategory = Other;
},
{
color = 10;
glyphname = BhaMa.Nnagari;
lastChange = "2021-11-05 10:04:10 +0000";
layers = (
{
components = (
{
name = _part.Shirorekha;
piece = {
Scale = -36.43993;
};
transform = "{1, 0, 0, 1, 498, 0}";
},
{
name = _Ma.half2;
transform = "{1, 0, 0, 1, 80, 0}";
}
);
layerId = "5370898B-AC2E-42A7-894F-0BCCE5AE0A77";
paths = (
{
closed = 1;
nodes = (
"158 0 LINE",
"158 364 LINE",
"80 364 LINE",
"80 0 LINE"
);
},
{
closed = 1;
nodes = (
"476 335 LINE",
"476 403 LINE",
"80 403 LINE",
"80 335 LINE"
);
}
);
width = 891;
}
);
leftMetricsKey = Bha.Nnagari;
rightMetricsKey = MatraAa.Nnagari;
script = "";
category = Letter;
subCategory = Other;
},
{
color = 10;
glyphname = BhaRaVa.Nnagari;
lastChange = "2021-11-05 10:04:10 +0000";
layers = (
{
anchors = (
{
name = bottom;
position = "{509, -341}";
},
{
name = top;
position = "{515, 602}";
}
);
components = (
{
name = _part.Danda_long;
piece = {
Length = 100;
};
transform = "{1, 0, 0, 1, 395, 0}";
},
{
name = _part.Va;
piece = {
wide = 70;
};
transform = "{1, 0, 0, 1, -5, -276}";
},
{
name = _part.Ra;
piece = {
Width = -26.4714;
};
transform = "{1, 0, 0, 1, 81, -163}";
}
);
layerId = "5370898B-AC2E-42A7-894F-0BCCE5AE0A77";
paths = (
{
closed = 1;
nodes = (
"506 301 LINE",
"506 373 LINE",
"77 373 LINE",
"77 301 LINE"
);
},
{
closed = 1;
nodes = (
"155 20 LINE",
"155 334 LINE",
"77 334 LINE",
"77 20 LINE"
);
},
{
closed = 1;
nodes = (
"506 558 LINE",
"506 622 LINE",
"40 622 LINE",
"40 558 LINE"
);
}
);
width = 663;
}
);
leftMetricsKey = Bha.Nnagari;
rightMetricsKey = MatraAa.Nnagari;
script = "";
category = Letter;
subCategory = Other;
},
{
color = 10;
glyphname = MaMaRa.Nnagari;
lastChange = "2021-11-05 10:04:10 +0000";
layers = (
{
anchors = (
{
name = bottom;
position = "{774, -241}";
},
{
name = top;
position = "{774, 602}";
}
);
components = (
{
name = _part.Ra;
piece = {
Width = -75.11042;
};
transform = "{1, 0, 0, 1, 298, -433}";
},
{
name = MaMa.Nnagari;
}
);
layerId = "5370898B-AC2E-42A7-894F-0BCCE5AE0A77";
paths = (
{
closed = 1;
nodes = (
"812 -241 LINE",
"812 37 LINE",
"734 37 LINE",
"734 -113 LINE",
"738 -129 LINE",
"738 -241 LINE"
);
}
);
width = 927;
}
);
leftMetricsKey = Ma.Nnagari;
rightMetricsKey = MatraAa.Nnagari;
script = "";
category = Letter;
subCategory = Other;
},
{
color = 10;
glyphname = MaMaLa.Nnagari;
lastChange = "2021-11-05 10:04:10 +0000";
layers = (
{
anchors = (
{
name = bottom;
position = "{774, -341}";
},
{
name = top;
position = "{774, 602}";
}
);
components = (
{
name = _part.La;
piece = {
Scale = 66.52496;
};
transform = "{1, 0, 0, 1, 114, -341}";
},
{
name = MaMa.Nnagari;
}
);
layerId = "5370898B-AC2E-42A7-894F-0BCCE5AE0A77";
paths = (
{
closed = 1;
nodes = (
"812 -341 LINE",
"812 20 LINE",
"734 20 LINE",
"734 -130 LINE",
"738 -146 LINE",
"738 -341 LINE"
);
}
);
width = 927;
}
);
leftMetricsKey = Ma.Nnagari;
rightMetricsKey = MatraAa.Nnagari;
script = "";
category = Letter;
subCategory = Other;
},
{
color = 10;
glyphname = MaRa.Nnagari;
lastChange = "2021-11-05 10:04:10 +0000";
layers = (
{
anchors = (
{
name = bottom;
position = "{528, -101}";
}
);
components = (
{
name = _part.Ra;
transform = "{1, 0, 0, 1, 50, -278}";
},
{
name = _part.Danda_long;
transform = "{1, 0, 0, 1, 414, 0}";
}
);
layerId = "5370898B-AC2E-42A7-894F-0BCCE5AE0A77";
paths = (
{
closed = 1;
nodes = (
"271 145 OFFCURVE",
"319 186 OFFCURVE",
"319 273 CURVE SMOOTH",
"319 373 OFFCURVE",
"306 477 OFFCURVE",
"292 573 CURVE",
"215 573 LINE",
"231 476 OFFCURVE",
"242 378 OFFCURVE",
"242 281 CURVE SMOOTH",
"242 229 OFFCURVE",
"224 213 OFFCURVE",
"194 213 CURVE SMOOTH",
"158 213 OFFCURVE",
"140 234 OFFCURVE",
"140 264 CURVE SMOOTH",
"140 317 OFFCURVE",
"184 335 OFFCURVE",
"320 335 CURVE SMOOTH",
"506 335 LINE",
"506 406 LINE",
"320 406 LINE SMOOTH",
"131 406 OFFCURVE",
"63 360 OFFCURVE",
"63 262 CURVE SMOOTH",
"63 191 OFFCURVE",
"117 145 OFFCURVE",
"195 145 CURVE SMOOTH"
);
},
{
closed = 1;
nodes = (
"506 558 LINE",
"506 622 LINE",
"45 622 LINE",
"45 558 LINE"
);
}
);
width = 681;
}
);
leftMetricsKey = Ma.Nnagari;
rightMetricsKey = MatraAa.Nnagari;
script = "";
category = Letter;
subCategory = Other;
},
{
color = 10;
glyphname = MaHa.Nnagari;
lastChange = "2021-11-05 10:04:10 +0000";
layers = (
{
anchors = (
{
name = bottom;
position = "{762, -171}";
},
{
name = top;
position = "{531, 602}";
}
);
components = (
{
name = _part.Shirorekha;
piece = {
Scale = -61.29086;
};
transform = "{1, 0, 0, 1, 559, 0}";
}
);
layerId = "5370898B-AC2E-42A7-894F-0BCCE5AE0A77";
paths = (
{
closed = 1;
nodes = (
"801 -171 LINE",
"801 -1 LINE SMOOTH",
"801 86 OFFCURVE",
"748 139 OFFCURVE",
"655 139 CURVE SMOOTH",
"573 139 OFFCURVE",
"511 89 OFFCURVE",
"488 8 CURVE",
"510 16 LINE",
"476 63 OFFCURVE",
"422 103 OFFCURVE",
"355 116 CURVE",
"365 102 LINE",
"423 119 OFFCURVE",
"564 191 OFFCURVE",
"564 377 CURVE",
"564 622 LINE",
"486 622 LINE",
"486 377 LINE",
"486 212 OFFCURVE",
"332 159 OFFCURVE",
"261 133 CURVE",
"261 63 LINE",
"346 63 OFFCURVE",
"432 7 OFFCURVE",
"473 -46 CURVE",
"546 -46 LINE",
"564 34 OFFCURVE",
"602 69 OFFCURVE",
"651 69 CURVE SMOOTH",
"697 69 OFFCURVE",
"723 42 OFFCURVE",
"723 -7 CURVE SMOOTH",
"723 -171 LINE"
);
},
{
closed = 1;
nodes = (
"254 205 OFFCURVE",
"299 243 OFFCURVE",
"299 323 CURVE SMOOTH",
"299 413 OFFCURVE",
"289 506 OFFCURVE",
"279 593 CURVE",
"202 593 LINE",
"214 506 OFFCURVE",
"222 418 OFFCURVE",
"222 331 CURVE SMOOTH",
"222 287 OFFCURVE",
"207 273 OFFCURVE",
"182 273 CURVE SMOOTH",
"154 273 OFFCURVE",
"140 290 OFFCURVE",
"140 314 CURVE SMOOTH",
"140 367 OFFCURVE",
"184 385 OFFCURVE",
"320 385 CURVE SMOOTH",
"506 385 LINE",
"506 456 LINE",
"320 456 LINE SMOOTH",
"131 456 OFFCURVE",
"63 410 OFFCURVE",
"63 312 CURVE SMOOTH",
"63 247 OFFCURVE",
"112 205 OFFCURVE",
"183 205 CURVE SMOOTH"
);
}
);
width = 866;
}
);
leftMetricsKey = Ma.Nnagari;
rightMetricsKey = "=Ha.Nnagari-40";
script = "";
category = Letter;
subCategory = Other;
},
{
color = 10;
glyphname = YaVa.Nnagari;
lastChange = "2021-11-05 10:04:10 +0000";
layers = (
{
components = (
{
name = _part.Va;
piece = {
wide = 70;
};
transform = "{1, 0, 0, 1, 33, -164}";
},
{
name = _part.Danda_long;
piece = {
Length = 18.19788;
};
transform = "{1, 0, 0, 1, 444, 0}";
}
);
layerId = "5370898B-AC2E-42A7-894F-0BCCE5AE0A77";
paths = (
{
closed = 1;
nodes = (
"458 187 OFFCURVE",
"549 261 OFFCURVE",
"580 378 CURVE",
"530 396 LINE",
"507 314 OFFCURVE",
"420 259 OFFCURVE",
"311 259 CURVE SMOOTH",
"226 259 OFFCURVE",
"153 286 OFFCURVE",
"106 342 CURVE",
"113 304 LINE",
"210 339 OFFCURVE",
"275 406 OFFCURVE",
"275 501 CURVE SMOOTH",
"275 531 OFFCURVE",
"269 562 OFFCURVE",
"256 594 CURVE",
"178 594 LINE",
"190 563 OFFCURVE",
"196 534 OFFCURVE",
"196 507 CURVE SMOOTH",
"196 430 OFFCURVE",
"148 388 OFFCURVE",
"59 352 CURVE",
"59 280 LINE",
"124 214 OFFCURVE",
"214 187 OFFCURVE",
"304 187 CURVE SMOOTH"
);
},
{
closed = 1;
nodes = (
"558 558 LINE",
"558 622 LINE",
"37 622 LINE",
"37 558 LINE"
);
}
);
width = 712;
}
);
leftMetricsKey = Ya.Nnagari;
rightMetricsKey = MatraAa.Nnagari;
script = "";
category = Letter;
subCategory = Other;
},
{
color = 10;
glyphname = LaGa.Nnagari;
lastChange = "2021-11-05 10:04:10 +0000";
layers = (
{
components = (
{
alignment = -1;
name = _La.half;
},
{
name = _part.Danda_long;
piece = {
Length = 17;
};
transform = "{1, 0, 0, 1, 495, 0}";
},
{
name = _part.Ga;
piece = {
Scale = 30;
};
transform = "{1, 0, 0, 1, 63, -469}";
}
);
layerId = "5370898B-AC2E-42A7-894F-0BCCE5AE0A77";
paths = (
{
closed = 1;
nodes = (
"587 90 LINE",
"587 154 LINE",
"54 154 LINE",
"54 90 LINE"
);
}
);
width = 763;
}
);
leftMetricsKey = La.Nnagari;
rightMetricsKey = MatraAa.Nnagari;
script = "";
category = Letter;
subCategory = Other;
},
{
color = 10;
glyphname = LaGaVa.Nnagari;
lastChange = "2021-11-05 10:04:10 +0000";
layers = (
{
components = (
{
name = _part.Va;
piece = {
wide = -70;
};
transform = "{1, 0, 0, 1, 89, -327}";
},
{
alignment = -1;
name = _La.half;
},
{
name = _part.Danda_long;
piece = {
Length = 100;
};
transform = "{1, 0, 0, 1, 495, 0}";
}
);
layerId = "5370898B-AC2E-42A7-894F-0BCCE5AE0A77";
paths = (
{
closed = 1;
nodes = (
"302 -201 OFFCURVE",
"353 -119 OFFCURVE",
"353 -8 CURVE SMOOTH",
"353 88 OFFCURVE",
"329 139 OFFCURVE",
"309 166 CURVE",
"240 152 LINE",
"262 122 OFFCURVE",
"279 64 OFFCURVE",
"279 -8 CURVE SMOOTH",
"279 -96 OFFCURVE",
"242 -133 OFFCURVE",
"192 -133 CURVE SMOOTH",
"164 -133 OFFCURVE",
"144 -117 OFFCURVE",
"144 -93 CURVE SMOOTH",
"144 -57 OFFCURVE",
"174 -26 OFFCURVE",
"297 -27 CURVE",
"292 41 LINE",
"128 41 OFFCURVE",
"69 -6 OFFCURVE",
"69 -93 CURVE SMOOTH",
"69 -156 OFFCURVE",
"105 -201 OFFCURVE",
"192 -201 CURVE SMOOTH"
);
},
{
closed = 1;
nodes = (
"587 110 LINE",
"587 174 LINE",
"54 174 LINE",
"54 110 LINE"
);
}
);
width = 763;
}
);
leftMetricsKey = La.Nnagari;
rightMetricsKey = MatraAa.Nnagari;
script = "";
category = Letter;
subCategory = Other;
},
{
color = 10;
glyphname = LaMa.Nnagari;
lastChange = "2021-11-05 10:04:10 +0000";
layers = (
{
components = (
{
name = _part.Shirorekha;
transform = "{1, 0, 0, 1, 640, 0}";
},
{
alignment = -1;
name = _Ma.half2;
transform = "{1, 0, 0, 1, 262, 1}";
}
);
layerId = "5370898B-AC2E-42A7-894F-0BCCE5AE0A77";
paths = (
{
closed = 1;
nodes = (
"216 0 LINE",
"181 64 OFFCURVE",
"143 138 OFFCURVE",
"143 224 CURVE SMOOTH",
"143 302 OFFCURVE",
"180 345 OFFCURVE",
"243 345 CURVE SMOOTH",
"298 345 OFFCURVE",
"338 310 OFFCURVE",
"340 220 CURVE SMOOTH",
"341 182 LINE",
"417 182 LINE",
"418 220 LINE SMOOTH",
"420 313 OFFCURVE",
"473 349 OFFCURVE",
"536 349 CURVE SMOOTH",
"578 349 OFFCURVE",
"610 336 OFFCURVE",
"629 324 CURVE",
"639 390 LINE",
"619 403 OFFCURVE",
"580 418 OFFCURVE",
"532 418 CURVE SMOOTH",
"407 418 OFFCURVE",
"362 330 OFFCURVE",
"362 229 CURVE",
"400 229 LINE",
"400 328 OFFCURVE",
"351 417 OFFCURVE",
"242 417 CURVE SMOOTH",
"116 417 OFFCURVE",
"65 332 OFFCURVE",
"65 224 CURVE SMOOTH",
"65 131 OFFCURVE",
"98 64 OFFCURVE",
"133 0 CURVE"
);
}
);
width = 1073;
}
);
leftMetricsKey = La.Nnagari;
rightMetricsKey = MatraAa.Nnagari;
script = "";
category = Letter;
subCategory = Other;
},
{
color = 10;
glyphname = LaRa.Nnagari;
lastChange = "2021-11-05 10:04:10 +0000";
layers = (
{
anchors = (
{
name = bottom;
position = "{608, -179}";
}
);
components = (
{
name = _La.half;
},
{
name = _part.Danda_long;
piece = {
Length = -35;
};
transform = "{1, 0, 0, 1, 494, 0}";
}
);
layerId = "5370898B-AC2E-42A7-894F-0BCCE5AE0A77";
paths = (
{
closed = 1;
nodes = (
"593 -59 LINE",
"593 11 LINE",
"200 11 LINE",
"200 -59 LINE"
);
}
);
width = 761;
}
);
leftMetricsKey = La.Nnagari;
rightMetricsKey = MatraAa.Nnagari;
script = "";
category = Letter;
subCategory = Other;
},
{
color = 10;
glyphname = LaLa.Nnagari;
lastChange = "2021-11-05 10:04:10 +0000";
layers = (
{
components = (
{
name = _La.half2;
}
);
layerId = "5370898B-AC2E-42A7-894F-0BCCE5AE0A77";
paths = (
{
closed = 1;
nodes = (
"203 -241 LINE",
"162 -180 OFFCURVE",
"143 -132 OFFCURVE",
"143 -87 CURVE SMOOTH",
"143 -22 OFFCURVE",
"179 14 OFFCURVE",
"239 14 CURVE SMOOTH",
"296 14 OFFCURVE",
"337 -21 OFFCURVE",
"340 -111 CURVE SMOOTH",
"341 -139 LINE",
"417 -139 LINE",
"418 -111 LINE SMOOTH",
"421 -18 OFFCURVE",
"473 18 OFFCURVE",
"536 18 CURVE SMOOTH",
"560 18 OFFCURVE",
"585 12 OFFCURVE",
"609 -3 CURVE",
"609 69 LINE",
"587 84 OFFCURVE",
"562 90 OFFCURVE",
"532 90 CURVE SMOOTH",
"444 90 OFFCURVE",
"386 43 OFFCURVE",
"370 -38 CURVE",
"390 -38 LINE",
"374 38 OFFCURVE",
"325 86 OFFCURVE",
"234 86 CURVE SMOOTH",
"135 86 OFFCURVE",
"65 25 OFFCURVE",
"65 -87 CURVE SMOOTH",
"65 -134 OFFCURVE",
"81 -183 OFFCURVE",
"118 -241 CURVE"
);
}
);
width = 773;
}
);
leftMetricsKey = La.Nnagari;
rightMetricsKey = MatraAa.Nnagari;
script = "";
category = Letter;
subCategory = Other;
},
{
color = 10;
glyphname = LaHa.Nnagari;
lastChange = "2021-11-05 10:04:10 +0000";
layers = (
{
anchors = (
{
name = bottom;
position = "{768, -171}";
},
{
name = top;
position = "{537, 602}";
}
);
components = (
{
name = _part.La;
transform = "{1, 0, 0, 1, -128, 201}";
},
{
name = _part.Shirorekha;
piece = {
Scale = -61.29086;
};
transform = "{1, 0, 0, 1, 554, 0}";
}
);
layerId = "5370898B-AC2E-42A7-894F-0BCCE5AE0A77";
paths = (
{
closed = 1;
nodes = (
"807 -171 LINE",
"807 -1 LINE SMOOTH",
"807 86 OFFCURVE",
"754 139 OFFCURVE",
"661 139 CURVE SMOOTH",
"579 139 OFFCURVE",
"517 89 OFFCURVE",
"494 8 CURVE",
"516 16 LINE",
"482 63 OFFCURVE",
"428 103 OFFCURVE",
"361 116 CURVE",
"371 102 LINE",
"429 119 OFFCURVE",
"570 191 OFFCURVE",
"570 377 CURVE",
"570 622 LINE",
"492 622 LINE",
"492 377 LINE",
"492 212 OFFCURVE",
"338 159 OFFCURVE",
"267 133 CURVE",
"267 63 LINE",
"352 63 OFFCURVE",
"438 7 OFFCURVE",
"479 -46 CURVE",
"552 -46 LINE",
"570 34 OFFCURVE",
"608 69 OFFCURVE",
"657 69 CURVE SMOOTH",
"703 69 OFFCURVE",
"729 42 OFFCURVE",
"729 -7 CURVE SMOOTH",
"729 -171 LINE"
);
}
);
width = 872;
}
);
leftMetricsKey = La.Nnagari;
rightMetricsKey = "=Ha.Nnagari-40";
script = "";
category = Letter;
subCategory = Other;
},
{
color = 10;
glyphname = VaVa.Nnagari;
lastChange = "2021-11-05 10:04:10 +0000";
layers = (
{
anchors = (
{
name = bottom;
position = "{462, -241}";
},
{
name = top;
position = "{468, 602}";
}
);
components = (
{
name = _Va.half;
},
{
name = _part.Va;
piece = {
wide = 70;
};
transform = "{1, 0, 0, 1, -59, -160}";
}
);
layerId = "5370898B-AC2E-42A7-894F-0BCCE5AE0A77";
paths = (
{
closed = 1;
nodes = (
"501 -241 LINE",
"501 -84 LINE",
"423 -84 LINE",
"423 -241 LINE"
);
}
);
width = 616;
}
);
leftMetricsKey = Va.Nnagari;
rightMetricsKey = MatraAa.Nnagari;
},
{
color = 10;
glyphname = SsaTtha.Nnagari;
lastChange = "2021-11-05 10:04:10 +0000";
layers = (
{
components = (
{
name = _Pa.half;
transform = "{1, 0, 0, 1, 10, 0}";
}
);
layerId = "5370898B-AC2E-42A7-894F-0BCCE5AE0A77";
paths = (
{
closed = 1;
nodes = (
"344 -125 OFFCURVE",
"418 -65 OFFCURVE",
"418 37 CURVE SMOOTH",
"418 138 OFFCURVE",
"344 201 OFFCURVE",
"233 201 CURVE SMOOTH",
"124 201 OFFCURVE",
"52 140 OFFCURVE",
"52 37 CURVE SMOOTH",
"52 -65 OFFCURVE",
"124 -125 OFFCURVE",
"233 -125 CURVE SMOOTH"
);
},
{
closed = 1;
nodes = (
"169 -53 OFFCURVE",
"126 -17 OFFCURVE",
"126 37 CURVE SMOOTH",
"126 92 OFFCURVE",
"169 129 OFFCURVE",
"233 129 CURVE SMOOTH",
"297 129 OFFCURVE",
"340 92 OFFCURVE",
"340 37 CURVE SMOOTH",
"340 -17 OFFCURVE",
"297 -53 OFFCURVE",
"233 -53 CURVE SMOOTH"
);
},
{
closed = 1;
nodes = (
"309 218 OFFCURVE",
"356 313 OFFCURVE",
"356 427 CURVE SMOOTH",
"356 510 OFFCURVE",
"334 553 OFFCURVE",
"314 589 CURVE",
"243 589 LINE",
"265 549 OFFCURVE",
"284 495 OFFCURVE",
"284 427 CURVE SMOOTH",
"284 326 OFFCURVE",
"237 239 OFFCURVE",
"183 182 CURVE",
"255 162 LINE"
);
}
);
width = 671;
}
);
rightMetricsKey = MatraAa.Nnagari;
},
{
color = 10;
glyphname = SsaTta.Nnagari;
lastChange = "2021-11-05 10:04:10 +0000";
layers = (
{
anchors = (
{
name = bottom;
position = "{524, -101}";
}
);
components = (
{
name = _part.Danda_long;
transform = "{1, 0, 0, 1, 410, 0}";
}
);
layerId = "5370898B-AC2E-42A7-894F-0BCCE5AE0A77";
paths = (
{
closed = 1;
nodes = (
"441 271 OFFCURVE",
"506 334 OFFCURVE",
"538 390 CURVE",
"500 443 LINE",
"465 373 OFFCURVE",
"391 341 OFFCURVE",
"310 341 CURVE SMOOTH",
"210 341 OFFCURVE",
"138 382 OFFCURVE",
"138 505 CURVE SMOOTH",
"138 605 LINE",
"60 605 LINE",
"60 505 LINE SMOOTH",
"60 352 OFFCURVE",
"149 271 OFFCURVE",
"310 271 CURVE SMOOTH"
);
},
{
closed = 1;
nodes = (
"285 -101 LINE",
"251 19 OFFCURVE",
"169 123 OFFCURVE",
"106 157 CURVE",
"60 157 LINE",
"60 112 LINE",
"122 62 OFFCURVE",
"178 -12 OFFCURVE",
"209 -101 CURVE"
);
},
{
closed = 1;
nodes = (
"107 128 LINE",
"267 163 OFFCURVE",
"363 274 OFFCURVE",
"363 442 CURVE SMOOTH",
"363 495 OFFCURVE",
"355 548 OFFCURVE",
"341 589 CURVE",
"270 589 LINE",
"284 551 OFFCURVE",
"291 499 OFFCURVE",
"291 442 CURVE SMOOTH",
"291 294 OFFCURVE",
"209 217 OFFCURVE",
"60 176 CURVE",
"60 123 LINE"
);
},
{
closed = 1;
nodes = (
"528 558 LINE",
"528 622 LINE",
"60 622 LINE",
"60 558 LINE"
);
}
);
width = 677;
}
);
rightMetricsKey = MatraAa.Nnagari;
script = "";
category = Letter;
subCategory = Other;
},
{
color = 10;
glyphname = SsaTthaRa.Nnagari;
lastChange = "2021-11-05 10:04:10 +0000";
layers = (
{
anchors = (
{
name = bottom;
position = "{518, -341}";
}
);
components = (
{
name = _part.Ra;
transform = "{1, 0, 0, 1, 44, -529}";
},
{
name = SsaTtha.Nnagari;
}
);
layerId = "5370898B-AC2E-42A7-894F-0BCCE5AE0A77";
paths = (
{
closed = 1;
nodes = (
"556 -341 LINE",
"556 -53 LINE",
"482 -53 LINE",
"482 -341 LINE"
);
}
);
width = 671;
}
);
leftMetricsKey = SsaTtha.Nnagari;
rightMetricsKey = MatraAa.Nnagari;
},
{
color = 10;
glyphname = SsaTthaVa.Nnagari;
lastChange = "2021-11-05 10:04:10 +0000";
layers = (
{
anchors = (
{
name = bottom;
position = "{518, -341}";
}
);
components = (
{
name = _Pa.half;
transform = "{1, 0, 0, 1, 10, 0}";
},
{
name = _part.Va;
piece = {
wide = -69.17237;
};
transform = "{1, 0, 0, 1, -4, -338}";
}
);
layerId = "5370898B-AC2E-42A7-894F-0BCCE5AE0A77";
paths = (
{
closed = 1;
nodes = (
"344 -85 OFFCURVE",
"418 -25 OFFCURVE",
"418 77 CURVE SMOOTH",
"418 178 OFFCURVE",
"344 241 OFFCURVE",
"233 241 CURVE SMOOTH",
"124 241 OFFCURVE",
"52 180 OFFCURVE",
"52 77 CURVE SMOOTH",
"52 -25 OFFCURVE",
"124 -85 OFFCURVE",
"233 -85 CURVE SMOOTH"
);
},
{
closed = 1;
nodes = (
"169 -13 OFFCURVE",
"126 23 OFFCURVE",
"126 77 CURVE SMOOTH",
"126 132 OFFCURVE",
"169 169 OFFCURVE",
"233 169 CURVE SMOOTH",
"297 169 OFFCURVE",
"340 132 OFFCURVE",
"340 77 CURVE SMOOTH",
"340 23 OFFCURVE",
"297 -13 OFFCURVE",
"233 -13 CURVE SMOOTH"
);
},
{
closed = 1;
nodes = (
"556 -341 LINE",
"556 -10 LINE",
"482 -10 LINE",
"482 -341 LINE"
);
},
{
closed = 1;
nodes = (
"309 258 OFFCURVE",
"356 353 OFFCURVE",
"356 467 CURVE SMOOTH",
"356 518 OFFCURVE",
"348 555 OFFCURVE",
"336 583 CURVE",
"264 583 LINE",
"276 550 OFFCURVE",
"284 512 OFFCURVE",
"284 467 CURVE SMOOTH",
"284 366 OFFCURVE",
"237 279 OFFCURVE",
"183 222 CURVE",
"255 202 LINE"
);
}
);
width = 671;
}
);
leftMetricsKey = SsaTtha.Nnagari;
rightMetricsKey = MatraAa.Nnagari;
},
{
color = 10;
glyphname = SsaNnaVa.Nnagari;
lastChange = "2021-11-05 10:04:10 +0000";
layers = (
{
components = (
{
name = _Ssa.half2;
},
{
name = _part.Danda_long;
piece = {
Length = 100;
};
transform = "{1, 0, 0, 1, 399, 0}";
},
{
name = _part.Va;
piece = {
wide = -69.17237;
};
transform = "{1, 0, 0, 1, -8, -323}";
}
);
layerId = "5370898B-AC2E-42A7-894F-0BCCE5AE0A77";
paths = (
{
closed = 1;
nodes = (
"514 121 LINE",
"514 185 LINE",
"72 185 LINE",
"72 121 LINE"
);
},
{
closed = 1;
nodes = (
"126 -34 LINE",
"126 185 LINE",
"50 185 LINE",
"50 -34 LINE"
);
},
{
closed = 1;
nodes = (
"347 -34 LINE",
"347 185 LINE",
"271 185 LINE",
"271 -34 LINE"
);
}
);
width = 667;
}
);
rightMetricsKey = MatraAa.Nnagari;
script = "";
category = Letter;
subCategory = Other;
},
{
color = 10;
glyphname = SsaPaVa.Nnagari;
lastChange = "2021-11-05 10:04:10 +0000";
layers = (
{
anchors = (
{
name = bottom;
position = "{956, -101}";
}
);
components = (
{
name = Ssa.Nnagari;
},
{
name = _part.Shirorekha;
transform = "{1, 0, 0, 1, 974, 0}";
},
{
name = _part.Danda_long;
transform = "{1, 0, 0, 1, 842, 0}";
},
{
name = _part.Va;
piece = {
wide = 0;
};
transform = "{1, 0, 0, 1, 430, -43}";
}
);
layerId = "5370898B-AC2E-42A7-894F-0BCCE5AE0A77";
paths = (
{
closed = 1;
nodes = (
"886 289 OFFCURVE",
"943 371 OFFCURVE",
"972 432 CURVE",
"921 467 LINE",
"897 404 OFFCURVE",
"828 361 OFFCURVE",
"739 361 CURVE SMOOTH",
"629 361 OFFCURVE",
"556 420 OFFCURVE",
"556 563 CURVE SMOOTH",
"556 586 LINE",
"508 586 LINE",
"508 563 LINE SMOOTH",
"508 389 OFFCURVE",
"579 289 OFFCURVE",
"739 289 CURVE SMOOTH"
);
}
);
width = 1109;
}
);
rightMetricsKey = MatraAa.Nnagari;
script = "";
category = Letter;
subCategory = Other;
},
{
color = 10;
glyphname = SaRa.Nnagari;
lastChange = "2021-11-05 10:04:10 +0000";
layers = (
{
anchors = (
{
name = bottom;
position = "{687, 0}";
},
{
name = top;
position = "{693, 602}";
}
);
components = (
{
name = _part.Ra;
transform = "{1, 0, 0, 1, 267, -130}";
},
{
name = _Danda;
transform = "{1, 0, 0, 1, 572, 0}";
}
);
layerId = "5370898B-AC2E-42A7-894F-0BCCE5AE0A77";
paths = (
{
closed = 1;
nodes = (
"349 0 LINE",
"211 196 LINE SMOOTH",
"171 253 OFFCURVE",
"130 298 OFFCURVE",
"88 320 CURVE",
"43 320 LINE",
"43 275 LINE",
"67 258 OFFCURVE",
"102 218 OFFCURVE",
"141 163 CURVE SMOOTH",
"258 0 LINE"
);
},
{
closed = 1;
nodes = (
"67 286 LINE",
"169 296 OFFCURVE",
"274 368 OFFCURVE",
"274 539 CURVE SMOOTH",
"274 602 LINE",
"196 602 LINE",
"196 542 LINE SMOOTH",
"196 410 OFFCURVE",
"128 355 OFFCURVE",
"52 347 CURVE SMOOTH",
"43 346 LINE",
"43 286 LINE"
);
},
{
closed = 1;
nodes = (
"459 332 OFFCURVE",
"528 391 OFFCURVE",
"528 489 CURVE SMOOTH",
"528 540 OFFCURVE",
"514 576 OFFCURVE",
"490 599 CURVE",
"426 567 LINE",
"440 556 OFFCURVE",
"450 529 OFFCURVE",
"450 497 CURVE SMOOTH",
"450 442 OFFCURVE",
"417 404 OFFCURVE",
"353 404 CURVE SMOOTH",
"304 404 OFFCURVE",
"265 422 OFFCURVE",
"242 452 CURVE",
"206 392 LINE",
"230 360 OFFCURVE",
"286 332 OFFCURVE",
"358 332 CURVE SMOOTH"
);
},
{
closed = 1;
nodes = (
"680 558 LINE",
"680 622 LINE",
"25 622 LINE",
"25 558 LINE"
);
}
);
width = 841;
}
);
leftMetricsKey = Sa.Nnagari;
rightMetricsKey = MatraAa.Nnagari;
script = "";
category = Letter;
subCategory = Other;
},
{
color = 10;
glyphname = HaMa.Nnagari;
lastChange = "2021-11-05 10:04:10 +0000";
layers = (
{
components = (
{
name = _Danda;
transform = "{1, 0, 0, 1, 704, 0}";
},
{
name = _part.Shirorekha;
transform = "{1, 0, 0, 1, 824, 0}";
}
);
layerId = "5370898B-AC2E-42A7-894F-0BCCE5AE0A77";
paths = (
{
closed = 1;
nodes = (
"620 231 LINE",
"620 322 LINE SMOOTH",
"620 404 OFFCURVE",
"569 462 OFFCURVE",
"476 462 CURVE SMOOTH",
"394 462 OFFCURVE",
"330 407 OFFCURVE",
"306 316 CURVE",
"339 316 LINE",
"301 373 OFFCURVE",
"238 407 OFFCURVE",
"162 420 CURVE",
"161 399 LINE",
"245 431 OFFCURVE",
"328 497 OFFCURVE",
"383 575 CURVE",
"286 584 LINE",
"248 535 OFFCURVE",
"166 462 OFFCURVE",
"80 436 CURVE",
"80 366 LINE",
"165 366 OFFCURVE",
"251 326 OFFCURVE",
"292 267 CURVE",
"365 267 LINE",
"385 354 OFFCURVE",
"424 392 OFFCURVE",
"479 392 CURVE SMOOTH",
"521 392 OFFCURVE",
"542 365 OFFCURVE",
"542 316 CURVE SMOOTH",
"542 231 LINE"
);
},
{
closed = 1;
nodes = (
"577 1 OFFCURVE",
"622 39 OFFCURVE",
"622 119 CURVE SMOOTH",
"622 153 OFFCURVE",
"622 187 OFFCURVE",
"621 222 CURVE",
"545 221 LINE",
"545 189 OFFCURVE",
"545 158 OFFCURVE",
"545 127 CURVE SMOOTH",
"545 83 OFFCURVE",
"530 69 OFFCURVE",
"505 69 CURVE SMOOTH",
"477 69 OFFCURVE",
"463 86 OFFCURVE",
"463 110 CURVE SMOOTH",
"463 163 OFFCURVE",
"507 181 OFFCURVE",
"643 181 CURVE SMOOTH",
"829 181 LINE",
"829 252 LINE",
"643 252 LINE SMOOTH",
"454 252 OFFCURVE",
"386 206 OFFCURVE",
"386 108 CURVE SMOOTH",
"386 43 OFFCURVE",
"435 1 OFFCURVE",
"506 1 CURVE SMOOTH"
);
},
{
closed = 1;
nodes = (
"399 558 LINE",
"399 622 LINE",
"25 622 LINE",
"25 558 LINE"
);
}
);
width = 973;
}
);
leftMetricsKey = Ha.Nnagari;
rightMetricsKey = MatraAa.Nnagari;
script = "";
category = Letter;
subCategory = Other;
},
{
color = 10;
glyphname = LlaGa.Nnagari;
lastChange = "2021-11-05 10:04:10 +0000";
layers = (
{
components = (
{
name = _part.Shirorekha;
transform = "{1, 0, 0, 1, 640, 0}";
},
{
name = _Lla.half;
},
{
alignment = -1;
name = _part.Danda_long;
piece = {
Length = 16.60501;
};
transform = "{1, 0, 0, 1, 518, 0}";
},
{
name = _part.Ga;
piece = {
Scale = 30;
};
transform = "{1, 0, 0, 1, 85, -480}";
}
);
layerId = "5370898B-AC2E-42A7-894F-0BCCE5AE0A77";
paths = (
{
closed = 1;
nodes = (
"623 78 LINE",
"623 142 LINE",
"90 142 LINE",
"90 78 LINE"
);
}
);
width = 786;
}
);
leftMetricsKey = Lla.Nnagari;
rightMetricsKey = MatraAa.Nnagari;
script = "";
category = Letter;
subCategory = Other;
},
{
color = 10;
glyphname = LlaHa.Nnagari;
lastChange = "2021-11-05 10:04:10 +0000";
layers = (
{
anchors = (
{
name = bottom;
position = "{854, -171}";
},
{
name = top;
position = "{623, 602}";
}
);
components = (
{
name = _Lla.half;
transform = "{1, 0, 0, 1, -6, -27}";
},
{
name = _part.Shirorekha;
transform = "{1, 0, 0, 1, 640, 0}";
}
);
layerId = "5370898B-AC2E-42A7-894F-0BCCE5AE0A77";
paths = (
{
closed = 1;
nodes = (
"893 -171 LINE",
"893 -1 LINE SMOOTH",
"893 86 OFFCURVE",
"840 139 OFFCURVE",
"747 139 CURVE SMOOTH",
"665 139 OFFCURVE",
"603 89 OFFCURVE",
"580 8 CURVE",
"602 16 LINE",
"568 63 OFFCURVE",
"514 103 OFFCURVE",
"447 116 CURVE",
"457 102 LINE",
"515 119 OFFCURVE",
"656 191 OFFCURVE",
"656 377 CURVE",
"656 622 LINE",
"578 622 LINE",
"578 377 LINE",
"578 212 OFFCURVE",
"424 159 OFFCURVE",
"353 133 CURVE",
"353 63 LINE",
"438 63 OFFCURVE",
"524 7 OFFCURVE",
"565 -46 CURVE",
"638 -46 LINE",
"656 34 OFFCURVE",
"694 69 OFFCURVE",
"743 69 CURVE SMOOTH",
"789 69 OFFCURVE",
"815 42 OFFCURVE",
"815 -7 CURVE SMOOTH",
"815 -171 LINE"
);
}
);
width = 958;
}
);
rightMetricsKey = LaHa.Nnagari;
},
{
color = 0;
glyphname = Ttha.Nnagari.ss01;
lastChange = "2021-11-05 10:04:10 +0000";
layers = (
{
anchors = (
{
name = bottom;
position = "{353, 0}";
},
{
name = top;
position = "{359, 602}";
}
);
layerId = "5370898B-AC2E-42A7-894F-0BCCE5AE0A77";
paths = (
{
closed = 1;
nodes = (
"540 -4 OFFCURVE",
"650 85 OFFCURVE",
"650 231 CURVE SMOOTH",
"650 376 OFFCURVE",
"547 463 OFFCURVE",
"353 463 CURVE",
"161 463 OFFCURVE",
"55 378 OFFCURVE",
"55 231 CURVE SMOOTH",
"55 84 OFFCURVE",
"163 -4 OFFCURVE",
"353 -4 CURVE SMOOTH"
);
},
{
closed = 1;
nodes = (
"214 68 OFFCURVE",
"137 126 OFFCURVE",
"137 231 CURVE SMOOTH",
"137 335 OFFCURVE",
"207 393 OFFCURVE",
"353 393 CURVE",
"496 393 OFFCURVE",
"568 337 OFFCURVE",
"568 231 CURVE SMOOTH",
"568 126 OFFCURVE",
"491 68 OFFCURVE",
"353 68 CURVE SMOOTH"
);
},
{
closed = 1;
nodes = (
"392 170 OFFCURVE",
"418 196 OFFCURVE",
"418 233 CURVE SMOOTH",
"418 270 OFFCURVE",
"392 296 OFFCURVE",
"353 296 CURVE SMOOTH",
"314 296 OFFCURVE",
"288 270 OFFCURVE",
"288 233 CURVE SMOOTH",
"288 196 OFFCURVE",
"314 170 OFFCURVE",
"353 170 CURVE SMOOTH"
);
},
{
closed = 1;
nodes = (
"350 558 LINE",
"350 622 LINE",
"40 622 LINE",
"40 558 LINE"
);
},
{
closed = 1;
nodes = (
"392 438 LINE",
"392 622 LINE",
"314 622 LINE",
"314 438 LINE"
);
}
);
width = 740;
}
);
script = "";
category = Letter;
subCategory = Other;
},
{
color = 0;
glyphname = Ddha.Nnagari.ss01;
lastChange = "2021-11-05 10:04:10 +0000";
layers = (
{
anchors = (
{
name = bottom;
position = "{345, 0}";
},
{
name = top;
position = "{344, 602}";
}
);
layerId = "5370898B-AC2E-42A7-894F-0BCCE5AE0A77";
paths = (
{
closed = 1;
nodes = (
"594 -4 OFFCURVE",
"718 147 OFFCURVE",
"718 307 CURVE SMOOTH",
"718 403 OFFCURVE",
"662 450 OFFCURVE",
"588 450 CURVE SMOOTH",
"515 450 OFFCURVE",
"464 403 OFFCURVE",
"464 327 CURVE SMOOTH",
"464 227 OFFCURVE",
"549 182 OFFCURVE",
"637 182 CURVE",
"675 243 LINE",
"587 243 OFFCURVE",
"542 269 OFFCURVE",
"542 328 CURVE SMOOTH",
"542 359 OFFCURVE",
"560 379 OFFCURVE",
"590 379 CURVE SMOOTH",
"620 379 OFFCURVE",
"642 352 OFFCURVE",
"642 310 CURVE SMOOTH",
"642 179 OFFCURVE",
"538 68 OFFCURVE",
"345 68 CURVE SMOOTH",
"227 68 OFFCURVE",
"146 117 OFFCURVE",
"146 192 CURVE SMOOTH",
"146 265 OFFCURVE",
"203 306 OFFCURVE",
"325 325 CURVE SMOOTH",
"377 333 LINE",
"377 396 LINE",
"66 427 LINE",
"66 366 LINE",
"278 347 LINE",
"279 370 LINE",
"145 353 OFFCURVE",
"66 290 OFFCURVE",
"66 192 CURVE SMOOTH",
"66 80 OFFCURVE",
"156 -4 OFFCURVE",
"345 -4 CURVE SMOOTH"
);
},
{
closed = 1;
nodes = (
"100 379 LINE",
"174 404 OFFCURVE",
"311 477 OFFCURVE",
"377 575 CURVE",
"289 581 LINE",
"247 526 OFFCURVE",
"145 467 OFFCURVE",
"66 432 CURVE",
"66 379 LINE"
);
},
{
closed = 1;
nodes = (
"321 558 LINE",
"346 575 LINE",
"377 575 LINE",
"377 622 LINE",
"40 622 LINE",
"40 558 LINE"
);
}
);
width = 758;
}
);
script = "";
category = Letter;
subCategory = Other;
},
{
color = 0;
glyphname = Dha.Nnagari.ss01;
lastChange = "2021-11-05 10:04:10 +0000";
layers = (
{
anchors = (
{
name = bottom;
position = "{554, 0}";
},
{
name = top;
position = "{560, 602}";
}
);
layerId = "5370898B-AC2E-42A7-894F-0BCCE5AE0A77";
paths = (
{
closed = 1;
nodes = (
"439 109 OFFCURVE",
"532 151 OFFCURVE",
"579 227 CURVE",
"546 288 LINE",
"514 224 OFFCURVE",
"433 181 OFFCURVE",
"325 181 CURVE SMOOTH",
"217 181 OFFCURVE",
"157 219 OFFCURVE",
"157 276 CURVE SMOOTH",
"157 300 OFFCURVE",
"170 319 OFFCURVE",
"218 343 CURVE SMOOTH",
"322 395 OFFCURVE",
"387 423 OFFCURVE",
"387 507 CURVE SMOOTH",
"387 589 OFFCURVE",
"329 637 OFFCURVE",
"231 637 CURVE SMOOTH",
"134 637 OFFCURVE",
"75 587 OFFCURVE",
"75 505 CURVE SMOOTH",
"75 421 OFFCURVE",
"149 385 OFFCURVE",
"215 374 CURVE",
"245 422 LINE",
"194 436 OFFCURVE",
"153 461 OFFCURVE",
"153 505 CURVE SMOOTH",
"153 543 OFFCURVE",
"177 568 OFFCURVE",
"231 568 CURVE SMOOTH",
"285 568 OFFCURVE",
"309 544 OFFCURVE",
"309 507 CURVE SMOOTH",
"309 467 OFFCURVE",
"283 447 OFFCURVE",
"187 403 CURVE SMOOTH",
"95 361 OFFCURVE",
"75 324 OFFCURVE",
"75 274 CURVE SMOOTH",
"75 169 OFFCURVE",
"179 109 OFFCURVE",
"319 109 CURVE SMOOTH"
);
},
{
closed = 1;
nodes = (
"593 0 LINE",
"593 622 LINE",
"515 622 LINE",
"515 0 LINE"
);
}
);
width = 708;
}
);
script = "";
category = Letter;
subCategory = Other;
},
{
color = 0;
glyphname = PhaPart2.Nnagari.ss01;
lastChange = "2021-11-05 10:04:10 +0000";
layers = (
{
anchors = (
{
name = bottom;
position = "{-154, 0}";
},
{
name = top;
position = "{-148, 602}";
}
);
layerId = "5370898B-AC2E-42A7-894F-0BCCE5AE0A77";
paths = (
{
closed = 1;
nodes = (
"74 345 OFFCURVE",
"143 408 OFFCURVE",
"143 507 CURVE SMOOTH",
"143 704 LINE SMOOTH",
"143 789 OFFCURVE",
"187 825 OFFCURVE",
"253 825 CURVE SMOOTH",
"262 825 OFFCURVE",
"273 824 OFFCURVE",
"283 823 CURVE",
"294 893 LINE",
"280 895 OFFCURVE",
"264 896 OFFCURVE",
"248 896 CURVE SMOOTH",
"139 896 OFFCURVE",
"65 837 OFFCURVE",
"65 703 CURVE SMOOTH",
"65 507 LINE SMOOTH",
"65 449 OFFCURVE",
"28 417 OFFCURVE",
"-26 417 CURVE SMOOTH",
"-80 417 OFFCURVE",
"-114 444 OFFCURVE",
"-124 501 CURVE",
"-170 460 LINE",
"-155 394 OFFCURVE",
"-109 345 OFFCURVE",
"-23 345 CURVE SMOOTH"
);
}
);
width = 227;
}
);
rightKerningGroup = Phass01Right;
script = "";
category = Letter;
subCategory = Other;
},
{
color = 0;
glyphname = Ha.Nnagari.ss01;
lastChange = "2021-11-05 10:04:10 +0000";
layers = (
{
anchors = (
{
name = bottom;
position = "{481, 0}";
},
{
name = top;
position = "{457, 602}";
}
);
layerId = "5370898B-AC2E-42A7-894F-0BCCE5AE0A77";
paths = (
{
closed = 1;
nodes = (
"520 0 LINE",
"520 215 LINE SMOOTH",
"520 316 OFFCURVE",
"456 369 OFFCURVE",
"350 369 CURVE SMOOTH",
"89 369 LINE",
"89 316 LINE",
"219 316 LINE",
"219 301 LINE",
"345 301 LINE SMOOTH",
"410 301 OFFCURVE",
"442 274 OFFCURVE",
"442 215 CURVE SMOOTH",
"442 0 LINE"
);
},
{
closed = 1;
nodes = (
"166 0 LINE",
"166 121 LINE SMOOTH",
"166 232 OFFCURVE",
"230 301 OFFCURVE",
"329 301 CURVE SMOOTH",
"365 301 LINE",
"365 346 LINE",
"329 346 LINE SMOOTH",
"198 346 OFFCURVE",
"90 282 OFFCURVE",
"90 121 CURVE SMOOTH",
"90 0 LINE"
);
},
{
closed = 1;
nodes = (
"146 349 LINE",
"256 382 OFFCURVE",
"393 452 OFFCURVE",
"490 558 CURVE",
"490 591 LINE",
"424 591 LINE",
"350 505 OFFCURVE",
"178 417 OFFCURVE",
"89 386 CURVE",
"89 349 LINE"
);
},
{
closed = 1;
nodes = (
"490 558 LINE",
"490 622 LINE",
"70 622 LINE",
"70 558 LINE"
);
}
);
width = 625;
}
);
script = "";
category = Letter;
subCategory = Other;
},
{
color = 0;
glyphname = VowelA.Nnagari.ss03;
lastChange = "2021-11-05 10:04:10 +0000";
layers = (
{
components = (
{
name = _Ja.ss01.part;
transform = "{1, 0, 0, 1, -20, 0}";
},
{
name = _Danda;
transform = "{1, 0, 0, 1, 510, 0}";
}
);
layerId = "5370898B-AC2E-42A7-894F-0BCCE5AE0A77";
paths = (
{
closed = 1;
nodes = (
"631 262 LINE",
"631 332 LINE",
"434 332 LINE SMOOTH",
"342 332 OFFCURVE",
"292 329 OFFCURVE",
"221 322 CURVE",
"221 277 LINE",
"292 270 OFFCURVE",
"342 262 OFFCURVE",
"434 262 CURVE SMOOTH"
);
}
);
width = 779;
}
);
rightMetricsKey = VowelAa.Nnagari;
script = "";
category = Letter;
subCategory = Other;
},
{
color = 0;
glyphname = Ja.Nnagari.ss03;
lastChange = "2021-11-05 10:04:10 +0000";
layers = (
{
anchors = (
{
name = bottom;
position = "{578, 0}";
}
);
components = (
{
name = _Ja.ss01.part;
}
);
layerId = "5370898B-AC2E-42A7-894F-0BCCE5AE0A77";
paths = (
{
closed = 1;
nodes = (
"617 0 LINE",
"617 332 LINE",
"539 332 LINE",
"539 0 LINE"
);
},
{
closed = 1;
nodes = (
"599 262 LINE",
"599 332 LINE",
"452 332 LINE SMOOTH",
"360 332 OFFCURVE",
"310 329 OFFCURVE",
"239 322 CURVE",
"239 277 LINE",
"310 270 OFFCURVE",
"360 262 OFFCURVE",
"452 262 CURVE SMOOTH"
);
}
);
width = 722;
}
);
script = "";
category = Letter;
subCategory = Other;
},
{
color = 0;
glyphname = Ba.Nnagari.ss03;
lastChange = "2021-11-05 10:04:10 +0000";
layers = (
{
anchors = (
{
name = bottom;
position = "{499, 0}";
},
{
name = top;
position = "{505, 602}";
}
);
layerId = "5370898B-AC2E-42A7-894F-0BCCE5AE0A77";
paths = (
{
closed = 1;
nodes = (
"384 78 OFFCURVE",
"462 114 OFFCURVE",
"503 179 CURVE",
"473 236 LINE",
"444 196 OFFCURVE",
"389 148 OFFCURVE",
"292 148 CURVE SMOOTH",
"191 148 OFFCURVE",
"135 192 OFFCURVE",
"135 271 CURVE SMOOTH",
"135 343 OFFCURVE",
"181 393 OFFCURVE",
"292 393 CURVE SMOOTH",
"387 393 OFFCURVE",
"447 347 OFFCURVE",
"477 312 CURVE",
"489 385 LINE",
"453 432 OFFCURVE",
"372 463 OFFCURVE",
"286 463 CURVE SMOOTH",
"149 463 OFFCURVE",
"57 386 OFFCURVE",
"57 271 CURVE SMOOTH",
"57 147 OFFCURVE",
"143 78 OFFCURVE",
"286 78 CURVE SMOOTH"
);
},
{
closed = 1;
nodes = (
"335 214 OFFCURVE",
"359 237 OFFCURVE",
"359 271 CURVE SMOOTH",
"359 305 OFFCURVE",
"335 328 OFFCURVE",
"300 328 CURVE SMOOTH",
"265 328 OFFCURVE",
"241 305 OFFCURVE",
"241 271 CURVE SMOOTH",
"241 237 OFFCURVE",
"265 214 OFFCURVE",
"300 214 CURVE SMOOTH"
);
},
{
closed = 1;
nodes = (
"538 0 LINE",
"538 622 LINE",
"460 622 LINE",
"460 391 LINE",
"462 379 LINE",
"462 192 LINE",
"460 179 LINE",
"460 0 LINE"
);
},
{
closed = 1;
nodes = (
"496 558 LINE",
"496 622 LINE",
"38 622 LINE",
"38 558 LINE"
);
}
);
width = 653;
}
);
rightMetricsKey = MatraAa.Nnagari;
script = "";
category = Letter;
subCategory = Other;
},
{
color = 0;
glyphname = Ra.Nnagari.ss03;
lastChange = "2021-11-05 10:04:10 +0000";
layers = (
{
anchors = (
{
name = bottom;
position = "{436, 0}";
},
{
name = top;
position = "{442, 602}";
}
);
layerId = "5370898B-AC2E-42A7-894F-0BCCE5AE0A77";
paths = (
{
closed = 1;
nodes = (
"475 0 LINE",
"475 622 LINE",
"397 622 LINE",
"397 244 LINE SMOOTH",
"397 175 OFFCURVE",
"404 97 OFFCURVE",
"409 38 CURVE",
"442 57 LINE",
"392 91 OFFCURVE",
"339 123 OFFCURVE",
"263 164 CURVE SMOOTH",
"77 265 LINE",
"40 201 LINE",
"417 0 LINE"
);
},
{
closed = 1;
nodes = (
"433 558 LINE",
"433 622 LINE",
"50 622 LINE",
"50 558 LINE"
);
}
);
width = 590;
}
);
rightMetricsKey = MatraAa.Nnagari;
script = "";
category = Letter;
subCategory = Other;
},
{
color = 1;
glyphname = KhaRa.Nnagari.ss03;
lastChange = "2021-11-05 10:04:10 +0000";
layers = (
{
components = (
{
name = _Kha.wide;
transform = "{1, 0, 0, 1, 15, 0}";
}
);
layerId = "5370898B-AC2E-42A7-894F-0BCCE5AE0A77";
paths = (
{
closed = 1;
nodes = (
"696 0 LINE",
"700 24 LINE",
"655 63 OFFCURVE",
"601 113 OFFCURVE",
"540 156 CURVE SMOOTH",
"419 241 LINE",
"375 182 LINE",
"638 0 LINE"
);
}
);
width = 831;
}
);
leftMetricsKey = La.Nnagari;
rightMetricsKey = MatraAa.Nnagari;
script = "";
category = Letter;
subCategory = Other;
},
{
color = 1;
glyphname = CaCha.Nnagari.ss01;
lastChange = "2021-11-05 10:04:10 +0000";
layers = (
{
anchors = (
{
name = bottom;
position = "{427, -101}";
},
{
name = top;
position = "{453, 602}";
}
);
components = (
{
name = _part.Shirorekha;
piece = {
Scale = -16.87721;
};
transform = "{1, 0, 0, 1, 455, 0}";
},
{
name = _part.Ca;
piece = {
Small = -36.27705;
};
transform = "{1, 0, 0, 1, -26, 166}";
}
);
layerId = "5370898B-AC2E-42A7-894F-0BCCE5AE0A77";
paths = (
{
closed = 1;
nodes = (
"623 -101 OFFCURVE",
"684 -35 OFFCURVE",
"684 57 CURVE SMOOTH",
"684 151 OFFCURVE",
"622 221 OFFCURVE",
"487 221 CURVE SMOOTH",
"407 221 LINE SMOOTH",
"269 221 OFFCURVE",
"210 151 OFFCURVE",
"210 57 CURVE SMOOTH",
"210 -35 OFFCURVE",
"269 -101 OFFCURVE",
"447 -101 CURVE SMOOTH"
);
},
{
closed = 1;
nodes = (
"317 -39 OFFCURVE",
"286 11 OFFCURVE",
"286 67 CURVE SMOOTH",
"286 115 OFFCURVE",
"317 161 OFFCURVE",
"415 161 CURVE SMOOTH",
"479 161 LINE SMOOTH",
"577 161 OFFCURVE",
"608 115 OFFCURVE",
"608 67 CURVE SMOOTH",
"608 11 OFFCURVE",
"577 -37 OFFCURVE",
"447 -38 CURVE SMOOTH"
);
},
{
closed = 1;
nodes = (
"486 56 LINE",
"486 622 LINE",
"412 622 LINE",
"412 56 LINE"
);
}
);
width = 736;
}
);
leftMetricsKey = Ca.Nnagari;
rightMetricsKey = Ddha.Nnagari;
script = "";
category = Letter;
subCategory = Other;
},
{
color = 1;
glyphname = CaChaRa.Nnagari.ss01;
lastChange = "2021-11-05 10:04:10 +0000";
layers = (
{
anchors = (
{
name = bottom;
position = "{480, -342}";
}
);
components = (
{
name = _part.Ra;
piece = {
Width = -85.52617;
};
transform = "{1, 0, 0, 1, 26, -521}";
},
{
name = CaCha.Nnagari.ss01;
}
);
layerId = "5370898B-AC2E-42A7-894F-0BCCE5AE0A77";
paths = (
{
closed = 1;
nodes = (
"517 -342 LINE",
"517 -54 LINE",
"443 -54 LINE",
"443 -342 LINE"
);
}
);
width = 736;
}
);
leftMetricsKey = Ca.Nnagari;
rightMetricsKey = Ddha.Nnagari;
script = "";
category = Letter;
subCategory = Other;
},
{
color = 1;
glyphname = CaChaLa.Nnagari.ss01;
lastChange = "2021-11-05 10:04:10 +0000";
layers = (
{
anchors = (
{
name = bottom;
position = "{449, -341}";
}
);
components = (
{
name = _part.La;
piece = {
Scale = -13.55676;
};
transform = "{1, 0, 0, 1, -204, -341}";
},
{
name = CaCha.Nnagari.ss01;
}
);
layerId = "5370898B-AC2E-42A7-894F-0BCCE5AE0A77";
paths = (
{
closed = 1;
nodes = (
"487 -341 LINE",
"487 -63 LINE",
"413 -63 LINE",
"413 -341 LINE"
);
}
);
width = 736;
}
);
leftMetricsKey = La.Nnagari;
rightMetricsKey = Ddha.Nnagari;
script = "";
category = Letter;
subCategory = Other;
},
{
color = 1;
glyphname = CaChaVa.Nnagari.ss01;
lastChange = "2021-11-05 10:04:10 +0000";
layers = (
{
anchors = (
{
name = bottom;
position = "{449, -400}";
}
);
components = (
{
name = CaCha.Nnagari.ss01;
},
{
name = _part.Va;
piece = {
wide = -69.17237;
};
transform = "{1, 0, 0, 1, -72, -379}";
}
);
layerId = "5370898B-AC2E-42A7-894F-0BCCE5AE0A77";
paths = (
{
closed = 1;
nodes = (
"487 -400 LINE",
"487 -41 LINE",
"413 -41 LINE",
"413 -400 LINE"
);
}
);
width = 736;
}
);
leftMetricsKey = Ca.Nnagari;
rightMetricsKey = Ddha.Nnagari;
script = "";
category = Letter;
subCategory = Other;
},
{
color = 1;
glyphname = ChaRa.Nnagari.ss03;
lastChange = "2021-11-05 10:04:10 +0000";
layers = (
{
anchors = (
{
name = bottom;
position = "{386, -191}";
},
{
name = top;
position = "{390, 602}";
}
);
components = (
{
name = _part.Ra.half;
piece = {
Sacle = 28.74061;
};
transform = "{1, 0, 0, 1, -85, -191}";
},
{
name = _Cha;
}
);
layerId = "5370898B-AC2E-42A7-894F-0BCCE5AE0A77";
paths = (
{
closed = 1;
nodes = (
"421 -191 LINE",
"421 112 LINE",
"347 112 LINE",
"347 -191 LINE"
);
}
);
width = 783;
}
);
rightKerningGroup = ChaRight;
script = "";
category = Letter;
subCategory = Other;
},
{
color = 1;
glyphname = JhaRa.Nnagari.ss03;
lastChange = "2021-11-05 10:04:10 +0000";
layers = (
{
anchors = (
{
name = bottom;
position = "{707, -103}";
},
{
name = top;
position = "{357, 602}";
}
);
components = (
{
name = _RaAlt;
transform = "{1, 0, 0, 1, 25, -103}";
}
);
layerId = "5370898B-AC2E-42A7-894F-0BCCE5AE0A77";
paths = (
{
closed = 1;
nodes = (
"746 -103 LINE",
"746 353 LINE",
"60 353 LINE",
"60 283 LINE",
"668 283 LINE",
"668 -103 LINE"
);
},
{
closed = 1;
nodes = (
"390 0 LINE",
"390 622 LINE",
"312 622 LINE",
"312 0 LINE"
);
},
{
closed = 1;
nodes = (
"342 558 LINE",
"342 622 LINE",
"40 622 LINE",
"40 558 LINE"
);
}
);
width = 851;
}
);
leftMetricsKey = Jha.Nnagari;
rightMetricsKey = Jha.Nnagari;
script = "";
category = Letter;
subCategory = Other;
},
{
color = 1;
glyphname = TtaTta.Nnagari.ss01;
lastChange = "2021-11-05 10:04:10 +0000";
layers = (
{
anchors = (
{
name = bottom;
position = "{366, -94}";
},
{
name = top;
position = "{385, 602}";
}
);
components = (
{
name = _Tta.half;
transform = "{1, 0, 0, 1, -7, 0}";
}
);
layerId = "5370898B-AC2E-42A7-894F-0BCCE5AE0A77";
paths = (
{
closed = 1;
nodes = (
"479 -119 OFFCURVE",
"589 -59 OFFCURVE",
"645 -9 CURVE",
"599 47 LINE",
"550 0 OFFCURVE",
"454 -51 OFFCURVE",
"333 -51 CURVE SMOOTH",
"199 -51 OFFCURVE",
"149 -2 OFFCURVE",
"149 59 CURVE SMOOTH",
"149 105 OFFCURVE",
"168 136 OFFCURVE",
"223 153 CURVE",
"188 205 LINE",
"112 187 OFFCURVE",
"69 129 OFFCURVE",
"69 59 CURVE SMOOTH",
"69 -45 OFFCURVE",
"143 -119 OFFCURVE",
"333 -119 CURVE SMOOTH"
);
}
);
width = 721;
}
);
leftMetricsKey = Tta.Nnagari;
rightMetricsKey = Tta.Nnagari;
script = "";
category = Letter;
subCategory = Other;
},
{
color = 1;
glyphname = TtaTtaYa.Nnagari.ss01;
lastChange = "2021-11-05 10:04:10 +0000";
layers = (
{
anchors = (
{
name = bottom;
position = "{892, 0}";
},
{
name = top;
position = "{898, 602}";
}
);
components = (
{
name = TtaTta.Nnagari.ss01;
}
);
layerId = "5370898B-AC2E-42A7-894F-0BCCE5AE0A77";
paths = (
{
closed = 1;
nodes = (
"899 493 LINE",
"899 568 LINE",
"859 568 LINE",
"577 13 LINE",
"645 -9 LINE"
);
},
{
closed = 1;
nodes = (
"931 0 LINE",
"931 622 LINE",
"853 622 LINE",
"853 0 LINE"
);
},
{
closed = 1;
nodes = (
"881 558 LINE",
"881 622 LINE",
"400 622 LINE",
"400 558 LINE"
);
}
);
width = 1046;
}
);
leftMetricsKey = Tta.Nnagari;
rightMetricsKey = MatraAa.Nnagari;
script = "";
category = Letter;
subCategory = Other;
},
{
color = 1;
glyphname = TtaTtha.Nnagari.ss01;
lastChange = "2021-11-05 10:04:10 +0000";
layers = (
{
anchors = (
{
name = bottom;
position = "{343, -271}";
},
{
name = top;
position = "{363, 602}";
}
);
components = (
{
name = _Tta.half;
transform = "{1, 0, 0, 1, -29, 0}";
}
);
layerId = "5370898B-AC2E-42A7-894F-0BCCE5AE0A77";
paths = (
{
closed = 1;
nodes = (
"525 -307 OFFCURVE",
"620 -243 OFFCURVE",
"620 -137 CURVE SMOOTH",
"620 -21 OFFCURVE",
"530 30 OFFCURVE",
"343 30 CURVE SMOOTH",
"178 30 OFFCURVE",
"65 -14 OFFCURVE",
"65 -137 CURVE SMOOTH",
"65 -243 OFFCURVE",
"158 -307 OFFCURVE",
"343 -307 CURVE SMOOTH"
);
},
{
closed = 1;
nodes = (
"209 -239 OFFCURVE",
"147 -201 OFFCURVE",
"147 -137 CURVE SMOOTH",
"147 -70 OFFCURVE",
"210 -35 OFFCURVE",
"343 -35 CURVE SMOOTH",
"472 -35 OFFCURVE",
"538 -63 OFFCURVE",
"538 -137 CURVE SMOOTH",
"538 -202 OFFCURVE",
"476 -239 OFFCURVE",
"343 -239 CURVE SMOOTH"
);
},
{
closed = 1;
nodes = (
"384 -184 OFFCURVE",
"404 -164 OFFCURVE",
"404 -134 CURVE SMOOTH",
"404 -104 OFFCURVE",
"384 -84 OFFCURVE",
"343 -84 CURVE SMOOTH",
"302 -84 OFFCURVE",
"282 -104 OFFCURVE",
"282 -134 CURVE SMOOTH",
"282 -164 OFFCURVE",
"302 -184 OFFCURVE",
"343 -184 CURVE SMOOTH"
);
},
{
closed = 1;
nodes = (
"382 -6 LINE",
"382 149 LINE",
"304 149 LINE",
"304 -6 LINE"
);
}
);
width = 696;
}
);
leftMetricsKey = Ttha.Nnagari;
rightMetricsKey = Tta.Nnagari;
},
{
color = 1;
glyphname = TthaTtha.Nnagari.ss01;
lastChange = "2021-11-05 10:04:10 +0000";
layers = (
{
anchors = (
{
name = bottom;
position = "{333, -261}";
},
{
name = top;
position = "{339, 602}";
}
);
components = (
{
name = _TthaAlt;
}
);
layerId = "5370898B-AC2E-42A7-894F-0BCCE5AE0A77";
paths = (
{
closed = 1;
nodes = (
"515 -261 OFFCURVE",
"610 -197 OFFCURVE",
"610 -91 CURVE SMOOTH",
"610 25 OFFCURVE",
"520 76 OFFCURVE",
"333 76 CURVE SMOOTH",
"168 76 OFFCURVE",
"55 32 OFFCURVE",
"55 -91 CURVE SMOOTH",
"55 -197 OFFCURVE",
"148 -261 OFFCURVE",
"333 -261 CURVE SMOOTH"
);
},
{
closed = 1;
nodes = (
"199 -193 OFFCURVE",
"137 -155 OFFCURVE",
"137 -91 CURVE SMOOTH",
"137 -24 OFFCURVE",
"200 11 OFFCURVE",
"333 11 CURVE SMOOTH",
"462 11 OFFCURVE",
"528 -17 OFFCURVE",
"528 -91 CURVE SMOOTH",
"528 -156 OFFCURVE",
"466 -193 OFFCURVE",
"333 -193 CURVE SMOOTH"
);
},
{
closed = 1;
nodes = (
"374 -140 OFFCURVE",
"394 -120 OFFCURVE",
"394 -90 CURVE SMOOTH",
"394 -60 OFFCURVE",
"374 -40 OFFCURVE",
"333 -40 CURVE SMOOTH",
"292 -40 OFFCURVE",
"272 -60 OFFCURVE",
"272 -90 CURVE SMOOTH",
"272 -120 OFFCURVE",
"292 -140 OFFCURVE",
"333 -140 CURVE SMOOTH"
);
},
{
closed = 1;
nodes = (
"372 60 LINE",
"372 171 LINE",
"294 171 LINE",
"294 60 LINE"
);
}
);
width = 700;
}
);
leftMetricsKey = Ttha.Nnagari;
rightMetricsKey = Ttha.Nnagari;
},
{
color = 1;
glyphname = DdhaRa.Nnagari.ss01;
lastChange = "2021-11-05 10:04:10 +0000";
layers = (
{
anchors = (
{
name = bottom;
position = "{527, -171}";
},
{
name = top;
position = "{344, 602}";
}
);
components = (
{
name = _part.Ra;
transform = "{1, 0, 0, 1, 53, -344}";
},
{
name = _Ddha.ss01.half;
}
);
layerId = "5370898B-AC2E-42A7-894F-0BCCE5AE0A77";
paths = (
{
closed = 1;
nodes = (
"565 -171 LINE",
"565 167 LINE",
"491 167 LINE",
"491 -171 LINE"
);
}
);
width = 760;
}
);
leftMetricsKey = Ddha.Nnagari;
rightMetricsKey = Ddha.Nnagari;
script = "";
category = Letter;
subCategory = Other;
},
{
color = 1;
glyphname = DdhaVa.Nnagari.ss01;
lastChange = "2021-11-05 10:04:10 +0000";
layers = (
{
anchors = (
{
name = bottom;
position = "{523, -271}";
},
{
name = top;
position = "{344, 602}";
}
);
components = (
{
name = _Ddha.ss01.half;
},
{
name = _part.Va;
piece = {
wide = 70;
};
transform = "{1, 0, 0, 1, 5, -216}";
}
);
layerId = "5370898B-AC2E-42A7-894F-0BCCE5AE0A77";
paths = (
{
closed = 1;
nodes = (
"561 -271 LINE",
"561 168 LINE",
"487 168 LINE",
"487 -271 LINE"
);
}
);
width = 760;
}
);
leftMetricsKey = Ddha.Nnagari;
rightMetricsKey = Ddha.Nnagari;
script = "";
category = Letter;
subCategory = Other;
},
{
color = 1;
glyphname = DhaMa.Nnagari.ss01;
lastChange = "2021-11-05 10:04:10 +0000";
layers = (
{
anchors = (
{
name = bottom;
position = "{826, 0}";
},
{
name = top;
position = "{832, 602}";
}
);
components = (
{
name = _Dha.ss01.half;
transform = "{1, 0, 0, 1, 20, 0}";
}
);
layerId = "5370898B-AC2E-42A7-894F-0BCCE5AE0A77";
paths = (
{
closed = 1;
nodes = (
"560 1 OFFCURVE",
"605 39 OFFCURVE",
"605 119 CURVE SMOOTH",
"605 276 OFFCURVE",
"600 471 OFFCURVE",
"595 622 CURVE",
"518 622 LINE",
"524 469 OFFCURVE",
"528 280 OFFCURVE",
"528 127 CURVE SMOOTH",
"528 83 OFFCURVE",
"513 69 OFFCURVE",
"488 69 CURVE SMOOTH",
"460 69 OFFCURVE",
"446 86 OFFCURVE",
"446 110 CURVE SMOOTH",
"446 163 OFFCURVE",
"490 181 OFFCURVE",
"626 181 CURVE SMOOTH",
"812 181 LINE",
"812 252 LINE",
"626 252 LINE SMOOTH",
"437 252 OFFCURVE",
"369 206 OFFCURVE",
"369 108 CURVE SMOOTH",
"369 43 OFFCURVE",
"418 1 OFFCURVE",
"489 1 CURVE SMOOTH"
);
},
{
closed = 1;
nodes = (
"865 0 LINE",
"865 622 LINE",
"787 622 LINE",
"787 0 LINE"
);
},
{
closed = 1;
nodes = (
"822 558 LINE",
"822 622 LINE",
"562 622 LINE",
"562 558 LINE"
);
}
);
width = 980;
}
);
leftMetricsKey = Dha.Nnagari.ss01;
rightMetricsKey = MatraAa.Nnagari;
script = "";
category = Letter;
subCategory = Other;
},
{
color = 1;
glyphname = NaHa.Nnagari.ss01;
lastChange = "2021-11-05 10:04:10 +0000";
layers = (
{
anchors = (
{
name = bottom;
position = "{498, -321}";
},
{
name = top;
position = "{516, 602}";
}
);
components = (
{
name = _part.Na;
transform = "{1, 0, 0, 1, -32, 201}";
},
{
name = _part.Shirorekha;
piece = {
Scale = -38.6843;
};
transform = "{1, 0, 0, 1, 503, 0}";
}
);
layerId = "5370898B-AC2E-42A7-894F-0BCCE5AE0A77";
paths = (
{
closed = 1;
nodes = (
"549 97 LINE",
"549 622 LINE",
"471 622 LINE",
"471 161 LINE",
"45 161 LINE",
"45 97 LINE"
);
},
{
closed = 1;
nodes = (
"183 -321 LINE",
"183 -280 LINE SMOOTH",
"183 -169 OFFCURVE",
"247 -100 OFFCURVE",
"346 -100 CURVE SMOOTH",
"382 -100 LINE",
"382 -55 LINE",
"346 -55 LINE SMOOTH",
"215 -55 OFFCURVE",
"107 -119 OFFCURVE",
"107 -280 CURVE SMOOTH",
"107 -321 LINE"
);
},
{
closed = 1;
nodes = (
"537 -321 LINE",
"537 -186 LINE SMOOTH",
"537 -85 OFFCURVE",
"473 -32 OFFCURVE",
"367 -32 CURVE SMOOTH",
"106 -32 LINE",
"106 -85 LINE",
"236 -85 LINE",
"236 -100 LINE",
"362 -100 LINE SMOOTH",
"427 -100 OFFCURVE",
"459 -127 OFFCURVE",
"459 -186 CURVE SMOOTH",
"459 -321 LINE"
);
},
{
closed = 1;
nodes = (
"163 -52 LINE",
"273 -19 OFFCURVE",
"410 31 OFFCURVE",
"507 117 CURVE",
"507 150 LINE",
"441 150 LINE",
"367 81 OFFCURVE",
"195 16 OFFCURVE",
"106 -15 CURVE",
"106 -52 LINE"
);
}
);
width = 664;
}
);
leftMetricsKey = Na.Nnagari;
rightMetricsKey = MatraAa.Nnagari;
script = "";
category = Letter;
subCategory = Other;
},
{
color = 1;
glyphname = MaHa.Nnagari.ss01;
lastChange = "2021-11-05 10:04:10 +0000";
layers = (
{
anchors = (
{
name = bottom;
position = "{538, -321}";
},
{
name = top;
position = "{626, 602}";
}
);
components = (
{
name = _Ha.alt.bottom;
}
);
layerId = "5370898B-AC2E-42A7-894F-0BCCE5AE0A77";
paths = (
{
closed = 1;
nodes = (
"306 205 OFFCURVE",
"351 243 OFFCURVE",
"351 323 CURVE SMOOTH",
"351 413 OFFCURVE",
"341 506 OFFCURVE",
"331 593 CURVE",
"254 593 LINE",
"266 506 OFFCURVE",
"274 418 OFFCURVE",
"274 331 CURVE SMOOTH",
"274 287 OFFCURVE",
"259 273 OFFCURVE",
"234 273 CURVE SMOOTH",
"206 273 OFFCURVE",
"192 290 OFFCURVE",
"192 314 CURVE SMOOTH",
"192 367 OFFCURVE",
"236 385 OFFCURVE",
"372 385 CURVE SMOOTH",
"619 385 LINE",
"619 456 LINE",
"372 456 LINE SMOOTH",
"183 456 OFFCURVE",
"115 410 OFFCURVE",
"115 312 CURVE SMOOTH",
"115 247 OFFCURVE",
"164 205 OFFCURVE",
"235 205 CURVE SMOOTH"
);
},
{
closed = 1;
nodes = (
"619 558 LINE",
"619 622 LINE",
"72 622 LINE",
"72 558 LINE"
);
}
);
width = 774;
}
);
leftMetricsKey = Ma.Nnagari;
rightMetricsKey = MatraAa.Nnagari;
},
{
color = 1;
glyphname = SsaTtha.Nnagari.ss01;
lastChange = "2021-11-05 10:04:10 +0000";
layers = (
{
components = (
{
name = _Pa.half;
transform = "{1, 0, 0, 1, 10, 0}";
}
);
layerId = "5370898B-AC2E-42A7-894F-0BCCE5AE0A77";
paths = (
{
closed = 1;
nodes = (
"344 -125 OFFCURVE",
"418 -65 OFFCURVE",
"418 37 CURVE SMOOTH",
"418 138 OFFCURVE",
"344 201 OFFCURVE",
"233 201 CURVE SMOOTH",
"124 201 OFFCURVE",
"52 140 OFFCURVE",
"52 37 CURVE SMOOTH",
"52 -65 OFFCURVE",
"124 -125 OFFCURVE",
"233 -125 CURVE SMOOTH"
);
},
{
closed = 1;
nodes = (
"169 -53 OFFCURVE",
"126 -17 OFFCURVE",
"126 37 CURVE SMOOTH",
"126 92 OFFCURVE",
"169 129 OFFCURVE",
"233 129 CURVE SMOOTH",
"297 129 OFFCURVE",
"340 92 OFFCURVE",
"340 37 CURVE SMOOTH",
"340 -17 OFFCURVE",
"297 -53 OFFCURVE",
"233 -53 CURVE SMOOTH"
);
},
{
closed = 1;
nodes = (
"264 -4 OFFCURVE",
"279 13 OFFCURVE",
"279 38 CURVE SMOOTH",
"279 63 OFFCURVE",
"264 80 OFFCURVE",
"233 80 CURVE SMOOTH",
"202 80 OFFCURVE",
"187 63 OFFCURVE",
"187 38 CURVE SMOOTH",
"187 13 OFFCURVE",
"202 -4 OFFCURVE",
"233 -4 CURVE SMOOTH"
);
},
{
closed = 1;
nodes = (
"309 218 OFFCURVE",
"356 313 OFFCURVE",
"356 427 CURVE SMOOTH",
"356 510 OFFCURVE",
"334 553 OFFCURVE",
"314 589 CURVE",
"243 589 LINE",
"265 549 OFFCURVE",
"284 495 OFFCURVE",
"284 427 CURVE SMOOTH",
"284 326 OFFCURVE",
"237 239 OFFCURVE",
"183 182 CURVE",
"255 162 LINE"
);
}
);
width = 671;
}
);
leftMetricsKey = SsaTtha.Nnagari;
rightMetricsKey = MatraAa.Nnagari;
},
